<svg xmlns="http://www.w3.org/2000/svg" width="118.6" height="20.123" xmlns:v="https://vecta.io/nano"><defs><clipPath id="A"><path d="M589.5 28.972H684V12.937h-94.5v16.034z"/></clipPath><clipPath id="B"><path d="M589.5 12.937H684v16.034h-94.5V12.937z"/></clipPath><clipPath id="C"><path d="M589.5 28.972H684V12.937h-94.5v16.034z"/></clipPath><clipPath id="D"><path d="M589.5 28.656h94.48V12.958H589.5v15.698z"/></clipPath><clipPath id="E"><path d="M589.5 12.937H684v16.034h-94.5V12.937z"/></clipPath><clipPath id="F"><path d="M589.5 28.972H684V12.937h-94.5v16.034z"/></clipPath><clipPath id="G"><path d="M589.5 12.937H684v16.034h-94.5V12.937z"/></clipPath></defs><g transform="matrix(1.25 0 0 -1.25 -736.62464 36.07079)"><g clip-path="url(#F)"><g clip-path="url(#G)"><path d="M626.559 27.217c0 .796.642 1.44 1.433 1.44a1.44 1.44 0 0 0 1.438-1.44 1.44 1.44 0 0 0-1.438-1.439c-.791 0-1.433.644-1.433 1.439" fill="#273b7d"/><path d="M649.215 17.641c0 .796.642 1.441 1.433 1.441a1.44 1.44 0 0 0 0-2.88c-.791 0-1.433.645-1.433 1.439" fill="#499fdd"/><g fill="#273b7d"><path d="M602.992 18.263c-1.237 0-2.096.982-2.096 2.386s.859 2.385 2.096 2.385c1.244 0 2.113-.982 2.113-2.385 0-1.426-.851-2.386-2.113-2.386zm0 6.867c-2.616 0-4.515-1.885-4.515-4.481s1.899-4.481 4.515-4.481c2.626 0 4.533 1.885 4.533 4.481s-1.907 4.481-4.533 4.481m20.785-4.706a2.17 2.17 0 0 1-.342.482l-.079.084.083.08c.12.127.243.277.361.451l2.309 3.432h-2.803l-1.735-2.685c-.098-.144-.297-.217-.593-.217h-.395v5.076c0 1.015-.633 1.153-1.316 1.153h-1.17l.002-11.982h2.484v3.594h.233c.283 0 .476-.033.564-.187l1.37-2.586c.383-.702.764-.822 1.482-.822h1.903l-1.418 2.345-.94 1.78m12.058 4.727c-1.263 0-2.069-.561-2.521-1.036l-.151-.152-.053.207c-.133.508-.58.788-1.253.788h-1.113l.007-8.654h2.467v3.988c0 .39.051.728.154 1.037.275.934 1.04 1.515 1.998 1.515.77 0 1.071-.406 1.071-1.456v-3.769c0-.896.414-1.315 1.311-1.315h1.174l-.004 5.504c0 2.187-1.067 3.343-3.086 3.343"/><path d="M628.025 24.953h-1.169l.008-6.691h-.001v-1.961h1.248l.044-.002.581.002h.579v.003h.004l.005 7.335c0 .885-.423 1.314-1.298 1.314m-15.345-6.69c-1.237 0-2.098.982-2.098 2.386s.861 2.385 2.098 2.385 2.112-.982 2.112-2.385c0-1.426-.851-2.386-2.112-2.386zm0 6.867c-2.619 0-4.518-1.885-4.518-4.481s1.899-4.481 4.518-4.481 4.533 1.885 4.533 4.481-1.91 4.481-4.533 4.481"/></g></g></g><g clip-path="url(#C)"><g clip-path="url(#D)"><g clip-path="url(#E)"><path d="M665.555 18.263c-1.236 0-2.098.982-2.098 2.386s.862 2.385 2.098 2.385 2.113-.982 2.113-2.385c0-1.426-.851-2.386-2.113-2.386zm0 6.867c-2.618 0-4.518-1.885-4.518-4.481s1.899-4.481 4.518-4.481 4.533 1.885 4.533 4.481-1.909 4.481-4.533 4.481" fill="#499fdd"/><path d="M644.122 18.644c-1.349 0-1.829 1.177-1.829 2.279 0 .486.123 2.069 1.699 2.069.783 0 1.827-.224 1.827-2.151 0-1.817-.924-2.198-1.698-2.198zm2.978 6.332c-.468 0-.828-.187-1.009-.527l-.068-.132-.114.099c-.398.345-1.112.753-2.271.753-2.307 0-3.86-1.732-3.86-4.311s1.607-4.375 3.906-4.375c.785 0 1.406.183 1.898.556l.19.143v-.241c0-1.156-.747-1.793-2.102-1.793a4.97 4.97 0 0 0-1.659.306c-.523.158-.83.027-1.042-.498l-.196-.484-.277-.708.172-.091a6.74 6.74 0 0 1 3.016-.735c2.101 0 4.554 1.075 4.554 4.101l.009 7.937h-1.146" fill="#273b7d"/></g></g></g><g clip-path="url(#A)"><g clip-path="url(#B)"><path d="M593.805 18.362l-2.008.002v2.401c0 .513.199.78.639.841h1.369c.977 0 1.609-.616 1.61-1.614-.001-1.023-.616-1.63-1.61-1.63zm-2.008 6.476v.632c0 .553.234.816.747.85h1.028c.881 0 1.409-.527 1.409-1.41 0-.673-.361-1.458-1.377-1.458h-1.807v1.386zm4.572-2.396l-.363.204.317.271c.369.317.986 1.029.986 2.26 0 1.883-1.461 3.099-3.722 3.099h-2.58v.001h-.294a1.26 1.26 0 0 1-1.214-1.244V16.343h1.184 2.955c2.513 0 4.135 1.368 4.135 3.487 0 1.141-.524 2.116-1.405 2.612" fill="#273b7d"/><g fill="#499fdd"><path d="M681.107 25.121a3.4 3.4 0 0 1-2.648-1.283l-.179-.227-.14.253c-.457.833-1.243 1.256-2.337 1.256-1.147 0-1.916-.64-2.273-1.02l-.234-.253-.09.333c-.13.479-.557.743-1.204.743h-1.037l-.01-8.62h2.356v3.805c0 .333.041.663.125 1.008.225.919.843 1.908 1.882 1.809.641-.061.953-.556.953-1.513v-5.11h2.372v3.805c0 .417.039.728.133 1.041.191.878.836 1.778 1.838 1.778.725 0 .994-.411.994-1.514v-3.85c0-.871.389-1.26 1.259-1.26h1.109l.002 5.503c0 2.198-.968 3.314-2.872 3.314m-21.432-5.822c-.007-.009-1.021-1.077-2.355-1.077-1.216 0-2.444.746-2.444 2.412 0 1.438.952 2.443 2.316 2.443.443 0 .946-.159 1.025-.425l.012-.045c.182-.605.731-.637.839-.637l1.291-.001v1.128c0 1.488-1.893 2.028-3.167 2.028-2.724 0-4.7-1.896-4.7-4.508s1.955-4.504 4.65-4.504c2.339 0 3.61 1.537 3.622 1.553l.068.083-1.022 1.696-.134-.143"/></g></g></g></g></svg>