<svg xmlns="http://www.w3.org/2000/svg" viewBox="0 0 128 128" xmlns:v="https://vecta.io/nano"><path d="M58.24 40.174a1.042 1.042 0 0 0-.21-.647 1.192 1.192 0 0 0-.884-.5 1.161 1.161 0 0 0-.917.344l-.155.155a3.282 3.282 0 0 1-2.458.933 170.7 170.7 0 0 0-23.13 0 3.265 3.265 0 0 1-2.45-.9l-.11-.109a1.268 1.268 0 0 0-1.7-.129 1.195 1.195 0 0 0-.053 1.731l.076.075a3.2 3.2 0 0 1 .918 2.627 48.734 48.734 0 0 0 0 11.457 3.471 3.471 0 0 1 .02.375h29.705a3.216 3.216 0 0 1 .02-.355 48.732 48.732 0 0 0 0-11.459 3.242 3.242 0 0 1 .913-2.64 1.366 1.366 0 0 0 .415-.958zM22.811 55.8a5.281 5.281 0 0 1 .342-.476 52.66 52.66 0 0 1 0-11.65 5.183 5.183 0 0 1 7.419-7.228 174.553 174.553 0 0 1 22.933 0 5.179 5.179 0 0 1 7.718.671 5.008 5.008 0 0 1 1.019 3.059 5.359 5.359 0 0 1-1.312 3.492 52.682 52.682 0 0 1 0 11.64c.078.087.138.187.21.278h5.745l.189-.26a52.643 52.643 0 0 1 0-11.652 5.183 5.183 0 0 1 7.419-7.227 174.568 174.568 0 0 1 22.934 0 5.177 5.177 0 0 1 7.717.671 5.008 5.008 0 0 1 1.019 3.059 5.359 5.359 0 0 1-1.312 3.492 52.652 52.652 0 0 1 0 11.64 5.118 5.118 0 0 1 .363.493 16.291 16.291 0 0 1 9.859 5.436V47.069a16.576 16.576 0 0 0-16.561-16.557H29.488A16.576 16.576 0 0 0 12.93 47.069v14.269a16.372 16.372 0 0 1 9.881-5.538zm79.349-15.626a1.042 1.042 0 0 0-.21-.647 1.19 1.19 0 0 0-.878-.5 1.168 1.168 0 0 0-.928.35l-.15.15a3.28 3.28 0 0 1-2.458.933 170.86 170.86 0 0 0-23.13 0 3.266 3.266 0 0 1-2.45-.9l-.11-.109a1.254 1.254 0 0 0-1.683-.134 1.187 1.187 0 0 0-.412.862 1.169 1.169 0 0 0 .344.874l.08.08a3.234 3.234 0 0 1 .914 2.625 48.709 48.709 0 0 0 0 11.454 3.472 3.472 0 0 1 .02.375h29.706a3.3 3.3 0 0 1 .019-.353 48.727 48.727 0 0 0 0-11.462 3.2 3.2 0 0 1 .913-2.64 1.366 1.366 0 0 0 .413-.958zM24.259 59.635a12.322 12.322 0 0 0-7.333 3.282h94.221a12.359 12.359 0 0 0-7.366-3.281h-.007l-1.114-.051H25.34a10.75 10.75 0 0 0-1.081.05zm84.969 28.736h3.973v9.117h-3.973zM12.93 72v4.39h102.14V72a12.485 12.485 0 0 0-1.084-5.087H14.05A12.243 12.243 0 0 0 12.93 72zm-1.94 8.397v3.974h1.809 7.973 86.456 7.973 1.809v-3.974H10.99zm3.809 7.974h3.973v9.117h-3.973z"/></svg>