<svg xmlns="http://www.w3.org/2000/svg" viewBox="0 0 64 64" fill="#1b1b1e" xmlns:v="https://vecta.io/nano"><path d="M11 25h42v2H11zm0 4h42v2H11zm3-16h36a1.003 1.003 0 0 0 1-1V9H13v3a1.003 1.003 0 0 0 1 1z"/><path d="M58 9h-5v3a3.009 3.009 0 0 1-3 3H14a3.009 3.009 0 0 1-3-3V9H6a5.002 5.002 0 0 0-5 5v16a5.002 5.002 0 0 0 5 5h3V25a2.006 2.006 0 0 1 2-2h42a2.006 2.006 0 0 1 2 2v10h3a5.002 5.002 0 0 0 5-5V14a5.002 5.002 0 0 0-5-5zM12 22a1 1 0 1 1 1-1 1.003 1.003 0 0 1-1 1zm3 0a1 1 0 1 1 1-1 1.003 1.003 0 0 1-1 1zm22 0H27a1 1 0 0 1 0-2h10a1 1 0 0 1 0 2zm12 0a1 1 0 1 1 1-1 1.003 1.003 0 0 1-1 1zm3 0a1 1 0 1 1 1-1 1.003 1.003 0 0 1-1 1zM11 33h42v2H11zm27.12 5a1 1 0 0 0-2 0 2.755 2.755 0 0 1-.886 2.022 4.72 4.72 0 0 0 0 6.619 2.756 2.756 0 0 1 0 4.048A4.676 4.676 0 0 0 33.88 54a1 1 0 0 0 2 0 2.763 2.763 0 0 1 .886-2.024 4.722 4.722 0 0 0 0-6.621 2.753 2.753 0 0 1 0-4.046A4.674 4.674 0 0 0 38.12 38zm-8 0a1 1 0 0 0-2 0 2.757 2.757 0 0 1-.886 2.022 4.72 4.72 0 0 0 0 6.619 2.756 2.756 0 0 1 0 4.048A4.676 4.676 0 0 0 25.88 54a1 1 0 0 0 2 0 2.761 2.761 0 0 1 .886-2.024 4.722 4.722 0 0 0 0-6.621 2.753 2.753 0 0 1 0-4.046A4.674 4.674 0 0 0 30.12 38zm-8 0a1 1 0 0 0-2 0 2.757 2.757 0 0 1-.886 2.022 4.72 4.72 0 0 0 0 6.619 2.756 2.756 0 0 1 0 4.048A4.676 4.676 0 0 0 17.88 54a1 1 0 0 0 2 0 2.761 2.761 0 0 1 .886-2.024 4.722 4.722 0 0 0 0-6.621 2.753 2.753 0 0 1 0-4.046A4.674 4.674 0 0 0 22.12 38zm24 0a1 1 0 0 0-2 0 2.755 2.755 0 0 1-.886 2.022 4.72 4.72 0 0 0 0 6.619 2.756 2.756 0 0 1 0 4.048A4.676 4.676 0 0 0 41.88 54a1 1 0 0 0 2 0 2.763 2.763 0 0 1 .886-2.024 4.722 4.722 0 0 0 0-6.621 2.753 2.753 0 0 1 0-4.046A4.674 4.674 0 0 0 46.12 38z"/></svg>