<?xml version="1.0" standalone="no"?>
<!DOCTYPE svg PUBLIC "-//W3C//DTD SVG 20010904//EN"
 "http://www.w3.org/TR/2001/REC-SVG-20010904/DTD/svg10.dtd">
<svg version="1.0" xmlns="http://www.w3.org/2000/svg"
 width="512.000000pt" height="512.000000pt" viewBox="0 0 512.000000 512.000000"
 preserveAspectRatio="xMidYMid meet">
    <rect width="512.000000pt" height="512.000000pt" fill="#ffffff" />
<g transform="translate(0.000000,512.000000) scale(0.100000,-0.100000)"
fill="#000000" stroke="none">
<path d="M3428 3590 c-305 -55 -577 -309 -677 -633 -56 -181 -71 -440 -37
-619 66 -348 258 -618 531 -748 121 -57 206 -74 365 -73 200 1 351 39 477 119
62 39 209 183 232 227 13 24 12 29 -3 46 -17 19 -20 18 -104 -55 -212 -183
-372 -242 -632 -232 -148 6 -204 30 -305 132 -158 159 -245 446 -245 806 0
316 57 582 156 729 117 174 305 253 534 224 224 -29 327 -139 371 -395 l11
-68 44 0 44 0 0 224 0 225 -57 21 c-155 59 -236 72 -453 76 -113 1 -226 -1
-252 -6z"/>
<path d="M790 3516 l0 -46 135 0 135 0 0 -910 0 -910 -135 0 -135 0 0 -45 0
-45 405 0 405 0 0 45 0 45 -133 0 -134 0 -6 212 c-4 116 -7 309 -7 430 l0 218
88 0 88 0 275 -392 c151 -215 280 -402 288 -416 12 -23 11 -27 -5 -39 -10 -7
-39 -13 -66 -13 l-48 0 0 -45 0 -45 336 0 335 0 -3 42 -3 43 -53 7 c-61 9
-118 36 -148 70 -11 12 -148 196 -303 407 -292 396 -294 400 -230 401 87 0
270 74 351 140 52 43 115 141 138 219 24 76 29 212 10 281 -42 155 -166 277
-338 334 -143 47 -163 48 -714 53 l-528 5 0 -46z m1015 -68 c202 -59 299 -219
282 -463 -10 -148 -67 -252 -172 -315 -95 -56 -172 -71 -397 -77 l-198 -6 0
224 c0 123 3 322 7 443 l6 218 211 -5 c142 -3 227 -9 261 -19z"/>
</g>
</svg>
