<svg xmlns="http://www.w3.org/2000/svg" width="128" height="128" fill="#282d33" xmlns:v="https://vecta.io/nano"><path d="M111.495 93.364H26.183c-6.92 0-12.55-5.628-12.55-12.549v-17.58h4.001v17.58a8.56 8.56 0 0 0 8.548 8.548h85.312a8.56 8.56 0 0 0 8.55-8.548v-9.669h4.001v9.669c.001 6.921-5.63 12.549-12.55 12.549z"/><path d="M124.683 65.236H39.59v-4.002h84.409v-8.745H13.68v8.745h12.724v4.002H12.999c-1.83 0-3.319-1.489-3.319-3.319v-10.11c0-1.83 1.489-3.319 3.319-3.319h111.684c1.829 0 3.317 1.489 3.317 3.319v10.11c0 1.83-1.488 3.319-3.317 3.319zM25.282 92.685h4.001v6.154h-4.001zm81.796 0h4.001v6.154h-4.001zM3.919 54.157L0 53.353C1.854 44.33 9.894 37.78 19.119 37.78a19.39 19.39 0 0 1 6.638 1.164c4.345-3.12 9.859-4.379 15.25-3.271 1.841-2.151 4.514-3.401 7.396-3.401 2.99 0 5.729 1.333 7.555 3.585 1.371-.706 2.9-1.082 4.46-1.082 2.806 0 5.436 1.204 7.264 3.243 1.444-.809 3.073-1.24 4.75-1.24 3.204 0 6.205 1.609 8.012 4.203.92-.133 1.841-.2 2.751-.2v4.001c-1.098 0-2.22.125-3.335.37l-1.549.342-.687-1.431c-.971-2.025-2.962-3.284-5.192-3.284a5.75 5.75 0 0 0-3.869 1.504l-1.877 1.704-1.222-2.222c-1.012-1.844-2.946-2.989-5.046-2.989-1.37 0-2.698.492-3.74 1.387l-1.966 1.686-1.135-2.327a5.72 5.72 0 0 0-5.174-3.248 5.73 5.73 0 0 0-4.88 2.717l-.792 1.267-1.44-.4a15.45 15.45 0 0 0-13.954 2.916l-.943.77-1.118-.484c-1.954-.847-4.026-1.276-6.157-1.276-7.334-.004-13.726 5.201-15.2 12.373zm111.727-13.604h4.002v3.729h-4.002zM.038 65.872h4.001v3.726H.038zm106.496-36.711h4.002v3.737h-4.002zm-13.668 8.543h4.001v3.728h-4.001zM4.592 85.229h4.001v3.731H4.592z"/></svg>