<svg xmlns="http://www.w3.org/2000/svg" viewBox="0 0 64 64" xmlns:v="https://vecta.io/nano"><path d="M52 51H12a5 5 0 0 1-5-5V12a5 5 0 0 1 5-5h40a5 5 0 0 1 5 5v34a5 5 0 0 1-5 5zM12 9a3 3 0 0 0-3 3v34a3 3 0 0 0 3 3h40a3 3 0 0 0 3-3V12a3 3 0 0 0-3-3zm37 37H15a3 3 0 0 1-3-3V15a3 3 0 0 1 3-3h34a3 3 0 0 1 3 3v28a3 3 0 0 1-3 3zM15 14a1 1 0 0 0-1 1v28a1 1 0 0 0 1 1h34a1 1 0 0 0 1-1V15a1 1 0 0 0-1-1z"/><path d="M51 25a2 2 0 0 1-2-2v-4a2 2 0 0 1 4 0v4a2 2 0 0 1-2 2zm0-6h0zm0 23a2 2 0 0 1-2-2v-4a2 2 0 0 1 4 0v4a2 2 0 0 1-2 2zm0-6h0zm-19-2a5 5 0 1 1 5-5 5 5 0 0 1-5 5zm0-8a3 3 0 1 0 3 3 3 3 0 0 0-3-3z"/><path d="M32 26a1 1 0 0 1-1-1v-2a1 1 0 0 1 2 0v2a1 1 0 0 1-1 1zm0 10a1 1 0 0 1-1-1v-2a1 1 0 0 1 2 0v2a1 1 0 0 1-1 1zm-4-6h-2a1 1 0 0 1 0-2h2a1 1 0 0 1 0 2zm10 0h-2a1 1 0 0 1 0-2h2a1 1 0 0 1 0 2zm-8.83-2.83a1 1 0 0 1-.71-.29l-1.41-1.42a1 1 0 0 1 1.41-1.41l1.42 1.41a1 1 0 0 1-.71 1.71zm7.07 7.07a1 1 0 0 1-.7-.29l-1.42-1.41a1.004 1.004 0 1 1 1.42-1.42L37 32.54A1 1 0 0 1 37 34a1 1 0 0 1-.76.24zm-8.48 0a1 1 0 0 1-.71-1.7l1.41-1.42a1.004 1.004 0 1 1 1.42 1.42L28.46 34a1 1 0 0 1-.7.24z"/><path d="M34.83 27.17a1 1 0 0 1-.71-1.71l1.42-1.41A1.015 1.015 0 1 1 37 25.46l-1.41 1.42a1 1 0 0 1-.76.29zM17 57a3 3 0 0 1-3-3v-4a1 1 0 0 1 1-1h4a1 1 0 0 1 1 1v4a3 3 0 0 1-3 3zm-1-6v3a1 1 0 0 0 2 0v-3zm31 6a3 3 0 0 1-3-3v-4a1 1 0 0 1 2 0v4a1 1 0 0 0 2 0v-4a1 1 0 0 1 2 0v4a3 3 0 0 1-3 3zM20 38a3 3 0 0 1-3-3V23a3 3 0 0 1 3-3 1 1 0 0 1 0 2 1 1 0 0 0-1 1v12a1 1 0 0 0 1 1 1 1 0 0 1 0 2z"/></svg>