<svg xmlns="http://www.w3.org/2000/svg" viewBox="0 0 122.88 81.75" xmlns:v="https://vecta.io/nano"><path d="M70.66 4.52a6.06 6.06 0 0 1 6.08 6.08 6.06 6.06 0 0 1-6.08 6.08 6.06 6.06 0 0 1-6.08-6.08 6.06 6.06 0 0 1 1.78-4.3c1.09-1.09 2.62-1.78 4.3-1.78h0 0zm26.65 55.64l-5.75-5.17c-1.96-1.12-6.48-4.21-8.47-4.17-1.46.04-2.83.86-4.11 2.54l-6.7 10.1-1.26 1.3-1.26-1.3-6.7-10.1c-1.28-1.68-2.65-2.51-4.11-2.54-1.99-.04-6.51 3.05-8.47 4.17l-4.66 2.65-32.26 7.06C11.48 66.24-2.24 81.23.32 81.76h56.99.04 12 53.54v-12.4l-9.82-4.63c-3.16-1.49-6.43.98-8.15 1.81V48.11h16.21c1.62-.19 1.99-2.16 1.25-3.02l-.99-1.15-8.99-10.56h5.99c1.42-.27 2.05-2.23.81-3.45l-10.31-12.08h2.72c1.9 0 2.83-1.64 1.74-3.21L103.29 2.9c-.58-.67-1.16-1.58-2.13-1.61-1.12-.03-1.82 1.1-2.46 1.87L89.23 14.4c-1.22 1.64-.75 3.4 1.15 3.34h3.03l-10.38 12.2c-1.14 1.42-.44 3.44 1.43 3.17h5.16l.28.28-9.64 11.31c-1.08 1.66-.57 3.65 1.96 3.42h15.09v12.04h0zM33.67 4.75a6.2 6.2 0 0 1 4.72.3c1.42.69 2.58 1.94 3.13 3.55s.4 3.3-.3 4.72c-.69 1.42-1.94 2.58-3.55 3.13s-3.3.4-4.72-.3c-1.42-.69-2.58-1.94-3.13-3.55s-.4-3.3.3-4.72a6.19 6.19 0 0 1 3.55-3.13h0 0zm15.97 17.29c-.24-.88.29-1.79 1.17-2.02.88-.24 1.79.29 2.02 1.17l.53 1.96.07-.03.02-.01c.63-.21 1.36-.08 2 .3.46.27.87.66 1.16 1.15a3.25 3.25 0 0 1 .48 1.71c-.01.92-.41 1.94-1.43 2.96a.29.29 0 0 1-.15.09l-.45.18 4.72 17.6c-.3-.04-.61-.08-.91-.08-.73-.02-1.55.17-2.4.47l-4.5-16.77-1.16.46h0l-.43.16c-2.51.89-4.34 1.54-7.53.75-.02-.01-.04-.01-.07-.02-2.23-.86-3.39-2.07-4.51-3.25l-.16-.17-1.43 9.08c1.28.8 2.55 1.4 3.75 1.96 3.65 1.7 6.65 3.11 7.3 8.84.12 1.03.06 2 .01 3.05v.02c-.01.15-.02.31-.03.69l-1.39.79c-1.58.1-3.36.44-5.24.94l.11-2.26.03-.52c.03-.6.06-1.15.03-1.67-.03-.49-.12-.95-.33-1.4l-.06-.12c-.23-.49-.44-.96-.75-1.1-.63-.29-1.61-.65-2.74-1.02-1.29-.43-2.73-.86-4-1.21-.93 3.09-2.2 5.13-3.55 8.68l-1.43 3.57-1.31.58c-2.08.93-3.52 1.65-5.73 1.18-.23-.05-.47-.09-.71-.14.89-2.31 1.83-4.92 2.75-7.55 1.38-3.94 2.7-6.28 3.67-9.5-.58-.71-1.13-1.5-1.51-2.38-.42-.96-.62-2.01-.41-3.13l2.03-10.99-.11-.01c-.71-.03-1.29-.06-1.96.24-.93.41-1.65 1.23-2.47 2.15-.33.37-.67.76-1.06 1.15l-.03.02-.88.9-3.59 3.63c-.16.16-.4.16-.56 0l-3.91-4.11c-.15-.16-.15-.41.01-.56l3.58-3.62.83-.85.04-.04c1.61-1.76 2.93-3.18 4.61-4.13 1.71-.96 3.75-1.45 6.81-1.31h.01c1.09.01 2.38.13 3.44.23l1.31.11c5.15.34 7.57 3.05 9.44 5.16.83.93 1.54 1.74 2.32 2.11.36.17.94-.07 1.59-.34.39-.17.81-.34 1.25-.46l.56-.21a7.93 7.93 0 0 0 .33-.13l1.53-.61-.62-2.32h0 0zM65.22 2.28c-.19-.32-.08-.74.25-.93.32-.19.74-.08.93.25l.87 1.51c.19.32.08.74-.25.93s-.74.08-.93-.25l-.87-1.51h0 0zm4.89-1.6c0-.38.3-.68.68-.68a.68.68 0 0 1 .68.68v1.75c0 .38-.3.68-.68.68a.68.68 0 0 1-.68-.68V.68h0 0zm5.04 1.06c.19-.32.6-.44.93-.25.32.19.44.6.25.93l-.87 1.51c-.19.33-.6.44-.93.25s-.44-.6-.25-.93l.87-1.51h0 0zm3.83 3.44c.33-.19.74-.08.93.25.19.32.08.74-.25.93l-1.51.87c-.32.19-.74.08-.93-.25-.19-.32-.08-.74.25-.93l1.51-.87h0 0zm1.6 4.89c.38 0 .68.3.68.68a.68.68 0 0 1-.68.68h-1.75c-.38 0-.68-.3-.68-.68s.3-.68.68-.68h1.75 0 0zm-1.06 5.04c.32.19.44.6.25.93-.19.32-.6.44-.93.25l-1.51-.87c-.32-.19-.44-.6-.25-.93s.6-.44.93-.25l1.51.87h0 0zm-3.43 3.83c.19.32.08.74-.25.93-.32.19-.74.08-.93-.25l-.87-1.51c-.19-.32-.08-.74.25-.93.32-.19.74-.08.93.25l.87 1.51h0 0zm-4.89 1.6a.68.68 0 1 1-1.36 0v-1.75c0-.38.3-.68.68-.68s.68.3.68.68v1.75h0 0zm-5.04-1.06c-.19.32-.6.44-.93.25-.32-.19-.44-.6-.25-.93l.87-1.51c.19-.32.6-.44.93-.25s.44.6.25.93l-.87 1.51h0 0zm-3.83-3.44c-.32.19-.74.08-.93-.25-.19-.32-.08-.74.25-.93l1.51-.87c.32-.19.74-.08.93.25.19.32.08.74-.25.93l-1.51.87h0 0zm-1.6-4.89a.68.68 0 1 1 0-1.36h1.75c.38 0 .68.3.68.68s-.3.68-.68.68h-1.75 0 0zm1.06-5.04c-.32-.19-.44-.6-.25-.93.19-.32.6-.44.93-.25l1.51.87c.33.19.44.6.25.93-.19.32-.6.44-.93.25l-1.51-.87h0 0z"/></svg>