<svg xmlns="http://www.w3.org/2000/svg" xmlns:xlink="http://www.w3.org/1999/xlink" viewBox="0 0 512 512" xmlns:v="https://vecta.io/nano"><path d="M111.242 91.577c-.937.933-2.085 1.66-3.368 2.113-22.061 7.791-46.943 2.286-63.394-14.031s-21.996-40.998-14.143-62.88c.457-1.273 1.192-2.41 2.13-3.339s2.085-1.659 3.367-2.113c22.064-7.793 46.949-2.286 63.393 14.03 16.451 16.315 22.002 40.998 14.145 62.882-.456 1.272-1.189 2.408-2.13 3.338z" fill="#9bcc5c"/><path d="M155.587 91.577a9.02 9.02 0 0 0 3.368 2.113c22.061 7.791 46.946 2.286 63.394-14.031s21.997-40.998 14.14-62.88c-.452-1.273-1.189-2.41-2.128-3.339a9.09 9.09 0 0 0-3.365-2.113c-22.064-7.793-46.95-2.286-63.395 14.03s-22.002 40.998-14.145 62.882a8.94 8.94 0 0 0 2.131 3.338z" fill="#c6dd76"/><path d="M65.721 79.66C49.273 63.346 43.724 38.661 51.578 16.779c.457-1.273 1.192-2.41 2.13-3.339a9.11 9.11 0 0 1 3.367-2.113c3.221-1.138 6.504-1.983 9.811-2.562-10.22-1.781-20.931-1.011-31.051 2.562-1.282.453-2.428 1.18-3.367 2.113a9 9 0 0 0-2.13 3.339c-7.853 21.882-2.305 46.567 14.144 62.881C58.532 93.595 78.73 99.635 98.07 96.252c-12.065-2.103-23.444-7.76-32.349-16.592zm114.472 14.031c-1.285-.453-2.428-1.181-3.368-2.113a8.96 8.96 0 0 1-2.131-3.338c-7.858-21.883-2.303-46.566 14.145-62.882 8.903-8.834 20.28-14.491 32.344-16.592-19.341-3.383-39.54 2.658-53.583 16.592-16.448 16.315-22.002 40.998-14.145 62.882a8.94 8.94 0 0 0 2.131 3.338 9.02 9.02 0 0 0 3.368 2.113c10.118 3.573 20.828 4.342 31.047 2.561-3.305-.579-6.587-1.424-9.808-2.561z" opacity=".1"/><path d="M417.298 192.262c0 3.593-2.965 6.269-6.591 6.269l-36.907-21.08c-3.626 0-6.591-2.94-6.591-6.534v-70.569c0-3.593 2.965-6.535 6.591-6.535h36.907c3.626 0 6.591 2.94 6.591 6.535v91.914h0z" fill="#474949"/><path d="M416.909 484.587h-312.4V194.468L264.354 92.997l152.555 101.471z" fill="#87afa3"/><path d="M126.452 452.164V179.9l-21.943 14.568v290.119h312.4v-32.423z" opacity=".1"/><path d="M328.098 338.547h47.449v78.409h-47.449zm-184.341 0h47.449v78.409h-47.449z" fill="#ffd267"/><path d="M328.098 251.162h47.449v49.131h-47.449zm-90.729 0h47.449v49.131h-47.449zm-93.612 0h47.449v49.131h-47.449z" fill="#fff"/><path d="M465.391 258.476c-3.885 0-7.655-1.126-10.904-3.259L264.138 130.28 67.469 255.372a19.84 19.84 0 0 1-10.664 3.104c-6.773 0-12.999-3.372-16.654-9.018-5.887-9.098-3.21-21.248 5.965-27.084L253.634 90.383a19.87 19.87 0 0 1 10.677-3.104c3.894 0 7.669 1.127 10.915 3.258L476.32 222.528c9.09 5.966 11.59 18.153 5.572 27.165-3.676 5.501-9.843 8.783-16.501 8.783z" fill="#ea5653"/><path d="M481.891 228.244c-3.675 5.501-9.842 8.782-16.5 8.782-3.885 0-7.655-1.126-10.904-3.259L264.138 108.83 67.469 233.923a19.84 19.84 0 0 1-10.664 3.104c-6.711 0-12.882-3.313-16.549-8.867-4.117 6.267-4.436 14.605-.104 21.298 3.655 5.647 9.881 9.018 16.654 9.018 3.784 0 7.471-1.072 10.664-3.104L264.14 130.28l190.349 124.937a19.81 19.81 0 0 0 10.904 3.259c6.658 0 12.826-3.282 16.5-8.782 4.484-6.716 4.233-15.19.056-21.543-.022.03-.038.063-.058.093z" opacity=".1"/><path d="M217.339 339.498h85.128v143.757h-85.128z" fill="#ea5653"/><path d="M71.126 474.164h379.946v30.003H71.126z" fill="#5d897d"/><path d="M71.126 474.164h43.812v30.003H71.126z" opacity=".1"/><use xlink:href="#A"/><use xlink:href="#A" x="-184.335"/><use xlink:href="#B"/><path d="M284.824 243.322h-47.453a7.84 7.84 0 0 0-7.837 7.837v49.136a7.84 7.84 0 0 0 7.837 7.837h47.453a7.84 7.84 0 0 0 7.837-7.837v-49.136a7.84 7.84 0 0 0-7.837-7.837zm-7.836 49.137h-31.78v-33.463h31.78v33.463z"/><use xlink:href="#B" x="-184.335"/><path d="M280.568 388.12a7.84 7.84 0 0 0-7.837 7.837v20.387a7.84 7.84 0 0 0 7.837 7.837 7.84 7.84 0 0 0 7.837-7.837v-20.387a7.84 7.84 0 0 0-7.837-7.837zm211.888-154.68a27.24 27.24 0 0 0-11.838-17.463l-55.484-36.418v-79.21c0-7.925-6.472-14.372-14.428-14.372h-36.907c-7.956 0-14.428 6.447-14.428 14.372v36.046l-79.848-52.41a27.66 27.66 0 0 0-15.215-4.543c-5.283 0-10.428 1.496-14.882 4.328l-72.87 46.349a7.84 7.84 0 0 0-2.406 10.819 7.84 7.84 0 0 0 10.818 2.406l72.869-46.347c1.935-1.23 4.173-1.881 6.472-1.881a12.02 12.02 0 0 1 6.615 1.973l201.094 131.992c2.647 1.738 4.45 4.395 5.078 7.484a11.55 11.55 0 0 1-1.723 8.777c-2.216 3.318-5.948 5.299-9.983 5.299-2.353 0-4.635-.682-6.603-1.974l-190.349-124.94c-2.577-1.692-5.905-1.715-8.507-.061L63.261 248.76a12.01 12.01 0 0 1-6.457 1.879c-4.104 0-7.87-2.033-10.075-5.439a11.55 11.55 0 0 1-1.597-8.801c.673-3.08 2.515-5.712 5.188-7.412l106.434-67.698a7.84 7.84 0 0 0 2.406-10.819c-2.323-3.653-7.168-4.731-10.818-2.406l-7.094 4.512v-35.738l15.688-15.563c7.311 2.508 14.886 3.736 22.409 3.736 17.925 0 35.544-6.916 48.519-19.787 18.6-18.451 24.88-46.357 16.007-71.068-.834-2.347-2.216-4.52-3.993-6.279-1.761-1.746-3.928-3.109-6.275-3.938-24.882-8.788-52.959-2.564-71.523 15.855-11.002 10.913-17.964 25.486-19.604 41.034a7.84 7.84 0 0 0 6.972 8.615c4.305.456 8.162-2.667 8.615-6.972 1.262-11.968 6.609-23.174 15.056-31.552 14.324-14.212 36.018-19 55.259-12.205.176.062.33.159.466.294.119.118.208.255.268.42 6.833 19.029 2.01 40.488-12.284 54.668C204.526 86.3 186.79 91.55 169.833 88.484l32.492-32.232a7.84 7.84 0 0 0 .045-11.082 7.84 7.84 0 0 0-11.082-.045l-50.037 49.637v-6.989a7.84 7.84 0 0 0-7.837-7.837 7.84 7.84 0 0 0-7.837 7.837v6.988L120.98 90.2c8.523-24.567 2.197-52.127-16.234-70.404C92.069 7.215 74.393 0 56.251 0a68.98 68.98 0 0 0-23.03 3.938c-2.35.831-4.521 2.194-6.275 3.938-1.77 1.756-3.148 3.92-3.985 6.255-8.878 24.739-2.599 52.645 16.001 71.093 12.682 12.578 30.36 19.791 48.499 19.791 7.671 0 15.211-1.264 22.429-3.741l15.688 15.563v45.706L41.91 215.76c-6.226 3.959-10.518 10.101-12.089 17.293a27.12 27.12 0 0 0 3.75 20.661c5.105 7.888 13.791 12.597 23.233 12.597 5.278 0 10.421-1.497 14.87-4.328l25.387-16.148v220.487H71.123a7.84 7.84 0 0 0-7.837 7.837v30.004A7.84 7.84 0 0 0 71.123 512h379.951a7.84 7.84 0 0 0 7.837-7.837V474.16a7.84 7.84 0 0 0-7.837-7.837h-25.939V245.325l25.051 16.443c4.529 2.974 9.786 4.545 15.204 4.545 9.282 0 17.887-4.586 23.017-12.268 4.074-6.099 5.511-13.417 4.049-20.605zm-82.995-64.169l-34.416-22.589V101.65h34.416v67.621zM108.175 77.495L73.833 43.429a7.84 7.84 0 0 0-11.083.044 7.84 7.84 0 0 0 .044 11.083l34.201 33.928c-3.133.565-6.317.858-9.535.858-14.038 0-27.692-5.557-37.462-15.246-14.294-14.178-19.117-35.637-12.285-54.672a1.14 1.14 0 0 1 .279-.427 1.23 1.23 0 0 1 .45-.28c5.718-2.019 11.709-3.043 17.808-3.043 14.039 0 27.691 5.557 37.458 15.247 12.299 12.197 17.579 29.779 14.467 46.574zm335.062 404.503v14.329H78.96v-14.33h278.391a7.84 7.84 0 0 0 7.837-7.837 7.84 7.84 0 0 0-7.837-7.837h-47.055V339.501a7.84 7.84 0 0 0-7.837-7.837h-85.125a7.84 7.84 0 0 0-7.837 7.837v126.823h-96.763V235.868l151.338-96.258 145.389 95.428v231.287H393.92a7.84 7.84 0 0 0-7.837 7.837 7.84 7.84 0 0 0 7.837 7.837h49.316v-.001zM225.17 466.324V347.338h69.451v118.987H225.17z"/><defs><path id="A" d="M375.546 330.71h-47.453a7.84 7.84 0 0 0-7.837 7.837v78.411a7.84 7.84 0 0 0 7.837 7.837h47.453a7.84 7.84 0 0 0 7.837-7.837v-78.411a7.84 7.84 0 0 0-7.837-7.837zm-7.837 78.412h-31.78v-62.739h31.78v62.739z"/><path id="B" d="M375.546 243.322h-47.453a7.84 7.84 0 0 0-7.837 7.837v49.136a7.84 7.84 0 0 0 7.837 7.837h47.453a7.84 7.84 0 0 0 7.837-7.837v-49.136a7.84 7.84 0 0 0-7.837-7.837zm-7.837 49.137h-31.78v-33.463h31.78v33.463z"/></defs></svg>