<svg xmlns="http://www.w3.org/2000/svg" xmlns:xlink="http://www.w3.org/1999/xlink" viewBox="0 0 1000 1000" xmlns:v="https://vecta.io/nano"><style><![CDATA[.B{fill:#a44995}.C{fill:#952584}.D{fill:#0091c5}.E{fill:#36a9e1}.F{fill:#413e91}.G{fill:#dadada}]]></style><circle fill="#13333d" cx="500" cy="500" r="398"/><circle fill="#0f3d4e" cx="500" cy="500" r="344.3"/><path fill="#13333d" d="M764.7 486.5c0-58.4-36.2-108.3-87.4-128.5v-29.5c0-5.5-4.5-10-10-10H515.5l-.1.1H285.3c-5.5 0-10 4.5-10 10V397c0 5.5 4.5 10 10 10h18.9v20.7h197.2v.1H285.3c-5.5 0-10 4.5-10 10v68.5c0 5.5 4.5 10 10 10h18.9V537h189.5v.1H285.2c-5.5 0-10 4.5-10 10v68.5c0 .3 0 .7.1 1 .1.7.2 1.3.4 2 .2.6.4 1.2.8 1.8.6 1.1 1.4 2.1 2.4 2.9.2.2.5.4.8.6.5.4 1.1.7 1.7.9 1.2.5 2.5.8 3.9.8h18.9v20.7h-19.9c-4.1 0-7.6 2.8-8.7 6.6v.2c-.1.3-.1.6-.2.9v.3c0 .4-.1.7-.1 1.1 0 1.2.3 2.4.7 3.5 1.4 3.2 4.6 5.5 8.3 5.5h19.9v32.3c0 2.8 2.2 5 5 5h58.4c2.8 0 5-2.2 5-5v-32.3h208.3v32.3c0 2.8 2.2 5 5 5h58.4c2.8 0 5-2.2 5-5v-32.3h19c1.2 0 2.4-.3 3.5-.7.5-.2 1.1-.5 1.5-.8 2.4-1.6 4-4.4 4-7.5 0-.4 0-.7-.1-1.1v-.3c0-.3-.1-.6-.2-.9v-.2c-.2-.7-.5-1.4-.9-2.1-1.6-2.7-4.5-4.5-7.8-4.5h-19V635c65.5-10.9 115.4-67.7 115.4-136.3 0-2-.1-4-.1-6.1 0-2.1.1-4.1.1-6.1z"/><path d="M304.2 387h345.1v20.7H304.2z" class="B"/><path d="M649.3 407.7H476.8l20-20.7h152.5z" class="C"/><path d="M667.3 387h-382c-5.5 0-10-4.5-10-10v-68.5c0-5.5 4.5-10 10-10h382c5.5 0 10 4.5 10 10V377c0 5.5-4.5 10-10 10z" class="E"/><path d="M427 386.9h240.3c5.5 0 10-4.5 10-10v-68.5c0-5.5-4.5-10-10-10H515.5L427 386.9z" class="D"/><use xlink:href="#B" class="F"/><use xlink:href="#C" class="B"/><path d="M317.6 346.3c-3.7 0-6.8-3-6.8-6.8V350c0 3.7 3 6.8 6.8 6.8s6.8-3 6.8-6.8v-10.5c-.1 3.8-3.1 6.8-6.8 6.8z" class="C"/><path d="M358.6 356.8c-3.7 0-6.8-3-6.8-6.8v-30c0-3.7 3-6.8 6.8-6.8 3.7 0 6.8 3 6.8 6.8v30c-.1 3.8-3.1 6.8-6.8 6.8zM399.6 356.8c-3.7 0-6.8-3-6.8-6.8v-30c0-3.7 3-6.8 6.8-6.8 3.7 0 6.8 3 6.8 6.8v30c-.1 3.8-3.1 6.8-6.8 6.8z" class="B"/><path d="M358.6 346.3c-3.7 0-6.8-3-6.8-6.8V350c0 3.7 3 6.8 6.8 6.8s6.8-3 6.8-6.8v-10.5c-.1 3.8-3.1 6.8-6.8 6.8zM399.6 346.3c-3.7 0-6.8-3-6.8-6.8V350c0 3.7 3 6.8 6.8 6.8s6.8-3 6.8-6.8v-10.5c-.1 3.8-3.1 6.8-6.8 6.8z" class="C"/><path d="M304.2 496.3h345.1V517H304.2z" class="B"/><path d="M649.3 516.9H476.8l20-20.6h152.5z" class="C"/><path d="M667.3 496.3h-382c-5.5 0-10-4.5-10-10v-68.5c0-5.5 4.5-10 10-10h382c5.5 0 10 4.5 10 10v68.5c0 5.5-4.5 10-10 10z" class="E"/><path d="M427 496.2h240.3c5.5 0 10-4.5 10-10v-68.5c0-5.5-4.5-10-10-10H515.5L427 496.2z" class="D"/><use xlink:href="#B" y="109.3" class="F"/><use xlink:href="#C" y="109.3" class="B"/><path d="M317.6 455.6c-3.7 0-6.8-3-6.8-6.8v10.5c0 3.7 3 6.8 6.8 6.8s6.8-3 6.8-6.8v-10.5c-.1 3.8-3.1 6.8-6.8 6.8z" class="C"/><path d="M358.6 466.1c-3.7 0-6.8-3-6.8-6.8v-30c0-3.7 3-6.8 6.8-6.8 3.7 0 6.8 3 6.8 6.8v30c-.1 3.8-3.1 6.8-6.8 6.8zM399.6 466.1c-3.7 0-6.8-3-6.8-6.8v-30c0-3.7 3-6.8 6.8-6.8 3.7 0 6.8 3 6.8 6.8v30c-.1 3.8-3.1 6.8-6.8 6.8z" class="B"/><path d="M358.6 455.6c-3.7 0-6.8-3-6.8-6.8v10.5c0 3.7 3 6.8 6.8 6.8s6.8-3 6.8-6.8v-10.5c-.1 3.8-3.1 6.8-6.8 6.8zM399.6 455.6c-3.7 0-6.8-3-6.8-6.8v10.5c0 3.7 3 6.8 6.8 6.8s6.8-3 6.8-6.8v-10.5c-.1 3.8-3.1 6.8-6.8 6.8z" class="C"/><path d="M304.2 605.5h345.1v20.7H304.2z" class="B"/><path d="M649.3 626.2H476.8l20-20.7h152.5z" class="C"/><path d="M667.3 605.5h-382c-5.5 0-10-4.5-10-10V527c0-5.5 4.5-10 10-10h382c5.5 0 10 4.5 10 10v68.5c0 5.5-4.5 10-10 10z" class="E"/><path d="M427 605.4h240.3c5.5 0 10-4.5 10-10v-68.5c0-5.5-4.5-10-10-10H515.5L427 605.4z" class="D"/><use xlink:href="#B" y="218.5" class="F"/><use xlink:href="#C" y="218.5" class="B"/><path d="M317.6 564.8c-3.7 0-6.8-3-6.8-6.8v10.5c0 3.7 3 6.8 6.8 6.8s6.8-3 6.8-6.8V558c-.1 3.8-3.1 6.8-6.8 6.8z" class="C"/><path d="M358.6 575.3c-3.7 0-6.8-3-6.8-6.8v-30c0-3.7 3-6.8 6.8-6.8 3.7 0 6.8 3 6.8 6.8v30c-.1 3.8-3.1 6.8-6.8 6.8zM399.6 575.3c-3.7 0-6.8-3-6.8-6.8v-30c0-3.7 3-6.8 6.8-6.8 3.7 0 6.8 3 6.8 6.8v30c-.1 3.8-3.1 6.8-6.8 6.8z" class="B"/><path d="M358.6 564.8c-3.7 0-6.8-3-6.8-6.8v10.5c0 3.7 3 6.8 6.8 6.8s6.8-3 6.8-6.8V558c-.1 3.8-3.1 6.8-6.8 6.8zM399.6 564.8c-3.7 0-6.8-3-6.8-6.8v10.5c0 3.7 3 6.8 6.8 6.8s6.8-3 6.8-6.8V558c-.1 3.8-3.1 6.8-6.8 6.8z" class="C"/><path fill="#87b1df" d="M668.3 644.2h-384c-5 0-9-4-9-9s4-9 9-9h383.9c5 0 9 4 9 9 .1 5-3.9 9-8.9 9z"/><path d="M668.3 635.2h-384c-3.3 0-6.3-1.8-7.8-4.5-.8 1.3-1.2 2.9-1.2 4.5 0 5 4 9 9 9h383.9c5 0 9-4 9-9 0-1.6-.4-3.2-1.2-4.5a8.79 8.79 0 0 1-7.7 4.5z" class="D"/><path d="M367.6 681.6h-58.4c-2.8 0-5-2.2-5-5v-32.3h68.4v32.3c0 2.7-2.2 5-5 5zM644.3 681.6h-58.4c-2.8 0-5-2.2-5-5v-32.3h68.4v32.3c0 2.7-2.2 5-5 5z" class="B"/><path d="M304.2 644.2h68.4v15.3h-68.4zm276.7 0h68.4v15.3h-68.4z" class="C"/><path d="M534.5 591.5h132.8c5.5 0 10-4.5 10-10V527c0-5.5-4.5-10-10-10H491.4c6.1 29.4 21.5 55.3 43.1 74.5zm139.9 11c.6-.6 1.1-1.2 1.5-1.9-.4.7-.9 1.4-1.5 1.9zm1.9-2.7c.1-.2.2-.5.3-.8-.1.3-.2.6-.3.8zm-3.4 4zm.8-.6c.2-.2.5-.4.7-.6-.3.2-.5.4-.7.6z" class="D"/><path fill="#2c3088" d="M674.4 602.5c.6-.6 1.1-1.2 1.5-1.9.1-.3.3-.5.4-.8.1-.2.2-.5.3-.8.4-1.1.7-2.3.7-3.6v-14c0 5.5-4.5 10-10 10H534.5c5.8 5.2 12 9.9 18.5 14h114.3c1 0 2-.2 3-.4l.9-.3c.6-.3 1.2-.6 1.7-.9.3-.2.5-.4.8-.6l.7-.7c0 .1 0 0 0 0z"/><circle cx="626.5" cy="478.6" r="138.1" class="G"/><circle fill="#fff" cx="626.5" cy="466.5" r="138.1"/><circle cx="626.5" cy="466.5" r="117.6" class="G"/><circle cx="626.5" cy="466.5" r="107.4" class="B"/><path d="M626.5 371.1c57.3 0 104.1 44.9 107.3 101.4.1-2 .2-4 .2-6.1 0-59.3-48.1-107.4-107.4-107.4s-107.4 48.1-107.4 107.4c0 2 .1 4.1.2 6.1 3-56.5 49.8-101.4 107.1-101.4zm51.1 116.7c-.2-.2-.3-.4-.4-.6l-.3-.6c-.1-.2-.1-.5-.1-.7v-.4a49.37 49.37 0 0 0 .9-9.5 50.14 50.14 0 0 0-.9-9.5c0-.6.1-1.2.4-1.7.1-.2.3-.4.4-.6l13.2-13a3.04 3.04 0 0 0 .5-3.5l-7.9-13.7c-.2-.3-.4-.5-.6-.7-.1-.1-.2-.2-.4-.3-.3-.2-.6-.3-.9-.4-.5-.1-1-.1-1.4 0l-17.9 5c-.2.1-.5.1-.7.1-.6 0-1.2-.2-1.7-.5-4.8-4.1-10.4-7.4-16.4-9.5-.7-.4-1.3-1-1.5-1.8l-4.6-18c-.2-.6-.5-1.2-1-1.6s-1.1-.6-1.8-.6h-15.9c-.3 0-.7.1-1 .2-.9.3-1.6 1.1-1.9 2l-4.6 18c-.1.2-.1.5-.3.7-.2.4-.5.8-.9 1-.1.1-.2.1-.3.2a49.68 49.68 0 0 0-16.4 9.5c-.5.3-1.1.5-1.7.5-.2 0-.5 0-.7-.1l-17.9-5c-.5-.1-1-.1-1.4 0-.3.1-.6.2-.9.4-.1.1-.3.2-.4.3-.2.2-.5.5-.6.7l-7.9 13.7a.76.76 0 0 0-.2.4c-.1.3-.2.6-.2.9 0 .5.1.9.3 1.4.1.3.3.6.6.8l13.2 13c.6.6.9 1.4.8 2.2a49.37 49.37 0 0 0-.9 9.5 50.14 50.14 0 0 0 .9 9.5v.4c0 .2-.1.5-.1.7-.1.4-.4.9-.7 1.2l-13.2 13c-.2.2-.4.5-.6.8-.2.4-.3.9-.3 1.4s.1.9.4 1.4l7.9 13.7a2.41 2.41 0 0 0 1 1c.3.2.6.3.9.4.5.1 1 .1 1.4 0l17.9-5c.8-.2 1.7-.1 2.4.4 4.8 4.1 10.4 7.4 16.4 9.5.1.1.2.1.3.2.4.3.7.6.9 1 .1.2.2.4.3.7l4.6 18c.2.6.5 1.2 1 1.6.1.1.3.2.4.3.4.2.9.4 1.4.4h15.9c.2 0 .4 0 .6-.1.2 0 .5-.1.7-.2s.4-.2.5-.3c.5-.4.9-.9 1-1.6l4.6-18c.2-.8.8-1.5 1.5-1.8a49.68 49.68 0 0 0 16.4-9.5c.7-.5 1.6-.6 2.4-.4l17.9 5c.5.1 1 .1 1.4 0 .3-.1.6-.2.9-.4a2.41 2.41 0 0 0 1-1l7.9-13.7c.2-.3.3-.6.3-.9.2-.9-.1-1.9-.8-2.6l-13.1-13.3zm-78.1-13.1c.4-7.8 4.1-14.7 9.7-19.4 1.3-1 2.6-2 4-2.8.4-.2.7-.4 1.1-.6 3.3-1.7 7-2.7 10.8-2.9 1-.1 2 0 2.9 0 2.1.1 4.1.5 6.1 1 .7.2 1.4.4 2 .7.2.1.5.2.7.3 3.3 1.4 6.3 3.4 8.8 5.9.7.7 1.3 1.3 1.9 2.1.4.5.8 1 1.2 1.6s.8 1.2 1.2 1.9a26.74 26.74 0 0 1 3.7 15.1c-.7 13.8-11.9 25-25.7 25.7-16 .7-29.3-12.5-28.4-28.6z" class="C"/><path fill="#fff" d="M677.6 466.1c0-3.1-.3-6.2-.8-9.2-.2-.9.1-1.9.8-2.6l13.2-13c.9-.9 1.1-2.4.5-3.5l-7.9-13.7c-.7-1.2-2-1.7-3.3-1.4l-17.9 5c-.9.3-1.9 0-2.6-.6-4.6-3.9-10-7.1-15.9-9.2-.9-.3-1.6-1.1-1.8-2l-4.6-18c-.3-1.3-1.5-2.2-2.8-2.2h-15.9c-1.3 0-2.5.9-2.8 2.2l-4.6 18c-.2.9-.9 1.7-1.8 2-5.9 2.1-11.2 5.2-15.9 9.2-.7.6-1.7.8-2.6.6l-17.9-5c-1.3-.4-2.6.2-3.3 1.4l-7.9 13.7c-.7 1.2-.5 2.6.5 3.5l13.2 13c.7.7 1 1.6.8 2.6-.5 3-.8 6-.8 9.2 0 3.1.3 6.2.8 9.2.2.9-.1 1.9-.8 2.6l-13.2 13c-.9.9-1.1 2.4-.5 3.5l7.9 13.7c.7 1.2 2 1.7 3.3 1.4l17.9-5c.9-.3 1.9 0 2.6.6 4.6 3.9 10 7.1 15.9 9.2.9.3 1.6 1.1 1.8 2l4.6 18c.3 1.3 1.5 2.2 2.8 2.2h15.9c1.3 0 2.5-.9 2.8-2.2l4.6-18c.2-.9.9-1.7 1.8-2 5.9-2.1 11.2-5.2 15.9-9.2.7-.6 1.7-.8 2.6-.6l17.9 5c1.3.4 2.6-.2 3.3-1.4l7.9-13.7c.7-1.2.5-2.6-.5-3.5l-13.2-13c-.7-.7-1-1.6-.8-2.6.5-3 .8-6.1.8-9.2zM628 493.2c-16.1.8-29.3-12.4-28.5-28.5.7-13.8 11.9-25 25.7-25.7 16.1-.8 29.3 12.4 28.5 28.5-.8 13.8-12 25-25.7 25.7z"/><g class="G"><path d="M624.9 434.3c-16.1.8-29.3 14-30.1 30.1a31.41 31.41 0 0 0 9.3 24.1c6 6 14.1 9.3 22.5 9.3h1.6c16.1-.8 29.3-14 30.1-30.1a31.41 31.41 0 0 0-9.3-24.1c-6.3-6.3-15.1-9.7-24.1-9.3zm28.7 33.2c-.7 13.8-11.9 25-25.7 25.7-16.1.8-29.3-12.4-28.5-28.5.7-13.8 11.9-25 25.7-25.7 16.1-.8 29.3 12.4 28.5 28.5zm37.3 23.3l-13.2-13c-.7-.7-1-1.6-.8-2.6.5-3 .8-6 .8-9.2 0-3.1-.3-6.2-.8-9.2-.2-.9.1-1.9.8-2.6l13.2-13a3.04 3.04 0 0 0 .5-3.5l-7.9-13.7c-.7-1.2-2-1.7-3.3-1.4l-17.9 5c-.9.3-1.9 0-2.6-.6-4.6-3.9-10-7.1-15.9-9.2-.9-.3-1.6-1.1-1.8-2l-4.6-18c-.3-1.3-1.5-2.2-2.8-2.2h-15.9c-1.3 0-2.5.9-2.8 2.2l-4.6 18c-.2.9-.9 1.7-1.8 2-5.9 2.1-11.2 5.2-15.9 9.2-.7.6-1.7.8-2.6.6l-17.9-5c-1.3-.4-2.6.2-3.3 1.4l-7.9 13.7c-.7 1.2-.5 2.6.5 3.5l13.2 13c.7.7 1 1.6.8 2.6-.5 3-.8 6-.8 9.2 0 3.1.3 6.2.8 9.2.2.9-.1 1.9-.8 2.6l-13.2 13a3.04 3.04 0 0 0-.5 3.5l7.9 13.7c.7 1.2 2 1.7 3.3 1.4l17.9-5c.9-.3 1.9 0 2.6.6 4.6 3.9 10 7.1 15.9 9.2.9.3 1.6 1.1 1.8 2l4.6 18c.3 1.3 1.5 2.2 2.8 2.2h15.9c1.3 0 2.5-.9 2.8-2.2l4.6-18c.2-.9.9-1.7 1.8-2 5.9-2.1 11.2-5.2 15.9-9.2.7-.6 1.7-.8 2.6-.6l17.9 5c1.3.4 2.6-.2 3.3-1.4l7.9-13.7a3.04 3.04 0 0 0-.5-3.5zm-10.8 13.8l-16.6-4.6c-2.4-.7-5-.1-6.9 1.5-4.3 3.6-9.1 6.4-14.4 8.3-2.4.8-4.1 2.8-4.8 5.2l-4.3 16.6H620l-4.3-16.6c-.6-2.4-2.4-4.4-4.8-5.2-5.3-1.9-10.1-4.7-14.4-8.3-1.9-1.6-4.5-2.2-6.9-1.5l-16.6 4.6-6.6-11.4 12.3-12c1.8-1.8 2.6-4.3 2.2-6.7-.5-2.7-.8-5.5-.8-8.3s.3-5.6.8-8.3c.4-2.5-.4-5-2.2-6.7l-12.3-12 6.6-11.4 16.6 4.6c2.4.7 5 .1 6.9-1.5 4.3-3.6 9.1-6.4 14.4-8.3 2.4-.8 4.1-2.8 4.8-5.2l4.3-16.6h13.1l4.3 16.6c.6 2.4 2.4 4.4 4.8 5.2 5.3 1.9 10.1 4.7 14.4 8.3 1.9 1.6 4.5 2.2 6.9 1.5l16.6-4.6 6.6 11.4-12.3 12c-1.8 1.8-2.6 4.3-2.2 6.7.5 2.7.8 5.5.8 8.3s-.3 5.6-.8 8.3c-.4 2.5.4 5 2.2 6.7l12.3 12-6.6 11.4z"/><path d="M626.5 415c-28.2 0-51.1 22.9-51.1 51.1s22.9 51.1 51.1 51.1 51.1-22.9 51.1-51.1c.1-28.2-22.8-51.1-51.1-51.1zm0 88.7c-20.8 0-37.6-16.8-37.6-37.6s16.8-37.6 37.6-37.6 37.6 16.8 37.6 37.6c.1 20.8-16.8 37.6-37.6 37.6z"/></g><defs ><path id="B" d="M667.3 373h-382c-5.5 0-10-4.5-10-10v14c0 5.5 4.5 10 10 10h382c5.5 0 10-4.5 10-10v-14c0 5.5-4.5 10-10 10z"/><path id="C" d="M317.6 356.8c-3.7 0-6.8-3-6.8-6.8v-30c0-3.7 3-6.8 6.8-6.8 3.7 0 6.8 3 6.8 6.8v30c-.1 3.8-3.1 6.8-6.8 6.8z"/></defs></svg>