<svg xmlns="http://www.w3.org/2000/svg" width="2048" height="2048" shape-rendering="geometricPrecision" image-rendering="optimizeQuality" fill-rule="evenodd" xmlns:v="https://vecta.io/nano"><defs><clipPath id="A"><path d="M1024-.001c565.539 0 1024 458.462 1024 1024s-458.462 1024-1024 1024S0 1589.537 0 1023.999s458.462-1024 1024-1024z"/></clipPath></defs><path d="M1024-.001c565.539 0 1024 458.462 1024 1024s-458.462 1024-1024 1024S0 1589.537 0 1023.999s458.462-1024 1024-1024z" fill="#cfd8dc"/><g clip-path="url(#A)" fill="#b0bec5"><path d="M830.329 638.197L1966.21 1774.08v12.91l-.06 3.65-.18 3.63-.31 3.6-.42 3.57-.53 3.53-.65 3.49-.76 3.45-.87 3.42-.98 3.36-1.09 3.33-1.18 3.27-1.29 3.23-1.39 3.18-1.49 3.12-1.58 3.07-1.68 3.01-1.77 2.95-1.86 2.89-1.95 2.83-2.03 2.76-2.11 2.7-2.2 2.62-2.28 2.56-2.36 2.48-2.43 2.41-2.51 2.33-2.58 2.26-2.65 2.17-2.72 2.09-2.78 2-2.85 1.92-2.91 1.83L777.877 743.816l2.911-1.829 2.848-1.918 2.785-2.005 2.718-2.089 2.649-2.172 2.581-2.254 2.506-2.331 2.434-2.408 2.357-2.483 2.279-2.557 2.199-2.627 2.117-2.695 2.033-2.763 1.946-2.827 1.859-2.892 1.769-2.951 1.678-3.011 1.582-3.067 1.488-3.123 1.389-3.176 1.29-3.227 1.187-3.276 1.084-3.324.98-3.368.87-3.413.761-3.452.649-3.492.535-3.531.421-3.564.302-3.599.183-3.63.062-3.659z"/><path d="M797.979 729.213L1933.86 1865.1l15.58 41.19L813.559 770.412z"/><path d="M1963.88 1906.78zM828 770.9zm1135.91 1135.87zM828.03 770.89zm508.65-171.748L2472.56 1735.02l1.21 1.55 1.13 1.77 1.04 1.99.95 2.19.84 2.38.74 2.54.62 2.7.49 2.83.36 2.95.23 3.07.07 3.15L1344.36 626.256l-.07-3.152-.23-3.061-.36-2.956-.49-2.833-.62-2.695-.74-2.543-.84-2.374-.95-2.19-1.04-1.99-1.13-1.775z"/><path d="M1344.36 626.256L2480.24 1762.14l-.07 3.15-.23 3.06-.36 2.96-.49 2.83-.62 2.7-.74 2.54-.84 2.37-.95 2.19-1.04 1.99-1.13 1.78-1.21 1.54-1.29 1.3-1.35 1.04-1.4.76-1.46.47-1.5.16L1329.68 657.093l1.5-.16 1.46-.466 1.4-.761 1.35-1.037 1.29-1.298 1.21-1.545 1.13-1.775 1.04-1.99.95-2.19.84-2.374.74-2.543.62-2.695.49-2.834.36-2.955.23-3.061z"/><path d="M1329.68 657.093L2465.56 1792.98h-32.01L1297.67 657.093z"/><path d="M1297.67 657.093L2433.55 1792.98v10.1L1297.67 667.197zm200.96 19.687l1135.88 1135.88 1.48 1.98 1.29 2.12 1.09 2.25.86 2.37.64 2.46.39 2.56.13 2.63-.13 2.63-.39 2.55-.64 2.47-.86 2.36-1.09 2.25-1.29 2.12-1.48 1.98-1.66 1.83-1.83 1.66-1.98 1.48-2.12 1.29-2.25 1.09-2.36.86-2.47.64-2.55.39-2.63.13h-.31l-.1-.01h-.4L1477.97 718.863l.1.003.1.003.1.002.1.002.1.001.1.001.11.001h.1l2.63-.132 2.55-.391 2.47-.633 2.36-.866 2.25-1.083 2.12-1.289 1.98-1.481 1.83-1.661 1.66-1.828 1.48-1.98 1.29-2.122 1.09-2.248.86-2.365.63-2.465.39-2.556.14-2.63-.14-2.631-.39-2.554-.63-2.465-.86-2.365-1.09-2.249-1.29-2.121z"/><path d="M1477.97 718.863L2613.85 1854.75l-11.76 18.09L1466.21 736.959z"/><path d="M1506.23 775.762L2642.11 1911.64l4.95 5.85 4.8 5.97 4.66 6.08 4.52 6.19 4.38 6.31 4.22 6.42 4.07 6.52 3.92 6.63 3.76 6.73 3.6 6.82 3.44 6.93 3.28 7.01 3.11 7.11 2.94 7.2 2.77 7.28 2.59 7.37 2.42 7.45 2.24 7.53 2.06 7.61 1.88 7.67 1.68 7.76 1.5 7.81 1.31 7.89 1.11 7.95.91 8.01.72 8.07.52 8.12.31 8.18.1 8.23L1584 984.463l-.1-8.232-.31-8.179-.52-8.126-.72-8.069-.91-8.011-1.11-7.949-1.31-7.885-1.5-7.819-1.69-7.751-1.87-7.678-2.06-7.605-2.24-7.528-2.42-7.451-2.59-7.368-2.77-7.283-2.94-7.199-3.11-7.108-3.28-7.018-3.44-6.924-3.6-6.827-3.76-6.728-3.92-6.628-4.07-6.522-4.23-6.417-4.37-6.307-4.52-6.196-4.66-6.081-4.8-5.966zM811.403 510.676L1947.28 1646.56l1.72 1.86 1.66 1.91 1.6 1.98 1.54 2.04 1.49 2.1 1.43 2.16 1.36 2.22 1.31 2.29 1.24 2.35 1.18 2.42 1.12 2.48 1.05 2.55.98 2.62.92 2.68.85 2.75.78 2.82.71 2.9.64 2.96.57 3.03.5 3.11.42 3.18.34 3.25.28 3.32.19 3.4.12 3.48.04 3.55L835.438 580.089l-.039-3.552-.118-3.476-.196-3.401-.272-3.326-.347-3.251-.422-3.179-.496-3.105-.568-3.034-.64-2.962-.711-2.892-.781-2.821-.849-2.753-.918-2.684-.985-2.616-1.05-2.55-1.116-2.483-1.18-2.416-1.242-2.353-1.305-2.288-1.367-2.224-1.428-2.16-1.486-2.1-1.545-2.037-1.601-1.976-1.66-1.917z"/><path d="M835.438 580.089L1971.32 1715.97l-.01 1.98-.02 1.87-.03 1.78-.06 1.7-.07 1.64-.09 1.59-.11 1.57-.14 1.55-.15 1.55-.19 1.56-.21 1.6-.23 1.65-.27 1.71-.3 1.79-.32 1.88-.36 2L832.875 607.503l.36-1.994.329-1.884.295-1.789.266-1.71.237-1.647.209-1.598.183-1.567.157-1.55.135-1.548.112-1.564.091-1.594.072-1.64.053-1.701.037-1.778.02-1.87zm-169.36 163.726L1801.96 1879.7l-2.91-1.83-2.85-1.92-2.78-2.01-2.72-2.09-2.65-2.17-2.58-2.25-2.51-2.33L647.08 729.217l2.508 2.331 2.579 2.253 2.65 2.172 2.717 2.089 2.785 2.005 2.848 1.919z"/><path d="M870.796 937.477L2006.68 2073.36l3 223.88L873.794 1161.36z"/><path d="M946.482 998.45L2082.36 2134.33l-2.2-.48-2.26-.53-2.3-.57-2.33-.62-2.35-.66-2.37-.7-2.39-.74-2.38-.78-2.38-.81-2.37-.85-2.34-.87-2.32-.91-2.28-.93-2.23-.95-2.18-.98-2.13-1-2.05-1.02-1.98-1.04-1.9-1.05-1.81-1.07-1.71-1.07-1.6-1.09-1.49-1.09-1.36-1.1-1.24-1.1L894.527 976.433l1.238 1.104 1.367 1.099 1.488 1.094 1.603 1.085 1.708 1.077 1.807 1.066 1.898 1.051 1.98 1.037 2.056 1.018 2.123 1.001 2.183.979 2.235.955 2.279.931 2.316.905 2.345.874 2.365.844 2.379.813 2.385.777 2.383.74 2.372.702 2.355.661 2.33.619 2.296.576 2.256.529zm-69.314 162.91L2013.05 2297.24v29.52L877.168 1190.88z"/><path d="M877.168 1190.88L2013.05 2326.76h-3.23L873.938 1190.88zM565.36 981.244L1701.24 2117.13l-14.3 215.85L551.063 1197.1z"/><path d="M565.819 1190.88L1701.7 2326.76h-1.38L564.435 1190.88zm-14.756 6.22L1686.94 2332.98l-2.7-.41L548.359 1196.69zm138.432 370.74L1825.38 2703.72H1701.7L565.819 1567.84z"/><path d="M548.359 1196.69L1684.24 2332.57l-.43 3.29L547.924 1199.98z"/><path d="M547.924 1199.98L1683.81 2335.86l-.21.93-.34.83-.46.73-.56.61-.65.46-.72.31-.76.14-.79-.04L543.435 1203.94l.793.05.763-.14.715-.31.649-.47.563-.6.462-.73.341-.83z"/><path d="M543.435 1203.94L1679.32 2339.83l-2.4-.44L541.037 1203.51z"/><path d="M541.037 1203.51L1676.92 2339.39l-3.31 19.07L537.727 1222.57zm-59.191-16.88L1617.73 2322.51l-.94-.14L480.905 1186.49zm63.256 79.21L1680.98 2401.72l.42 2.93.3 2.59.21 2.28.13 2.01.06 1.77.02 1.56-.02 1.4-.04 1.26-.04 1.17-.04 1.09-.01 1.07.03 1.06.09 1.11.16 1.17.24 1.29.34 1.42L546.951 1291.02l-.342-1.43-.242-1.28-.158-1.18-.087-1.1-.031-1.07.009-1.06.034-1.1.045-1.16.04-1.26.02-1.4-.015-1.56-.065-1.77-.129-2.01-.21-2.28-.304-2.59zm-13.845 16.77L1667.14 2418.49l-.47-.09L530.787 1282.52zm-33.737-9.81L1633.4 2408.69l-.08.14-.1.38-.11.62-.14.88-.16 1.16L496.927 1275.98l.16-1.15.139-.88.118-.63.097-.37zm-17.008-.66L1616.39 2408.02l-2.11 13.44L478.399 1285.58z"/><path d="M478.399 1285.58L1614.28 2421.46l-.48 2.04-.73 1.68-.92 1.34-1.08 1-1.21.68-1.28.38-1.33.1-1.33-.19-1.3-.44-1.21-.68-1.1-.92L466.432 1290.56l1.097.92 1.214.69 1.292.44 1.33.18 1.329-.09 1.286-.38 1.205-.68 1.084-1.01.924-1.33.723-1.68z"/><path d="M496.927 1275.98L1632.81 2411.87l-.28 2.03-.24 1.76-.23 1.52-.2 1.33-.19 1.16-.18 1.05-.16.96-.17.93-.16.92-.17.97-.18 1.04-.19 1.17-.2 1.32-.23 1.52-.24 1.76-.28 2.04-.4 1.88-.65 1.59-.85 1.3-1.02 1.01-1.15.74-1.24.45-1.29.18-1.31-.08-1.28-.34-1.23-.6-1.12-.86L482.092 1302.74l1.121.85 1.221.6 1.284.35 1.308.08 1.292-.18 1.24-.46 1.149-.73 1.021-1.01.852-1.3.648-1.59.403-1.88.276-2.04.247-1.76.223-1.52.204-1.33.188-1.16.177-1.05.169-.96.164-.93.165-.92.169-.97.176-1.04.189-1.16.203-1.33.225-1.52.247-1.76z"/><path d="M514.146 1279.31L1650.03 2415.19l-3.88 26.34L510.272 1305.64z"/><path d="M530.787 1282.52L1666.67 2418.4l-2.93 21.71-.41 1.84-.65 1.57-.87 1.29-1.03 1.01-1.17.74-1.26.47-1.31.21-1.32-.06-1.3-.32-1.23-.58-1.12-.84L516.187 1309.56l1.123.83 1.229.58 1.295.33 1.324.05 1.311-.2 1.259-.47 1.167-.74 1.037-1.02.866-1.29.656-1.56.406-1.85z"/><path d="M546.951 1291.02L1682.83 2426.9l.47 1.83.27 1.86.06 1.85-.14 1.77-.33 1.64-.53 1.44-.71 1.2-.9.88-1.55.84-1.64.37-1.7-.05-1.69-.44-1.66-.81-1.58-1.13L535.317 1302.27l1.578 1.13 1.66.81 1.698.44 1.693.05 1.644-.37 1.551-.84.896-.88.713-1.2.526-1.44.334-1.64.14-1.77-.062-1.85-.264-1.87zm-36.679 14.62L1646.15 2441.53l-.46 1.94-.7 1.62-.92 1.3-1.08 1.01-1.2.7-1.3.42-1.33.15-1.34-.13-1.31-.39-1.22-.63-1.11-.88L498.3 1310.76l1.107.88 1.225.63 1.304.39 1.339.12 1.337-.14 1.292-.42 1.207-.71 1.081-1 .914-1.3.707-1.62zm-25.348-112.29L1620.81 2329.24l-.77-.24-.69-.4L483.466 1192.72l.691.4z"/><path d="M488.693 1194.04L1624.57 2329.92l-3.76-.68L484.924 1193.35z"/><path d="M537.727 1222.57L1673.61 2358.46l1.04 1.39.93 1.39.84 1.37.75 1.36.66 1.34.58 1.34.5 1.32.42 1.32.36 1.31.3 1.31.24 1.3.19 1.3.14 1.3.1 1.3.06 1.3.03 1.29v1.31l-.02 1.3-.03 1.32-.05 1.32-.05 1.32-.06 1.34-.05 1.34-.05 1.36-.03 1.37-.02 1.38.02 1.4.03 1.42.08 1.43.11 1.45.15 1.47.2 1.49L545.102 1265.84l-.204-1.49-.153-1.47-.111-1.45-.072-1.43-.038-1.42-.011-1.4.013-1.38.032-1.37.046-1.36.054-1.35.056-1.33.055-1.33.048-1.32.035-1.31.02-1.31-.003-1.3-.03-1.3-.061-1.3-.099-1.29-.141-1.3-.188-1.3-.241-1.3-.297-1.31-.359-1.31-.428-1.32-.499-1.33-.577-1.33-.66-1.35-.746-1.35-.84-1.37-.937-1.39z"/><path d="M716.869 1327.4L1852.75 2463.28l-27.37 240.44L689.495 1567.84z"/><path d="M873.938 1190.88L2009.82 2326.76v376.96L873.938 1567.84z"/><path d="M873.938 1567.84L2009.82 2703.72h-126.7L747.234 1567.84zm391.152-264.47l1135.88 1135.88-8.23-.1-8.18-.31-8.13-.51-8.07-.72-8.01-.92-7.95-1.11-7.88-1.31-7.82-1.49-7.75-1.69-7.68-1.88-7.6-2.05-7.53-2.24-7.45-2.42-7.37-2.6-7.28-2.77-7.2-2.94-7.11-3.11-7.02-3.27-6.92-3.44-6.83-3.61-6.73-3.76-6.62-3.92-6.53-4.07-6.41-4.22-6.31-4.37-6.2-4.52-6.08-4.67-5.96-4.8-5.85-4.94-5.73-5.08-5.6-5.22-1135.88-1135.88 5.6 5.21 5.73 5.08 5.85 4.95 5.96 4.8 6.08 4.67 6.2 4.51 6.31 4.38 6.41 4.22 6.53 4.07 6.62 3.92 6.73 3.76 6.83 3.6 6.92 3.44 7.02 3.28 7.11 3.11 7.2 2.94 7.28 2.77 7.37 2.6 7.45 2.41 7.53 2.24 7.6 2.06 7.68 1.88 7.75 1.68 7.82 1.5 7.88 1.31 7.95 1.11 8.01.92 8.07.71 8.13.52 8.18.31zm-212.87-584.507L2188.1 1854.75h-.42l-.11.01h-.31l-2.63-.13-2.56-.39-2.46-.64-2.37-.86-2.25-1.09-2.12-1.29-1.98-1.48-1.83-1.66L1033.18 711.34l1.83 1.661 1.98 1.481 2.12 1.289 2.25 1.083 2.36.866 2.47.633 2.56.391 2.63.132h.1l.11-.001.1-.001.11-.001.1-.002.11-.002.1-.003zm-219.345-111.36L1968.76 1743.39v27.28L832.875 634.79z"/><path d="M832.875 634.79L1968.76 1770.67l-2.55 3.41L830.329 638.197zM1963.56 1906.81zM827.68 770.93zm-49.803-27.114L1913.76 1879.7v4.32L777.877 748.138zM1963.63 1906.81zM827.75 770.93z"/><path d="M867.793 805.977L2003.67 1941.86l4.49 4.65 4.47 4.82 4.45 4.96 4.43 5.08 4.38 5.18 4.34 5.26 4.29 5.31 4.22 5.35 4.16 5.36 4.08 5.35 3.99 5.33 3.9 5.26 3.81 5.2 3.69 5.1 3.58 4.98 3.45 4.84 3.33 4.68 3.18 4.5 3.03 4.29 2.88 4.07 2.72 3.82L948.66 909.368l-2.717-3.821-2.879-4.068-3.036-4.294-3.183-4.498-3.322-4.68-3.455-4.842-3.578-4.98-3.694-5.099-3.803-5.195-3.903-5.268-3.995-5.32-4.08-5.352-4.156-5.361-4.225-5.348-4.286-5.314-4.339-5.258-4.385-5.18-4.422-5.081-4.45-4.961-4.473-4.818z"/><path d="M1490.59 1209.96l1135.88 1135.89-5.47 5.34-5.6 5.22-5.73 5.08-5.84 4.94-5.97 4.8-6.08 4.67-6.2 4.52-6.3 4.37-6.42 4.22-6.52 4.07-6.63 3.92-6.73 3.76-6.83 3.61-6.92 3.44-7.02 3.27-7.11 3.11-7.19 2.94-7.29 2.77-7.37 2.6-7.45 2.42-7.52 2.24-7.61 2.05-7.68 1.88-7.75 1.69-7.82 1.49-7.88 1.31-7.95 1.11-8.01.92-8.07.72-8.13.51-8.18.31-8.23.1-1135.88-1135.88 8.23-.1 8.18-.31 8.13-.52 8.07-.71 8.01-.92 7.95-1.11 7.88-1.31 7.82-1.5 7.75-1.68 7.68-1.88 7.6-2.06 7.53-2.24 7.45-2.41 7.37-2.6 7.29-2.77 7.19-2.94 7.11-3.11 7.02-3.28 6.92-3.44 6.83-3.6 6.73-3.76 6.63-3.92 6.52-4.07 6.41-4.22 6.31-4.38 6.2-4.51 6.08-4.67 5.96-4.8 5.85-4.95 5.73-5.08 5.6-5.21zm-421.02-535.007L2205.45 1810.84l1.66 1.82 1.48 1.98 1.29 2.12 1.09 2.25.86 2.37.63 2.46.39 2.56.14 2.63-.03 1.07-.06 1.06-.11 1.05-.15 1.04-.19 1.02-.23 1.01-.27.99-.3.98L1075.77 701.365l.3-.977.27-.992.23-1.007.19-1.023.15-1.037.11-1.049.06-1.062.03-1.072-.14-2.631-.39-2.554-.63-2.465-.87-2.365-1.08-2.249-1.29-2.121-1.48-1.981z"/><path d="M1075.77 701.365L2211.65 1837.25l11.78 18.14L1087.55 719.508zm156.74-44.272L2368.4 1792.98h-32.01L1200.51 657.093z"/><path d="M1200.51 657.093L2336.39 1792.98l-1.5-.16-1.46-.47-1.41-.76-1.35-1.04-1.28-1.3L1193.51 653.371l1.28 1.298 1.35 1.037 1.41.761 1.46.466z"/><path d="M1584 984.463L2719.88 2120.34l-.1 8.24-.31 8.18-.52 8.12-.72 8.07-.91 8.01-1.11 7.95-1.31 7.89-1.5 7.82-1.68 7.75-1.88 7.67-2.06 7.61-2.24 7.53-2.42 7.45-2.59 7.37-2.77 7.28-2.94 7.2-3.11 7.11-3.28 7.01-3.44 6.93-3.6 6.83-3.76 6.72-3.92 6.63-4.07 6.52-4.22 6.42-4.38 6.31-4.52 6.19-4.66 6.08-4.8 5.97-4.95 5.85-5.08 5.72-5.21 5.6-5.35 5.48-1135.88-1135.89 5.35-5.47 5.21-5.6 5.08-5.73 4.95-5.84 4.8-5.97 4.66-6.08 4.52-6.2 4.37-6.3 4.23-6.42 4.07-6.52 3.92-6.63 3.76-6.73 3.6-6.82 3.44-6.93 3.28-7.02 3.11-7.1 2.94-7.2 2.77-7.29 2.59-7.37 2.42-7.44 2.24-7.53 2.06-7.61 1.87-7.68 1.69-7.75 1.5-7.82 1.31-7.88 1.11-7.95.91-8.01.72-8.07.52-8.13.31-8.176z"/><path d="M827.681 770.93zm.065-.007zm.253-.03zm.028-.002zm372.48-175.471h129.17c8.11 0 14.685 13.807 14.685 30.836s-6.575 30.836-14.686 30.836h-32.008v10.105c53.295 5.407 102.711 23.938 144.967 52.31l11.763-18.114a25.712 25.712 0 0 1-1.35-8.247c0-14.21 11.52-25.728 25.729-25.728s25.73 11.519 25.73 25.728-11.519 25.73-25.73 25.73c-.272 0-.542-.005-.811-.013l-11.752 18.096a320.675 320.675 0 0 1 24.379 22.001C1548.303 816.672 1584 896.4 1584 984.462s-35.696 167.791-93.407 225.502-137.44 93.408-225.503 93.408-167.79-35.696-225.501-93.408c-54.64-54.639-89.546-129.015-93.107-211.514-23.257-4.864-56.122-18.272-56.342-29.68l-19.344-31.293 2.999 223.884h3.373v29.518h-3.229v376.956H747.235L716.87 1327.4l-27.374 240.436H565.82V1190.88h-1.385v-29.518h2.255l-1.33-180.117-14.297 215.854-2.704-.409-.434 3.293c-.34 2.575-2.35 4.35-4.49 3.962l-2.397-.434-3.311 19.064c11.654 15.003 4.935 27.237 7.375 43.268 2.529 16.59-.273 17.15 1.85 25.175 1.54 4.768.82 10.577-1.811 12.475-3.972 2.866-9.404.483-12.557-4.332-3.634-5.55-1.677-9.334-1.327-16.554l-.47-.085-2.927 21.702c-1.43 10.598-15.203 9.124-14.303-2.59l.59-22.323-3.875 26.335c-1.714 11.229-15.749 8.335-14.304-2.59.713-5.394 2.79-40.927.959-27.071-1.544 11.68-1.75 9.8-3.295 21.482-1.435 10.855-14.9 8.869-14.304-2.59l1.184-22.74-2.113 13.445c-1.864 11.866-15.67 7.749-14.304-2.589 1.776-13.433-.289-12.883 1.487-26.318l1.97-14.907c1.794-13.565 8.179-22.958 18.007-29.96l3.135-17.77-3.77-.682c-2.138-.387-3.596-2.789-3.257-5.363l.18-1.36-.942-.143c0-40.894 34.424-291.919 43.265-327.89 9.813-39.912 38.175-66.508 76.35-79.68 9.363-3.232 19.457-5.267 29.978-5.944l15.48-43.762 20.1 18.924v-4.322c-31.374-19.036-52.45-53.532-52.45-92.712v-31.971c-3.29-12.894-5.111-26.08-5.111-39.043 0-38.3 13.543-63.477 35.436-79.348 20.742-15.036 48.193-20.577 78.025-20.577s57.282 5.54 78.025 20.577c21.893 15.871 35.435 41.049 35.435 79.348 0 10.871-.549 16.458-2.563 27.414v27.287l-2.546 3.407v12.906c0 39.182-21.077 73.678-52.452 92.713v4.322l20.103-18.925 15.58 41.2a58.49 58.49 0 0 0 1.666.323 42.43 42.43 0 0 1 4.57 1.091c43.493 12.882 100.787 98.185 128.864 137.541l8.543-8.323c14.741-54.54 43.59-103.286 82.385-142.084a320.685 320.685 0 0 1 24.38-22.002l-11.751-18.095-.841.013c-14.209 0-25.73-11.52-25.73-25.73s11.521-25.729 25.73-25.729 25.73 11.52 25.73 25.728c0 2.875-.471 5.639-1.34 8.22l11.78 18.142c42.257-28.372 91.674-46.904 144.969-52.312v-10.103h-32.008c-8.11 0-14.687-13.807-14.687-30.836s6.576-30.836 14.687-30.836z"/></g><g fill-rule="nonzero"><path d="M532.585 1299.16c3.151 4.814 8.583 7.198 12.555 4.331 2.63-1.898 3.352-7.707 1.81-12.476-2.122-8.024.68-8.583-1.848-25.174-2.442-16.031 4.278-28.265-7.375-43.267l3.59-20.673-52.34-9.473-3.419 19.379c-9.828 7.001-16.213 16.395-18.007 29.958l-1.97 14.908c-1.775 13.434.29 12.885-1.487 26.319-1.365 10.337 12.44 14.454 14.304 2.589l2.112-13.446-1.182 22.74c-.597 11.459 12.868 13.444 14.303 2.59 1.544-11.681 1.752-9.802 3.295-21.483 1.832-13.854-.245 21.678-.958 27.073-1.444 10.923 12.591 13.818 14.304 2.59l3.875-26.335-.59 22.322c-.9 11.714 12.873 13.188 14.302 2.589l2.927-21.7.47.086c-.35 7.219-2.306 11.002 1.329 16.553z" fill="#e8c198"/><path d="M547.557 1172.77l-58.512-10.589c-2.139-.387-4.148 1.386-4.488 3.962l-2.89 21.85c-.34 2.575 1.118 4.976 3.257 5.364l58.51 10.588c2.14.388 4.15-1.386 4.49-3.96l2.89-21.852c.34-2.574-1.12-4.977-3.257-5.363z" fill="#ff6f00"/></g><path d="M873.938 1185.34H565.819v382.5h123.676l27.376-240.44 30.363 240.44h126.704z" fill="#37474f"/><path fill="#d7b48f" d="M666.079 722.644h111.798v136.915H666.079z"/><path d="M480.905 1186.49l70.157 10.607 14.298-215.853 1.383 187.257H873.89l-3.095-231.024 21.996 35.581c26.322-7.497 99.757-5.996 64.657-51.69-23.61-30.735-93.151-141.849-142.223-150.633-15.02-2.687-27.353-11.205-40.213-13.093l-53.496 44.578c-39.94-30.668-85.661-35.494-120.998-23.302-38.173 13.173-66.536 39.769-76.348 79.68-8.842 35.971-43.265 286.995-43.265 327.892z" fill="#ff8f00" fill-rule="nonzero"/><path fill="#0277bd" d="M734.345 800.905l-25.886 2.975-15.718 250.31 21.391 36.01 27.858-36.01z"/><path fill="#3e2723" d="M564.436 1161.36h312.732v29.517H564.436z"/><path d="M830.329 556.049H613.628v95.054c0 59.591 48.757 108.35 108.351 108.35s108.35-48.756 108.35-108.35v-95.054z" fill="#e8c198"/><g fill="#212121"><path d="M832.825 607.779c-16.885-2.862-34.18-8.13-50.288-15.623-18.458-8.581-35.612-20.222-49.246-34.707a294.99 294.99 0 0 1-21.055 19.16c-29.1 24.032-63.515 43.346-96.01 51.69-4.916-15.763-7.71-32.155-7.71-48.21 0-38.3 13.544-63.477 35.436-79.348 20.742-15.036 48.193-20.577 78.025-20.577s57.284 5.54 78.025 20.577c21.894 15.87 35.436 41.047 35.436 79.348 0 10.96-.559 16.55-2.613 27.69z"/><path d="M616.174 611.828h4.923v35.953l-4.923-6.588zm216.701-6.404h-4.923v35.954l4.923-6.588z"/></g><path d="M797.979 729.213l-76 71.547 23.1 38.602 69.071-67.389zm-152.002 0l76.001 71.547-23.1 38.602-68.516-66.003z" fill="#ff6f00"/><g fill-rule="nonzero"><path d="M1146.11 732.547c-2.17-6.53-7.716-10.947-13.187-8.849-3.621 1.39-6.233 7.883-5.91 13.866-.004 9.925-5.737 22.944-11.842 30.698-12.032 15.28-26.662 21.39-28.568 44.026l-19.906 15.273 38.357 50.735 18.704-14.272c14.317 1.803 27.542-1.283 40.109-11.76l13.812-11.513c12.445-10.376 10.183-11.565 22.63-21.941 9.576-7.984.77-22.79-10.483-13.865l-12.749 10.113 19.464-19.041c9.807-9.593-.425-22.25-10.482-13.865-10.822 9.021-9.482 7.201-20.304 16.221-12.835 10.702 17.78-18.864 22.78-23.032 10.118-8.436.12-22.352-10.484-13.865l-24.743 20.02 18.604-19.152c10.282-9.574-.637-22.03-10.482-13.867l-20.155 16.713-.343-.456c3.38-7.643 7.68-24.658 5.178-32.187z" fill="#d7b48f"/><path d="M1037.6 848.125l42.878 56.718c1.567 2.074 4.771 2.142 7.156.153l20.244-16.876c2.386-1.99 3.05-5.282 1.481-7.354l-42.878-56.718c-1.567-2.074-4.771-2.142-7.156-.153l-20.244 16.876c-2.386 1.99-3.05 5.281-1.481 7.354z" fill="#ff6f00"/><path d="M892.6 963.598c24.613-20.574 122.358-126.178 144.546-126.325 5.354-.034 10.237 2.007 13.357 6.135l36.914 48.83c3.12 4.127 3.907 9.584 2.661 15.05s-4.53 10.952-9.543 15.132c-40.867 29.496-94.158 73.691-115.293 77.608-17.665 3.274-89.172-20.67-72.641-36.43z" fill="#ffa000"/><path d="M1197.97 795.909c3.996-3.341 4.526-9.29 1.185-13.284s-9.289-4.526-13.284-1.185l-24.95 19.513c-3.996 3.34-4.526 9.289-1.184 13.285s9.288 4.525 13.285 1.184l24.948-19.513zm-8.23-20.711a9.431 9.431 0 1 0-12.1-14.47l-25.766 21.757a9.431 9.431 0 0 0 12.1 14.47l25.766-21.757zm-14.86-12.858c3.996-3.341 4.525-9.29 1.183-13.285a9.43 9.43 0 0 0-13.283-1.185l-19.739 16.569c-3.996 3.341-4.525 9.29-1.183 13.285a9.43 9.43 0 0 0 13.283 1.184l19.739-16.568zm27.27 54.713a9.431 9.431 0 0 0-12.1-14.468l-20.403 16.205a9.431 9.431 0 0 0 12.1 14.47l20.403-16.207z" fill="#e9cbab"/></g><path d="M1142.65 767.745c4.714-3.933 10.6-4.645 13.15-1.59s.794 8.72-3.92 12.652-8.017 2.758-10.567-.296-3.376-6.834 1.337-10.766zm8.19 18.061c4.752-3.886 10.645-4.54 13.163-1.46s.71 8.726-4.043 12.612-8.044 2.68-10.563-.4-3.309-6.866 1.443-10.752zm10.51 17.185c5.19-3.276 11.12-3.206 13.244.16s-.363 8.747-5.555 12.023-8.313 1.676-10.436-1.689-2.444-7.218 2.747-10.494zm7.73 18.58c5.03-3.517 10.956-3.726 13.237-.465s.05 8.754-4.981 12.271-8.224 2.067-10.504-1.193-2.782-7.096 2.248-10.613z" fill="#ffecb3"/><g fill-rule="nonzero"><g fill="#212121"><path d="M828.027 770.89v-.002l-.025.003-.004.002zm-.346.04v-.003l-13.815 1.577.004.006zm.346-.042v.002l8.963-1.026zm-.346.039v.003l.065-.009-.002-.001zm.063-.007l.002.001.14-.015h-.016z"/><path d="M827.87 770.906h.016l.112-.013.004-.002z"/></g><path d="M1297.67 629.252c0-8.11-14.585-14.687-32.577-14.687s-32.576 6.576-32.576 14.687v48.437c0 8.112 14.585 14.688 32.576 14.688s32.577-6.576 32.577-14.688v-48.437z" fill="#b71c1c"/><path d="M1200.51 595.42c-8.11 0-14.687 13.807-14.687 30.836s6.576 30.836 14.687 30.836h129.169c8.11 0 14.686-13.806 14.686-30.836s-6.575-30.836-14.686-30.836H1200.51z" fill="#d32f2f"/><path d="M1485.8 706.799c4.403-6.78 2.477-15.848-4.303-20.252s-15.848-2.477-20.252 4.302l-26.38 40.624c-4.403 6.78-2.478 15.847 4.303 20.252s15.847 2.476 20.25-4.303l26.382-40.623zm-416.86-15.949c-4.404-6.78-13.47-8.706-20.25-4.303s-8.707 13.472-4.303 20.251l26.38 40.624c4.404 6.78 13.472 8.706 20.253 4.302a14.64 14.64 0 0 0 4.301-20.25l-26.381-40.624z" fill="#b71c1c"/></g><path d="M1265.09 665.553c88.063 0 167.791 35.697 225.503 93.409s93.408 137.439 93.408 225.5-35.697 167.792-93.408 225.503-137.439 93.407-225.503 93.407-167.789-35.695-225.501-93.407-93.408-137.44-93.408-225.502 35.697-167.79 93.408-225.501 137.44-93.409 225.501-93.409z" fill="#d32f2f"/><path d="M1265.09 715.113c74.379 0 141.717 30.148 190.46 78.892s78.892 116.08 78.892 190.458-30.149 141.717-78.892 190.459-116.08 78.892-190.46 78.892-141.715-30.15-190.458-78.892-78.892-116.081-78.892-190.46 30.149-141.715 78.892-190.457 116.081-78.892 190.458-78.892z" fill="#b0bec5"/><path d="M1051.38 667.418c14.211 0 25.73 11.52 25.73 25.728s-11.519 25.73-25.73 25.73-25.73-11.519-25.73-25.73 11.521-25.728 25.73-25.728zm427.4 0c14.211 0 25.73 11.52 25.73 25.728s-11.519 25.73-25.73 25.73-25.728-11.519-25.728-25.73 11.52-25.728 25.728-25.728z" fill="#d32f2f"/><path d="M1265.09 743.307c133.187 0 241.155 107.969 241.155 241.155s-107.968 241.156-241.155 241.156-241.155-107.969-241.155-241.156 107.969-241.155 241.155-241.155zm0 38.798c111.761 0 202.36 90.599 202.36 202.357s-90.599 202.358-202.36 202.358-202.357-90.599-202.357-202.358 90.598-202.357 202.357-202.357z" fill="#90a4ae"/><path d="M1025.08 979.222a5.242 5.242 0 000 10.485h32.22a5.243 5.243 0 100-10.485h-32.22zM1270.33 744.454a5.244 5.244 0 00-10.486 0v32.22a5.243 5.243 0 1010.486 0v-32.22zM1472.88 979.222a5.242 5.242 0 100 10.485h32.218a5.245 5.245 0 005.244-5.243 5.244 5.244 0 00-5.244-5.242h-32.218zM1270.33 1192.25a5.243 5.243 0 10-10.486 0v32.218a5.243 5.243 0 0010.486 0v-32.218zM1099.09 811.044a5.245 5.245 0 00-7.415 0 5.245 5.245 0 000 7.415l22.782 22.782a5.243 5.243 0 007.414-7.415l-22.781-22.782zM1099.09 1157.88a5.242 5.242 0 11-7.415-7.414l22.782-22.782a5.241 5.241 0 017.414 0 5.242 5.242 0 010 7.415l-22.781 22.781zM1415.73 1127.69a5.242 5.242 0 10-7.415 7.415l22.784 22.781a5.242 5.242 0 107.415-7.414l-22.784-22.782zM1415.73 841.241a5.245 5.245 0 01-7.415 0 5.245 5.245 0 010-7.415l22.784-22.782a5.245 5.245 0 017.415 0 5.245 5.245 0 010 7.415l-22.784 22.782z" fill="#3b4c55" fill-rule="nonzero"/><path d="M1275.93 980.133l127.98 134.593a190.385 190.385 0 0051.544-130.263c0-101.482-79.4-184.415-179.472-190.061l-.051 185.731z" fill="#e57373"/><path d="M1294.43 1004.41l109.834 126.28-121.336-115.27-14.43-15.08-.12-.18c-5.311 1.304-11.152-.186-15.205-4.422-4.042-4.223-5.278-10.103-3.762-15.341l-3.348-3.499a7.96 7.96 0 1111.503-11.008l3.382 3.534c5.273-1.246 11.05.255 15.068 4.453 4.049 4.23 5.282 10.124 3.755 15.369l.23.087 14.429 15.077z" fill="#37474f"/><path d="M1257.09 950.461l7.962-167.173 7.96 167.173v20.87l-.039.214c4.74 2.73 7.928 7.845 7.928 13.707 0 5.845-3.172 10.95-7.889 13.684v4.842a7.961 7.961 0 01-15.922 0v-4.89c-4.67-2.748-7.806-7.824-7.806-13.636 0-5.856 3.183-10.967 7.913-13.699l-.107-.222v-20.87z" fill="#263238"/><path d="M1265.09 976.377a8.875 8.875 0 11-.001 17.75 8.875 8.875 0 01.001-17.75z" fill="#9e9e9e"/><path d="M1265.09 982.111a3.14 3.14 0 110 6.281 3.14 3.14 0 010-6.281z" fill="#616161"/><path d="M1203.44 653.938c-1.73-7.76-2.752-17.328-2.752-27.681s1.022-19.921 2.752-27.68c1.73 7.759 2.752 17.326 2.752 27.68s-1.022 19.921-2.752 27.681zm10.28 0c-1.73-7.76-2.752-17.328-2.752-27.681s1.022-19.921 2.752-27.68c1.73 7.759 2.752 17.326 2.752 27.68s-1.023 19.921-2.752 27.681zm10.27 0c-1.73-7.76-2.752-17.328-2.752-27.681s1.023-19.921 2.752-27.68c1.73 7.759 2.752 17.326 2.752 27.68s-1.023 19.921-2.752 27.681zm10.28 0c-1.73-7.76-2.752-17.328-2.752-27.681s1.023-19.921 2.752-27.68c1.73 7.759 2.752 17.326 2.752 27.68s-1.022 19.921-2.752 27.681zm10.27 0c-1.73-7.76-2.752-17.328-2.752-27.681s1.023-19.921 2.752-27.68c1.73 7.759 2.752 17.326 2.752 27.68s-1.022 19.921-2.752 27.681zm10.28 0c-1.73-7.76-2.75-17.328-2.75-27.681s1.02-19.921 2.75-27.68c1.73 7.759 2.752 17.326 2.752 27.68s-1.022 19.921-2.752 27.681zm10.27 0c-1.73-7.76-2.75-17.328-2.75-27.681s1.02-19.921 2.75-27.68c1.73 7.759 2.752 17.326 2.752 27.68s-1.022 19.921-2.752 27.681zm10.28 0c-1.73-7.76-2.753-17.328-2.753-27.681s1.023-19.921 2.753-27.68c1.73 7.759 2.75 17.326 2.75 27.68s-1.02 19.921-2.75 27.681zm10.27 0c-1.73-7.76-2.75-17.328-2.75-27.681s1.02-19.921 2.75-27.68c1.73 7.759 2.752 17.326 2.752 27.68s-1.022 19.921-2.752 27.681zm10.27 0c-1.73-7.76-2.753-17.328-2.753-27.681s1.023-19.921 2.753-27.68c1.73 7.759 2.752 17.326 2.752 27.68s-1.023 19.921-2.752 27.681zm10.28 0c-1.73-7.76-2.75-17.328-2.75-27.681s1.02-19.921 2.75-27.68c1.73 7.759 2.752 17.326 2.752 27.68s-1.022 19.921-2.752 27.681zm10.27 0c-1.73-7.76-2.752-17.328-2.752-27.681s1.022-19.921 2.752-27.68c1.73 7.759 2.752 17.326 2.752 27.68s-1.023 19.921-2.752 27.681zm10.28 0c-1.73-7.76-2.752-17.328-2.752-27.681s1.022-19.921 2.752-27.68c1.73 7.759 2.75 17.326 2.75 27.68s-1.02 19.921-2.75 27.681z" fill="#b71c1c"/></svg>