<svg xmlns="http://www.w3.org/2000/svg" viewBox="0 0 64 64" xmlns:v="https://vecta.io/nano"><path d="M49 56v2H15v-2a2.006 2.006 0 0 1 2-2h30a2.006 2.006 0 0 1 2 2z" fill="#7e8596"/><path d="M21 48h22l2 6h-5l-1-3H25l-1 3h-5l2-6z" fill="#afb4c8"/><path d="M63,40v4a4,4,0,0,1-4,4H5a4,4,0,0,1-4-4V40Z" fill="#e9edf5"/><path d="M63 6v34H1V6a4 4 0 0 1 4-4h54a4 4 0 0 1 4 4z" fill="#a3d4ff"/><path d="M59,40v4a4,4,0,0,1-4,4h4a4,4,0,0,0,4-4V40Z" fill="#dce1eb"/><path d="M59 2h-4a4 4 0 0 1 4 4v34h4V6a4 4 0 0 0-4-4z" fill="#65b1fc"/><path d="M5,40v4a4,4,0,0,0,4,4H5a4,4,0,0,1-4-4V40Z" fill="#dce1eb"/><path d="M5,2H9A4,4,0,0,0,5,6V40H1V6A4,4,0,0,1,5,2Z" fill="#65b1fc"/><path d="M12 22h4v8h-4z" fill="#b2876d"/><path d="M14 22h2v8h-2zm-1-12v2.73l-4 2.18V10h4z" fill="#966857"/><path d="M11 10H9v4.91l2-1.09V10z" fill="#b2876d"/><path d="M19 22h5v4h-5z" fill="#a3d4ff"/><path d="M19 24h5v2h-5z" fill="#65b1fc"/><path d="M24,22H19v4h5Zm3-3.09V30H16V22H12v8H9V18.91L18,14Z" fill="#f7f7f7"/><path d="M18 14l-9 4.91v2L18 16l9 4.91v-2L18 14z" fill="#cfcfcf"/><path d="M13 12.73L18 10l11 6v4l-2-1.09L18 14l-9 4.91L7 20v-4l2-1.09 4-2.18z" fill="#ff936b"/><path d="M18 12l-9 4.91L7 18v2l2-1.09L18 14l9 4.91L29 20v-2l-2-1.09L18 12z" fill="#ff7045"/><path d="M40 22h4v8h-4z" fill="#b2876d"/><path d="M42 22h2v8h-2zm-1-12v2.73l-4 2.18V10h4z" fill="#966857"/><path d="M39 10h-2v4.91l2-1.09V10z" fill="#b2876d"/><path d="M47 22h5v4h-5z" fill="#a3d4ff"/><path d="M47 24h5v2h-5z" fill="#65b1fc"/><path d="M52,22H47v4h5Zm3-3.09V30H44V22H40v8H37V18.91L46,14Z" fill="#f7f7f7"/><path d="M46 14l-9 4.91v2L46 16l9 4.91v-2L46 14z" fill="#cfcfcf"/><path d="M41 12.73L46 10l11 6v4l-2-1.09L46 14l-9 4.91L35 20v-4l2-1.09 4-2.18z" fill="#ff936b"/><path d="M46 12l-9 4.91L35 18v2l2-1.09L46 14l9 4.91L57 20v-2l-2-1.09L46 12z" fill="#ff7045"/><path d="M59 54v8H44h-1v-8h2 12 2z" fill="#ff936b"/><path d="M59 54v2H44h-1v-2h2 12 2z" fill="#ffb89c"/><path d="M59 59v3H44h-1v-3h2 12 2z" fill="#ff7045"/><path d="M43,39V50l-4-4V41a2.006,2.006,0,0,1,2-2Z" fill="#ffbeaa"/><path d="M55,37a2.015,2.015,0,0,1,2-2,2.006,2.006,0,0,1,2,2V50l-2,2v2H45V52l-2-2V28a2.015,2.015,0,0,1,2-2,2.006,2.006,0,0,1,2,2v7a2.006,2.006,0,0,1,2-2,2.015,2.015,0,0,1,2,2v1a2.006,2.006,0,0,1,2-2,2.015,2.015,0,0,1,2,2Z" fill="#ffdecf"/><path d="M45 26h0a2 2 0 0 1 2 2v14a0 0 0 0 1 0 0h-2a0 0 0 0 1 0 0V26a0 0 0 0 1 0 0zm4 7h0a2 2 0 0 1 2 2v7a0 0 0 0 1 0 0h-2a0 0 0 0 1 0 0v-9a0 0 0 0 1 0 0zm4 1h0a2 2 0 0 1 2 2v6a0 0 0 0 1 0 0h-2a0 0 0 0 1 0 0v-8a0 0 0 0 1 0 0zm4 1v15l-2 2v2h2v-2l2-2V37a2.006 2.006 0 0 0-2-2z" fill="#ffbeaa"/><path d="M59 1H5a5.006 5.006 0 0 0-5 5v38a5.006 5.006 0 0 0 5 5h14.613l-1.333 4H17a3 3 0 0 0-3 3v2a1 1 0 0 0 1 1h26v-2H16v-1a1 1 0 0 1 1-1h24v-2h-.28l-.772-2.316A1 1 0 0 0 39 50H25a1 1 0 0 0-.948.684L23.28 53h-2.892l1.333-4H36v-2H5a3 3 0 0 1-3-3v-3h34v-2H2V6a3 3 0 0 1 3-3h54a3 3 0 0 1 3 3v33h-2v-2a3 3 0 0 0-3-3 2.967 2.967 0 0 0-1.471.4 2.955 2.955 0 0 0-4-1A2.94 2.94 0 0 0 48 32.184V28a3 3 0 0 0-6 0v10h-1a3 3 0 0 0-3 3v5a1 1 0 0 0 .293.707l4 4L44 52.414V53h-1a1 1 0 0 0-1 1v8a1 1 0 0 0 1 1h16a1 1 0 0 0 1-1v-8a1 1 0 0 0-1-1h-1v-.586l1.707-1.707A1 1 0 0 0 60 50v-1.1a5.009 5.009 0 0 0 4-4.9V6a5.006 5.006 0 0 0-5-5zM25.721 52h12.558l.334 1H25.387zM40 41a1 1 0 0 1 1-1h1v7.586l-2-2zm18 20H44v-6h14zm0-11.414l-1.707 1.707A1 1 0 0 0 56 52v1H46v-1a1 1 0 0 0-.293-.707L44 49.586V28a1 1 0 0 1 2 0v14h2v-7a1 1 0 0 1 2 0v7h2v-6a1 1 0 0 1 2 0v6h2v-5a1 1 0 0 1 2 0zm2-2.77V41h2v3a3 3 0 0 1-2 2.816zM9 31h18a1 1 0 0 0 1-1v-9.407l.521.285A1 1 0 0 0 30 20v-4a1 1 0 0 0-.521-.878l-11-6a1 1 0 0 0-.958 0L14 11.043V10a1 1 0 0 0-1-1H9a1 1 0 0 0-1 1v4.316l-1.479.806A1 1 0 0 0 6 16v4a1 1 0 0 0 1.479.878L8 20.593V30a1 1 0 0 0 1 1zm4-2v-6h2v6zm13 0h-9v-7a1 1 0 0 0-1-1h-4a1 1 0 0 0-1 1v7h-1v-9.5l8-4.364 8 4.364zM10 11h2v1.134l-2 1.091zm-2 5.594l10-5.455 10 5.455v1.721l-9.521-5.193a1 1 0 0 0-.958 0L8 18.315zM18 26a1 1 0 0 0 1 1h5a1 1 0 0 0 1-1v-4a1 1 0 0 0-1-1h-5a1 1 0 0 0-1 1zm2-3h3v2h-3zm17 8h4v-2h-3v-9.5l8-4.364 8 4.364V29h-4v2h5a1 1 0 0 0 1-1v-9.407l.521.285A1 1 0 0 0 58 20v-4a1 1 0 0 0-.521-.878l-11-6a1 1 0 0 0-.958 0L42 11.043V10a1 1 0 0 0-1-1h-4a1 1 0 0 0-1 1v4.316l-1.479.806A1 1 0 0 0 34 16v4a1 1 0 0 0 1.479.878l.521-.285V30a1 1 0 0 0 1 1zm1-20h2v1.134l-2 1.091zm-2 5.594l10-5.455 10 5.455v1.721l-9.521-5.193a1 1 0 0 0-.958 0L36 18.315z"/></svg>