<svg xmlns="http://www.w3.org/2000/svg" viewBox="0 0 32 32" xmlns:v="https://vecta.io/nano"><path d="M2.5 8H12V7h-2V4.5a1.5 1.5 0 0 1 3 0v15a.5.5 0 0 0 1 0V17h8v2.5a.5.5 0 0 0 1 0V8h6.5a.5.5 0 0 0 0-1H23V4.5a2.5 2.5 0 0 0-5 0V7h-4V4.5a2.5 2.5 0 0 0-5 0V7H2.5a.5.5 0 0 0 0 1zM22 16h-8v-2h8zm0-3h-8v-2h8zm-1-5V7h-2V4.5a1.5 1.5 0 0 1 3 0V10h-8V8zm8.5 14.81a2.2 2.2 0 0 1-1.61-.693 3.2 3.2 0 0 0-4.5 0 2.212 2.212 0 0 1-3.216 0 3.193 3.193 0 0 0-4.5 0 2.206 2.206 0 0 1-3.211 0 3.193 3.193 0 0 0-4.5 0 2.206 2.206 0 0 1-3.211 0A3.155 3.155 0 0 0 2.5 21.19a.5.5 0 0 0 0 1 2.2 2.2 0 0 1 1.606.693 3.193 3.193 0 0 0 4.5 0 2.206 2.206 0 0 1 3.211 0 3.192 3.192 0 0 0 4.5 0 2.209 2.209 0 0 1 3.213 0 3.2 3.2 0 0 0 4.5 0 2.217 2.217 0 0 1 3.22 0 3.159 3.159 0 0 0 2.252.927.5.5 0 0 0 0-1zm0 3a2.2 2.2 0 0 1-1.61-.693 3.2 3.2 0 0 0-4.5 0 2.212 2.212 0 0 1-3.216 0 3.193 3.193 0 0 0-4.5 0 2.206 2.206 0 0 1-3.211 0 3.193 3.193 0 0 0-4.5 0 2.206 2.206 0 0 1-3.211 0A3.155 3.155 0 0 0 2.5 24.19a.5.5 0 0 0 0 1 2.2 2.2 0 0 1 1.606.693 3.193 3.193 0 0 0 4.5 0 2.206 2.206 0 0 1 3.211 0 3.192 3.192 0 0 0 4.5 0 2.209 2.209 0 0 1 3.213 0 3.2 3.2 0 0 0 4.5 0 2.217 2.217 0 0 1 3.22 0 3.159 3.159 0 0 0 2.252.927.5.5 0 0 0 0-1zm0 3a2.2 2.2 0 0 1-1.61-.693 3.2 3.2 0 0 0-4.5 0 2.212 2.212 0 0 1-3.216 0 3.193 3.193 0 0 0-4.5 0 2.206 2.206 0 0 1-3.211 0 3.193 3.193 0 0 0-4.5 0 2.206 2.206 0 0 1-3.211 0A3.155 3.155 0 0 0 2.5 27.19a.5.5 0 0 0 0 1 2.2 2.2 0 0 1 1.606.693 3.193 3.193 0 0 0 4.5 0 2.206 2.206 0 0 1 3.211 0 3.192 3.192 0 0 0 4.5 0 2.209 2.209 0 0 1 3.213 0 3.2 3.2 0 0 0 4.5 0 2.217 2.217 0 0 1 3.22 0 3.159 3.159 0 0 0 2.252.927.5.5 0 0 0 0-1z"/></svg>