<svg xmlns="http://www.w3.org/2000/svg" viewBox="0 0 32 32" xmlns:v="https://vecta.io/nano"><path d="M27 0H5a4.82 4.82 0 0 0-5 5v7a1 1 0 0 0 1 1h10a1 1 0 0 0 1-1V7h8v5a1 1 0 0 0 1 1h10a1 1 0 0 0 1-1V5a4.82 4.82 0 0 0-5-5zm3 11h-8V7a2 2 0 0 0-2-2h-8a2 2 0 0 0-2 2v4H2V5a2.85 2.85 0 0 1 3-3h22a2.85 2.85 0 0 1 3 3zm-2 18a1 1 0 0 1-1 1H5a1 1 0 0 1-1-1V15H2v14a3 3 0 0 0 3 3h22a3 3 0 0 0 3-3V15h-2z"/><rect x="7" y="16" width="4" height="4" rx="1"/><rect x="14" y="16" width="4" height="4" rx="1"/><rect x="21" y="16" width="4" height="4" rx="1"/><rect x="7" y="23" width="4" height="4" rx="1"/><rect x="14" y="23" width="4" height="4" rx="1"/><rect x="21" y="23" width="4" height="4" rx="1"/></svg>