<svg xmlns="http://www.w3.org/2000/svg" width="150" height="25" xmlns:v="https://vecta.io/nano"><g fill="#fff"><path d="M14.329 14.527a6 6 0 0 0 7.698 3.547 6 6 0 0 0 3.543-7.7c-1.146-3.106-4.591-4.691-7.698-3.546s-4.69 4.594-3.543 7.699z"/><circle cx="6.667" cy="12.428" r="5.992"/></g><path fill="#be3538" d="M7.688 12.364a1.11 1.11 0 0 1-1.107 1.111 1.11 1.11 0 0 1-1.108-1.111c0-.61.495-1.104 1.108-1.104s1.107.494 1.107 1.104z"/><path fill="#589442" d="M21.042 12.364a1.11 1.11 0 0 1-1.105 1.111 1.11 1.11 0 0 1-1.108-1.111c0-.61.493-1.104 1.108-1.104s1.105.494 1.105 1.104z"/><path d="M3.289 12.364c0 1.817 1.478 3.292 3.294 3.292s3.289-1.475 3.289-3.292c0-1.812-1.478-3.288-3.289-3.288a3.3 3.3 0 0 0-3.294 3.288zm1.135 0c0-1.188.971-2.155 2.161-2.155a2.16 2.16 0 0 1 2.154 2.155 2.16 2.16 0 0 1-2.154 2.16 2.16 2.16 0 0 1-2.161-2.16zm12.22 0c0 1.817 1.476 3.292 3.292 3.292a3.29 3.29 0 0 0 3.288-3.292c0-1.812-1.475-3.288-3.288-3.288s-3.292 1.477-3.292 3.288zm1.135 0a2.16 2.16 0 0 1 2.159-2.155 2.16 2.16 0 0 1 2.153 2.155 2.16 2.16 0 0 1-2.153 2.16 2.16 2.16 0 0 1-2.159-2.16z"/><path fill="#ffd881" d="M17.641 6.197c.694-.256 1.404-.38 2.105-.399-1.91-.855-4.072-1.288-6.467-1.288-2.377 0-4.57.443-6.479 1.259 3.455.068 6.264 2.774 6.506 6.185.059-.783.25-1.557.588-2.29.745-1.621 2.077-2.851 3.747-3.467z"/><path d="M25.307 8.491c.312-1.337 1.304-2.676 1.304-2.676l-4.449-.003c-2.495-1.611-5.524-2.465-8.881-2.465-3.484 0-6.63.875-9.111 2.497L0 5.848s.98 1.323 1.297 2.651C.486 9.602.004 10.957.004 12.429c0 3.673 2.99 6.661 6.665 6.661 2.101 0 3.974-.979 5.196-2.5l1.419 2.125 1.43-2.143c.643.818 1.473 1.482 2.446 1.932 1.618.744 3.431.817 5.1.201 3.448-1.275 5.218-5.119 3.943-8.562a6.62 6.62 0 0 0-.896-1.652zM13.28 4.511c2.395 0 4.557.433 6.467 1.289-.702.019-1.411.144-2.105.398a6.61 6.61 0 0 0-3.745 3.465c-.338.733-.529 1.507-.588 2.29a6.67 6.67 0 0 0-6.508-6.185c1.908-.815 4.101-1.257 6.479-1.257zm-2.208 10.894a5.32 5.32 0 0 1-4.405 2.341 5.33 5.33 0 0 1-5.321-5.317c0-2.936 2.388-5.32 5.321-5.32s5.32 2.385 5.32 5.32c0 .179-.035.348-.053.521-.089.9-.378 1.742-.862 2.455zm10.721 2.038a5.29 5.29 0 0 1-4.07-.16 5.28 5.28 0 0 1-2.206-1.914c-.22-.334-.414-.688-.556-1.076-.162-.438-.243-.89-.287-1.345-.089-.923.045-1.857.443-2.722a5.3 5.3 0 0 1 2.991-2.767 5.33 5.33 0 0 1 6.834 3.149 5.33 5.33 0 0 1-3.149 6.835z"/><path fill="#589442" d="M95.578 4.412a1.29 1.29 0 0 0 1.287 1.286c.713 0 1.287-.576 1.287-1.286a1.29 1.29 0 0 0-1.287-1.288 1.29 1.29 0 0 0-1.287 1.288z"/><path d="M34.471 4.321l-1.951.674V7.54h-2.162v1.707h2.103v5.479c0 2.604.887 3.672 3.067 3.672.553 0 1.081-.068 1.611-.213l.086-.021-.024-1.77-.149.057c-.429.148-.764.221-1.023.221-1.024 0-1.404-.576-1.404-2.131V9.249h2.495V7.54h-2.495V4.271l-.154.05zm6.744 4.948V7.54h-1.979v10.67H41.4v-5.356c0-2.245.943-3.482 2.653-3.482.248 0 .488.037.781.12l.14.04.071-2.106-.931-.071c-1.254-.002-2.267.676-2.899 1.914zm15.442-1.98c-1.485 0-2.733.703-3.566 1.982V7.538h-1.978v15.017h2.165v-5.821a3.92 3.92 0 0 0 3.295 1.646c2.735 0 4.502-2.244 4.502-5.71.001-3.219-1.776-5.381-4.418-5.381zm-.604 9.34c-1.712 0-2.775-1.463-2.775-3.814 0-2.269 1.122-3.735 2.858-3.735 1.673 0 2.673 1.39 2.673 3.713 0 2.365-1.057 3.836-2.756 3.836z"/><path d="M67.4 7.289c-1.323 0-2.482.25-3.545.761l-.066.032.023 1.847.17-.096c1.016-.568 1.978-.858 2.854-.858 1.567 0 2.467.898 2.467 2.468v.091h-1.238c-3.562 0-5.522 1.29-5.522 3.63 0 1.879 1.415 3.192 3.44 3.192 1.49 0 2.643-.586 3.465-1.688v1.541h1.955v-6.457c-.001-2.96-1.347-4.463-4.003-4.463zm1.9 6.416c0 1.838-1.106 3.027-2.817 3.027-1.048 0-1.779-.689-1.779-1.674 0-1.295 1.238-2.006 3.485-2.006h1.113l-.002.653zM80.592 2.444v6.543c-.798-1.109-1.908-1.697-3.334-1.697-2.647 0-4.426 2.18-4.426 5.419 0 3.337 1.804 5.667 4.382 5.667 1.527 0 2.718-.676 3.544-1.991v1.825h2V2.444h-2.166zm-2.817 14.142c-1.649 0-2.673-1.438-2.673-3.752s1.033-3.815 2.634-3.815c1.787 0 2.854 1.425 2.854 3.815.002 2.283-1.1 3.752-2.815 3.752zm14.651-9.047l-3.068 6.162-2.836-6.162h-2.438l5.229 10.671 5.371-10.671h-2.258zm5.408 0h-2.049V18.21h2.166V7.539h-.117zm2.654 2.736c0 1.501 1.031 2.291 2.936 3.223 1.201.59 1.828.938 1.828 1.77 0 .853-.77 1.404-1.967 1.404-.846 0-1.785-.238-2.715-.695l-.158-.078-.07 1.881.072.027c.889.354 1.824.527 2.789.527 2.646 0 4.355-1.261 4.355-3.213 0-1.627-1.082-2.453-2.957-3.328-1.373-.645-1.949-1.021-1.949-1.705 0-.648.641-1.07 1.631-1.07.895 0 1.768.199 2.594.593l.156.072.094-1.841-.086-.025c-.896-.266-1.781-.4-2.633-.4-2.344-.003-3.92 1.147-3.92 2.858zm13.821-2.986c-3.252 0-5.271 2.141-5.271 5.585s2.021 5.583 5.271 5.583c3.267 0 5.295-2.139 5.295-5.583s-2.03-5.585-5.295-5.585zm.019 9.402c-1.797 0-3.004-1.542-3.004-3.838 0-2.308 1.207-3.856 3.004-3.856 1.826 0 3.006 1.515 3.006 3.856 0 2.332-1.178 3.838-3.006 3.838zm9.268-7.422V7.54h-1.979v10.67h2.164v-5.356c0-2.245.938-3.482 2.65-3.482.246 0 .485.037.772.12l.146.04.067-2.106-.927-.071c-1.249-.002-2.26.676-2.893 1.914z" fill="#589442"/><path d="M48.901 7.539h-2.048V18.21h2.164V7.539h-.116zm-2.258-3.127a1.29 1.29 0 0 0 1.287 1.286c.71 0 1.287-.576 1.287-1.286a1.29 1.29 0 0 0-1.287-1.288 1.29 1.29 0 0 0-1.287 1.288z"/><path fill="#abc99f" d="M132.578 7.067c.355.359.541.837.541 1.351 0 .537-.201 1.018-.57 1.372-.385.366-.863.562-1.361.562-.521 0-1-.205-1.373-.59-.356-.369-.557-.841-.557-1.345 0-.514.205-1.012.588-1.39a1.88 1.88 0 0 1 1.342-.544c.533 0 1.019.202 1.39.584zm-2.492.212c-.312.312-.479.714-.479 1.139 0 .414.154.794.453 1.098.299.312.696.481 1.121.481.414 0 .811-.159 1.118-.457.302-.29.468-.688.468-1.123 0-.425-.154-.811-.447-1.107-.307-.312-.697-.477-1.131-.477s-.804.153-1.103.446zm1.137.036c.605 0 .916.219.916.616 0 .273-.162.485-.451.572l.476.931h-.644l-.397-.84h-.168v.84h-.584v-2.12l.852.001h0zm-.272.934h.203c.26 0 .385-.091.385-.273 0-.208-.131-.293-.416-.293h-.172v.566h0z"/></svg>