<svg xmlns="http://www.w3.org/2000/svg" width="100" height="100" xmlns:v="https://vecta.io/nano"><path d="M10 10v20h33.334V10H10zm26.666 13.334h-20v-6.667h20v6.667zM70 30h20v-3.333l-6.667-3.333C83.333 15.971 77.363 10 70 10s-13.333 5.971-13.333 13.334V50H50v3.334c0 12.418 8.503 22.828 20 25.791V90h6.667V80H90V50H63.333V23.334c0-3.682 2.982-6.667 6.667-6.667a6.67 6.67 0 0 1 6.667 6.667L70 26.667V30zM39.064 56.668c2.646-3.543 4.27-8.204 4.27-13.334H30v-6.667h-6.666v6.667H10c0 5.13 1.623 9.791 4.27 13.334h24.794zM36.666 80v-6.666h6.668v-10H10V90h33.334V80z"/></svg>