<svg xmlns="http://www.w3.org/2000/svg" xmlns:xlink="http://www.w3.org/1999/xlink" width="64" height="64" xmlns:v="https://vecta.io/nano"><use xlink:href="#A"/><use xlink:href="#A" x="18"/><path d="M6.9 53.22a.87.87 0 0 0-.152.139c-.042.049-.073.1-.104.155a.92.92 0 0 0-.08.171.96.96 0 0 0-.04.2c-.005.039-.024.074-.024.114v3a1 1 0 0 0 1 1h1.004v2.007a1 1 0 0 0 1 1h.996V63a1 1 0 0 0 1 1h10a1 1 0 0 0 1-1v-1.994h19V63a1 1 0 0 0 1 1h10a1 1 0 0 0 1-1v-1.994h1a1 1 0 0 0 1-1v-2.007h1a1 1 0 0 0 1-1v-3c0-.041-.019-.075-.023-.114a.96.96 0 0 0-.12-.372.99.99 0 0 0-.104-.154.91.91 0 0 0-.152-.139c-.03-.024-.051-.058-.085-.078l-1.516-.909V1a1 1 0 0 0-1-1H9.504A1 1 0 0 0 8.5 1l.004 51.231-1.519.91c-.034.021-.053.054-.085.079zm34.062-3.219a6.51 6.51 0 0 1-6.462-6.498 6.51 6.51 0 0 1 6.5-6.5c3.14 0 5.766 2.238 6.369 5.202.086.427.131.858.131 1.298a6.51 6.51 0 0 1-6.462 6.498h-.076zM41 29.003c-2.084 0-3.992.757-5.472 2.006 1.156-1.805 3.174-3.006 5.472-3.006s4.315 1.201 5.472 3.006c-1.48-1.249-3.388-2.006-5.472-2.006zm5.472 5.006c-1.479-1.249-3.388-2.006-5.472-2.006s-3.992.757-5.472 2.006c1.156-1.805 3.174-3.006 5.472-3.006s4.315 1.201 5.472 3.006zM41 34.003c2.298 0 4.315 1.201 5.472 3.006-1.479-1.249-3.388-2.006-5.472-2.006s-3.992.757-5.472 2.006c1.157-1.805 3.174-3.006 5.472-3.006zm0-8c-2.083 0-3.99.756-5.471 2.005 1.156-1.804 3.174-3.004 5.471-3.004s4.314 1.2 5.471 3.004c-1.481-1.249-3.388-2.005-5.471-2.005zm8.5 17.5c0-.511-.053-1.008-.14-1.494.087-.491.14-.995.14-1.506s-.053-1.008-.14-1.494c.087-.491.14-.995.14-1.506s-.053-1.008-.14-1.494c.087-.491.14-.995.14-1.506s-.053-1.008-.14-1.493c.088-.491.14-.996.14-1.506a8.51 8.51 0 0 0-8.5-8.5 8.51 8.51 0 0 0-8.5 8.5c0 .501.053 1.004.141 1.501a8.5 8.5 0 0 0-.141 1.498 8.64 8.64 0 0 0 .141 1.502 8.5 8.5 0 0 0-.141 1.498 8.64 8.64 0 0 0 .141 1.502 8.5 8.5 0 0 0-.141 1.498 8.64 8.64 0 0 0 .141 1.502 8.5 8.5 0 0 0-.141 1.498c0 2.604 1.181 4.938 3.032 6.498h-7.064c1.852-1.561 3.032-3.894 3.032-6.498a8.5 8.5 0 0 0-.141-1.499 8.59 8.59 0 0 0 .141-1.501 8.5 8.5 0 0 0-.141-1.499 8.59 8.59 0 0 0 .141-1.501 8.5 8.5 0 0 0-.141-1.499 8.59 8.59 0 0 0 .141-1.501 8.5 8.5 0 0 0-.141-1.499 8.57 8.57 0 0 0 .141-1.5 8.51 8.51 0 0 0-8.5-8.5 8.51 8.51 0 0 0-8.5 8.5c0 .509.053 1.012.141 1.501a8.5 8.5 0 0 0-.141 1.498c0 .509.053 1.012.141 1.502a8.5 8.5 0 0 0-.141 1.498c0 .509.053 1.012.141 1.502a8.5 8.5 0 0 0-.141 1.498c0 .509.053 1.012.141 1.502a8.5 8.5 0 0 0-.141 1.498c0 2.604 1.181 4.938 3.032 6.498H13.5V22.003h37v27.998h-4.032c1.851-1.561 3.032-3.894 3.032-6.498zm-26.538 6.498a6.51 6.51 0 0 1-6.462-6.498 6.51 6.51 0 0 1 6.5-6.5 6.51 6.51 0 0 1 6.367 5.19l.005.029c.083.414.128.842.128 1.28A6.51 6.51 0 0 1 23.038 50h-.076zM23 29.003c-2.084 0-3.992.757-5.472 2.006 1.156-1.805 3.174-3.006 5.472-3.006s4.315 1.201 5.472 3.006c-1.48-1.249-3.388-2.006-5.472-2.006zm5.472 5.006c-1.479-1.249-3.388-2.006-5.472-2.006s-3.992.757-5.472 2.006c1.156-1.805 3.174-3.006 5.472-3.006s4.315 1.201 5.472 3.006zM23 34.003c2.298 0 4.315 1.201 5.472 3.006-1.479-1.249-3.388-2.006-5.472-2.006s-3.992.757-5.472 2.006c1.157-1.805 3.174-3.006 5.472-3.006zm0-8c-2.083 0-3.99.756-5.471 2.005 1.156-1.804 3.174-3.004 5.471-3.004s4.314 1.2 5.471 3.004c-1.481-1.249-3.388-2.005-5.471-2.005zM18.429 8h4.139l.855 12.003h-5.85L18.429 8zm11.502 0h4.139l.855 12.003h-5.85L29.931 8zm11.504 0h4.139l.855 12.003h-5.85L41.435 8zM50.5 20.003h-2.067l-.932-13.074c-.004-.06-.031-.11-.045-.167s-.022-.122-.048-.177a1.02 1.02 0 0 0-.151-.225c-.021-.024-.035-.054-.058-.076a.98.98 0 0 0-.262-.176c-.02-.01-.035-.023-.056-.032-.079-.032-.166-.042-.255-.052-.041-.004-.078-.024-.122-.024h-6c-.047 0-.088.021-.134.027-.084.01-.166.019-.241.049-.025.01-.045.027-.069.039-.092.046-.179.098-.251.169-.022.022-.036.051-.057.075-.059.07-.115.141-.153.227-.025.054-.032.114-.046.173s-.042.108-.046.17l-.932 13.074h-1.646l-.932-13.074c-.004-.057-.03-.105-.044-.159-.015-.064-.023-.129-.051-.188-.033-.072-.082-.131-.131-.193-.028-.036-.05-.077-.083-.109-.067-.065-.147-.111-.23-.154-.03-.016-.055-.037-.086-.05-.077-.031-.161-.04-.246-.05C35.083 6.02 35.045 6 35 6h-6c-.049 0-.09.021-.137.027-.08.011-.159.019-.232.047-.036.015-.065.039-.1.058-.079.043-.155.086-.22.148-.033.031-.054.071-.082.106-.05.063-.1.123-.133.197-.026.057-.034.119-.05.182-.013.055-.04.104-.044.163l-.932 13.074h-1.645l-.93-13.073c-.004-.061-.031-.112-.046-.169s-.021-.12-.047-.174c-.038-.088-.096-.16-.156-.232-.019-.021-.031-.048-.052-.068a.95.95 0 0 0-.268-.18c-.018-.009-.031-.021-.049-.029-.08-.032-.168-.042-.257-.052-.042-.005-.079-.025-.122-.025h-6c-.047 0-.087.021-.133.026-.085.011-.168.02-.244.05-.022.009-.039.024-.061.034a.97.97 0 0 0-.26.176c-.02.019-.03.043-.049.063-.062.073-.12.147-.159.237-.024.053-.03.111-.046.169s-.041.11-.046.173l-.932 13.074H13.5V5h37v15.003zM12.777 52.001h10.184c.014 0 .026.002.039.002s.025-.002.039-.002h17.922c.014 0 .026.002.039.002s.025-.002.039-.002h10.184l1.665.998H11.112l1.665-.998zM20.5 62h-8v-.994h8V62zm31 0h-8v-.994h8V62zm2-2.994H10.504v-1.007H53.5v1.007zm2-3.007h-47v-1h47v1zM10.5 2h43v49.034l-1-.6V4a1 1 0 0 0-1-1h-39a1 1 0 0 0-1 1v46.435l-.996.598L10.5 2z"/><defs><path id="A" d="M23 39.003c-2.481 0-4.5 2.019-4.5 4.5s2.019 4.5 4.5 4.5 4.5-2.019 4.5-4.5-2.019-4.5-4.5-4.5zm0 7c-1.379 0-2.5-1.121-2.5-2.5s1.121-2.5 2.5-2.5 2.5 1.121 2.5 2.5-1.121 2.5-2.5 2.5z"/></defs></svg>