<svg xmlns="http://www.w3.org/2000/svg" xmlns:xlink="http://www.w3.org/1999/xlink" width="64" height="64" xmlns:v="https://vecta.io/nano"><g fill="#ccd1d9"><path d="M48.001 48.5h6.009v4h-6.009z"/><path d="M48.001 52.5h6.009v4h-6.009zM1 40.5h6v4H1zm56.01 12H63v4h-5.99z"/></g><path fill="#545c66" d="M10 48.5v4 4H7v-4-4-4-4-4-26h3v26 4 4z"/><g fill="#ccd1d9"><path d="M1 52.5h6v4H1zm47.001-8h6.009v4h-6.009zM10 44.5h6v4h-6z"/><path d="M48.001 40.5h6.009v4h-6.009zM10 36.5h6v4h-6zm47.01 4H63v4h-5.99z"/><path d="M48.001 36.5h6.009v4h-6.009zM1 44.5h6v4H1z"/><path d="M1 48.5h6v4H1z"/></g><path fill="#545c66" d="M57 36.5v4 4 4 4 4h-2.99v-4-4-4-4-4-26H57h.01v26z"/><path fill="#656d78" d="M7 7.5h50v3h-2.99H39 25 10 7z"/><g fill="#ccd1d9"><path d="M10 40.5h6v4h-6zm47.01 8H63v4h-5.99zM10 48.5h6v4h-6z"/><path d="M57.01 44.5H63v4h-5.99zm0-8H63v4h-5.99zM10 52.5h6v4h-6zm-9-16h6v4H1z"/></g><path d="M10.001 57.498H7.002a1 1 0 0 1-1-1V10.5a1 1 0 0 1 1-1h2.999a1 1 0 0 1 1 1v45.998a1 1 0 0 1-1 1zm-1.999-2h.999V11.5h-.999v43.998z"/><use xlink:href="#A"/><use xlink:href="#B"/><use xlink:href="#A" y="-4"/><use xlink:href="#B" y="-4"/><use xlink:href="#A" y="-8"/><use xlink:href="#B" y="-8"/><use xlink:href="#A" y="-12"/><use xlink:href="#B" y="-12"/><use xlink:href="#A" y="-16"/><use xlink:href="#B" y="-16"/><path d="M57.003 57.498h-2.999a1 1 0 0 1-1-1V10.5a1 1 0 0 1 1-1h2.999a1 1 0 0 1 1 1v45.998a1 1 0 0 1-1 1zm-1.999-2h.999V11.5h-.999v43.998z"/><use xlink:href="#C"/><use xlink:href="#D"/><use xlink:href="#C" y="-4"/><use xlink:href="#D" y="-4"/><use xlink:href="#C" y="-8"/><use xlink:href="#D" y="-8"/><use xlink:href="#C" y="-12"/><use xlink:href="#D" y="-12"/><use xlink:href="#C" y="-16"/><use xlink:href="#D" y="-16"/><path d="M56.999 11.5H7.002a1 1 0 0 1-1-1V7.502a1 1 0 0 1 1-1h49.997a1 1 0 0 1 1 1V10.5a1 1 0 0 1-1 1zm-48.997-2h47.997v-.998H8.002V9.5z"/><use xlink:href="#G"/><use xlink:href="#E"/><use xlink:href="#F"/><path d="M28.998 26.494h-8a1 1 0 1 1 0-2h8a1 1 0 1 1 0 2z"/><use xlink:href="#F" x="8"/><use xlink:href="#G" x="14.001"/><use xlink:href="#E" x="14.001"/><use xlink:href="#F" x="14.001"/><path d="M42.999 26.494h-8a1 1 0 1 1 0-2h8a1 1 0 1 1 0 2z"/><use xlink:href="#F" x="22.001"/><path d="M63.002 57.498H.998a1 1 0 1 1 0-2h62.004a1 1 0 1 1 0 2z"/><defs><path id="A" d="M7.002 57.498H.998a1 1 0 0 1-1-1v-4a1 1 0 0 1 1-1h6.004a1 1 0 0 1 1 1v4a1 1 0 0 1-1 1zm-5.004-2h4.004v-2H1.998v2z"/><path id="B" d="M16 57.498H9.996a1 1 0 0 1-1-1v-4a1 1 0 0 1 1-1H16a1 1 0 0 1 1 1v4a1 1 0 0 1-1 1zm-5.004-2H15v-2h-4.004v2z"/><path id="C" d="M54.004 57.498H48a1 1 0 0 1-1-1v-4a1 1 0 0 1 1-1h6.004a1 1 0 0 1 1 1v4a1 1 0 0 1-1 1zm-5.004-2h4.004v-2H49v2z"/><path id="D" d="M63.002 57.498h-6.004a1 1 0 0 1-1-1v-4a1 1 0 0 1 1-1h6.004a1 1 0 0 1 1 1v4a1 1 0 0 1-1 1zm-5.004-2h4.004v-2h-4.004v2z"/><path id="E" d="M28.998 24.494a1 1 0 0 1-1-1c0-1.654-1.346-3-3-3s-3 1.346-3 3a1 1 0 1 1-2 0c0-2.757 2.243-5 5-5s5 2.243 5 5a1 1 0 0 1-1 1z"/><path id="F" d="M20.998 26.494a1 1 0 0 1-1-1v-2a1 1 0 1 1 2 0v2a1 1 0 0 1-1 1z"/><path id="G" d="M24.998 20.494a1 1 0 0 1-1-1V10.5a1 1 0 1 1 2 0v8.994a1 1 0 0 1-1 1z"/></defs></svg>