<svg xmlns="http://www.w3.org/2000/svg" viewBox="0 0 256 256" xmlns:v="https://vecta.io/nano"><circle cx="128" cy="128" r="119.4" fill="#382b73"/><circle cx="128" cy="128" r="103.299" fill="#473080"/><path d="M181.792 147.225A55.323 55.323 0 0 0 183.168 135c0-4.313-.511-8.505-1.447-12.533l13.426-11.845a5.657 5.657 0 0 0 1.157-7.072l-7.134-12.356a5.658 5.658 0 0 0-6.703-2.534l-17.112 5.753a55.102 55.102 0 0 0-21.2-12.172l-3.475-17.203a5.658 5.658 0 0 0-5.546-4.538h-14.268a5.658 5.658 0 0 0-5.546 4.538l-3.475 17.203a55.09 55.09 0 0 0-21.2 12.172L73.533 88.66a5.658 5.658 0 0 0-6.703 2.534l-7.134 12.356a5.657 5.657 0 0 0 1.157 7.072l13.426 11.845A55.298 55.298 0 0 0 72.832 135c0 4.203.486 8.291 1.376 12.225l-12.919 11.397a5.657 5.657 0 0 0-1.157 7.072l7.134 12.356a5.659 5.659 0 0 0 6.703 2.534l16.204-5.448a55.099 55.099 0 0 0 21.672 12.622l3.475 17.203a5.658 5.658 0 0 0 5.546 4.538h14.268a5.658 5.658 0 0 0 5.546-4.538l3.475-17.203a55.099 55.099 0 0 0 21.672-12.622l16.204 5.448a5.658 5.658 0 0 0 6.703-2.534l7.134-12.356a5.657 5.657 0 0 0-1.157-7.072l-12.919-11.397z" fill="#382b73"/><path d="M128 72.832c-30.468 0-55.168 24.7-55.168 55.168s24.7 55.168 55.168 55.168 55.168-24.699 55.168-55.168-24.7-55.168-55.168-55.168z" fill="#1caee4"/><path d="M181.735 115.455l13.412-11.832a5.657 5.657 0 0 0 1.157-7.072l-7.134-12.356a5.658 5.658 0 0 0-6.703-2.534l-17.104 5.75c8.004 7.371 13.822 17.08 16.372 28.044zM60.853 103.623l13.412 11.832c2.55-10.964 8.368-20.673 16.372-28.044l-17.104-5.75a5.658 5.658 0 0 0-6.703 2.534L59.696 96.55a5.66 5.66 0 0 0 1.157 7.073zM128 72.832c5.62 0 11.044.841 16.153 2.403l-3.473-17.197a5.658 5.658 0 0 0-5.546-4.538h-14.268a5.658 5.658 0 0 0-5.546 4.538l-3.473 17.197A55.164 55.164 0 0 1 128 72.832zm66.711 78.79l-12.905-11.385c-2.462 10.869-8.132 20.52-15.963 27.905l16.188 5.442a5.658 5.658 0 0 0 6.703-2.534l7.134-12.356a5.66 5.66 0 0 0-1.157-7.072zM74.195 140.237L61.29 151.622a5.657 5.657 0 0 0-1.157 7.072l7.134 12.356a5.659 5.659 0 0 0 6.703 2.534l16.188-5.442c-7.832-7.385-13.502-17.036-15.963-27.905zM128 183.168c-5.62 0-11.044-.841-16.153-2.403l3.473 17.197a5.658 5.658 0 0 0 5.546 4.538h14.268a5.658 5.658 0 0 0 5.546-4.538l3.473-17.197A55.164 55.164 0 0 1 128 183.168z" fill="#27c1e6"/><path d="M128 81.596c-25.629 0-46.404 20.775-46.404 46.404s20.775 46.404 46.404 46.404 46.404-20.775 46.404-46.404S153.629 81.596 128 81.596z" fill="#136da0"/><path d="M144.25 128c0 3.835-1.329 7.36-3.551 10.14-.644.805-.605 1.954.123 2.683l12.235 12.235a2.011 2.011 0 0 0 2.921-.088 37.36 37.36 0 0 0 9.521-24.97c0-10.355-4.197-19.73-10.983-26.517l-15.026 15.026A16.2 16.2 0 0 1 144.25 128z" fill="#ef5a9d"/><path d="M111.75 128c0-4.487 1.819-8.55 4.759-11.491l-15.026-15.026C94.697 108.27 90.5 117.645 90.5 128c0 9.59 3.6 18.339 9.521 24.97a2.011 2.011 0 0 0 2.921.088l12.235-12.235c.729-.729.767-1.878.123-2.683a16.19 16.19 0 0 1-3.55-10.14z" fill="#27c1e6"/><path d="M128 111.75a16.2 16.2 0 0 1 11.49 4.759l15.026-15.026C147.73 94.697 138.355 90.5 128 90.5s-19.731 4.197-26.517 10.983l15.026 15.026A16.204 16.204 0 0 1 128 111.75z" fill="#fede3a"/><path d="M144.115 126c.081.657.135 1.321.135 2a16.17 16.17 0 0 1-1.159 6h11.425a4 4 0 0 0 0-8h-10.401z" fill="#e43d91"/><path d="M154.517 132H128a4 4 0 0 1 0-8h26.517a4 4 0 0 1 0 8z" fill="#fff"/><g fill="#d1d3d4"><path d="M154.517 129.375H128a3.987 3.987 0 0 1-3.761-2.688A3.97 3.97 0 0 0 124 128a4 4 0 0 0 4 4h26.517a4 4 0 0 0 4-4c0-.462-.094-.899-.238-1.313-.546 1.561-2.016 2.688-3.762 2.688z"/><circle cx="128" cy="128" r="7.313"/></g><circle cx="128" cy="128" r="4.5" fill="#fff"/></svg>