<svg xmlns="http://www.w3.org/2000/svg" width="2048" height="2048" shape-rendering="geometricPrecision" image-rendering="optimizeQuality" fill-rule="evenodd" xmlns:v="https://vecta.io/nano"><defs><clipPath id="A"><path d="M1024-.001c565.539 0 1024 458.462 1024 1024s-458.462 1024-1024 1024S0 1589.537 0 1023.999s458.462-1024 1024-1024z"/></clipPath></defs><path d="M1024-.001c565.539 0 1024 458.462 1024 1024s-458.462 1024-1024 1024S0 1589.537 0 1023.999s458.462-1024 1024-1024z" fill="#ce93d8"/><g clip-path="url(#A)" fill="#ba68c8"><path d="M1345.41 640.415L2481.29 1776.3v56.08L1345.41 696.501zm229.81 64.464L2711.1 1840.76l1.33 1.77 1.15 1.9.97 2.01.77 2.12.57 2.2.35 2.29.12 2.35L1580.48 719.521l-.12-2.354-.35-2.285-.57-2.207-.77-2.114-.97-2.012-1.15-1.898z"/><path d="M1580.48 719.521L2716.36 1855.4v509.17L1580.48 1228.68z"/><path d="M1580.48 1228.68l1135.88 1135.89v152.88L1580.48 1381.57z"/><path d="M1580.48 1381.57l1135.88 1135.88-.12 2.36-.35 2.28-.57 2.21-.77 2.11-.97 2.02-1.15 1.89-1.33 1.78-1.48 1.63-1.64 1.49-1.77 1.32-1.9 1.15-2.01.97-2.11.78-2.21.57-2.29.34-2.35.12-1135.88-1135.88 2.35-.12 2.29-.35 2.2-.56 2.12-.78 2.01-.97 1.9-1.15 1.77-1.33 1.64-1.48 1.48-1.64 1.33-1.77 1.15-1.9.97-2.01.77-2.11.57-2.21.35-2.29z"/><path d="M1557.46 1404.59l1135.88 1135.88h-474.29L1083.17 1404.59z"/><path d="M1083.17 1404.59l1135.88 1135.88v106.82L1083.17 1511.4zm166.52 135.34l1135.88 1135.88 1.53 1.73 1.11 1.78.67 1.83.23 1.88-1135.88-1135.89-.23-1.87-.68-1.83-1.1-1.78zm-284.856-135.34L2100.72 2540.47h-474.3L490.542 1404.59z"/><path d="M1253.23 1547.14l1135.88 1135.89-1.32 4.46-3.83 4.17-6.19 3.89-8.36 3.6-10.38 3.31-12.23 3.03-13.91 2.73-15.42 2.45-16.76 2.16-17.93 1.87-18.95 1.58-19.78 1.3-20.45 1.01-20.96.72-21.3.43-21.46.14-21.46-.14-21.29-.43-20.96-.72-20.46-1.01-19.78-1.3-18.94-1.58-17.94-1.87-16.76-2.16-15.42-2.45-13.91-2.73-12.22-3.03-10.38-3.31-8.37-3.6-6.19-3.89L799.923 1555.78l6.185 3.89 8.367 3.6 10.38 3.31 12.228 3.02 13.907 2.74 15.418 2.45 16.761 2.16 17.936 1.87 18.944 1.58 19.783 1.3 20.455 1 20.957.72 21.296.44 21.46.14 21.46-.14 21.3-.44 20.95-.72 20.46-1 19.78-1.3 18.95-1.58 17.93-1.87 16.76-2.16 15.42-2.45 13.91-2.74 12.23-3.02 10.38-3.31 8.36-3.6 6.19-3.89 3.83-4.17zm-762.688-142.55L1626.42 2540.47l-2.35-.12-2.29-.34-2.2-.57-2.12-.78-2.01-.97-1.9-1.15-1.77-1.32L475.898 1399.33l1.773 1.33 1.898 1.15 2.012.97 2.115.78 2.206.56 2.286.35z"/><path d="M721.684 463.999h447.31l176.415 176.417v56.086h212.049c12.713 0 23.02 10.306 23.02 23.02v662.05c0 12.712-10.307 23.02-23.02 23.02h-474.292v106.813c91.83 3.528 170.06 15.442 170.06 35.74 0 49.14-458.451 49.14-458.451 0 0-20.298 78.23-32.212 170.059-35.74v-106.814H490.542c-12.713 0-23.02-10.307-23.02-23.02V719.523c0-12.714 10.307-23.02 23.02-23.02h211.184V483.959c0-10.977 8.982-19.96 19.958-19.96z"/></g><g fill-rule="nonzero"><path d="M794.775 1547.14c0 49.14 458.451 49.14 458.451 0s-458.451-49.139-458.451 0z" fill="#263238"/><path d="M1083.17 1381.57c0-12.713-26.491-23.02-59.166-23.02s-59.166 10.307-59.166 23.02v156.03c0 12.713 26.49 23.02 59.166 23.02s59.166-10.307 59.166-23.02v-156.03z" fill="#37474f"/></g><path d="M490.542 696.501h1066.92c12.713 0 23.02 10.306 23.02 23.02v662.05c0 12.712-10.307 23.02-23.02 23.02H490.542c-12.713 0-23.02-10.308-23.02-23.02V719.52c0-12.714 10.307-23.02 23.02-23.02z" fill="#78909c"/><path d="M1580.48 1228.68v152.888c0 12.712-10.306 23.02-23.02 23.02H490.54c-12.713 0-23.02-10.308-23.02-23.02V1228.68h1112.96z" fill="#546e7a"/><path fill="#80d8ff" d="M1534.44 742.542H513.561v468.888H1534.44z"/><g fill-rule="nonzero"><path fill="#ef5350" d="M1505.26 1302.05v29.18h29.18v-29.18z"/><path fill="#ffab40" d="M1403.05 1331.23h29.18v-29.18h-29.18z"/><path fill="#7cb342" d="M1454.08 1302.05v29.18h29.18v-29.18z"/></g><circle cx="1024" cy="1316.64" fill="#00b8d4" r="28.142"/><circle cx="1024" cy="1316.64" fill="#37474f" r="23.937"/><path d="M721.684 463.999h447.31l176.415 176.417v571.079H701.725V483.959c0-10.977 8.982-19.96 19.958-19.96z" fill="#eed9a9"/><path d="M1345.41 640.415h-156.457c-10.977 0-19.958-8.98-19.958-19.958V463.999l176.415 176.415z" fill="#ecc46d"/><path d="M777.82 749.243h457.685v17.464H777.82zm0 37.423h345.064v17.464H777.82zm0 125.263h457.685v17.464H777.82zm0 37.424h345.064v17.464H777.82zm0 122.687h457.685v17.464H777.82zm0 37.43h345.064v17.464H777.82zm0-539.972h259.048v17.464H777.82zm0 37.423h195.306v17.464H777.82z" fill="#8d6e63"/><g fill-rule="nonzero"><path d="M1024.48 1053.78l272.935-273.474 71.858 72.984-272.606 273.144.001.001a13.722 13.722 0 01-5.924 3.499l-82.991 29.559.008.024c-7.175 2.554-15.064-1.19-17.62-8.365a13.748 13.748 0 01.538-10.547l30.444-81.636-.048-.025a13.721 13.721 0 013.404-5.164z" fill="#3e2723"/><path d="M1092.29 1129.64l-17.838-2.265 5.172-22.69-23.994 2.828 5.068-22.468-22.875 5.552 5.956-23.612-19.567 9.749-3.035-18.207c-.44.72-.815 1.49-1.12 2.309l.045.024-30.664 81.717a13.418 13.418 0 00-.523 10.295c2.495 7.005 10.197 10.66 17.2 8.165l-.007-.02 81.017-28.858c1.14-.328 4.13-1.885 5.165-2.519z" fill="#5d4037"/><path d="M1290.52 787.742l64.226-64.226-.001-.001c5.386-5.386 14.118-5.386 19.503 0l.077.078 52.843 52.842h.001c5.385 5.385 5.385 14.118 0 19.503l-.078.077-64.713 64.712-71.858-72.985z" fill="#dd2c00"/></g><path d="M997.302 1152.15c4.228 4.64 10.292 4.818 4.018 11.742s-14.979 9.26-19.44 5.216-3.174-12.473 3.28-19.859 7.915-1.738 12.142 2.9z" fill="#263238"/><path d="M1271.57 880.991a4.311 4.311 0 000-6.094 4.311 4.311 0 00-6.094 0L1130.8 1009.572a4.311 4.311 0 000 6.094 4.311 4.311 0 006.094 0l134.675-134.675z" fill="#5d4037" fill-rule="nonzero"/></svg>