<svg xmlns="http://www.w3.org/2000/svg" width="353" height="512" shape-rendering="geometricPrecision" image-rendering="optimizeQuality" fill-rule="evenodd" viewBox="0 0 353 512.05" xmlns:v="https://vecta.io/nano"><path d="M175.64 511.54c-6.92-6.95-9.76-17.68-10.94-31.71l-60.66 13.67c-3.36 1.32-4.75-.17-5.06-3.21l1.16-14.59c.56-2.32 1.7-4.2 3.77-5.38l53.61-38.1-3.17-56.79L4.81 409.35c-3.58.93-5.28-.39-4.7-4.44l2.6-23.14 148.96-78.51-2.37-54.35c1.56-21.49 8.31-37.16 19-43.64 5.92-3.57 9-3.83 14.9-.83 11.56 5.88 18.87 21.99 20.5 44.47l-2.37 54.35 148.96 78.51 2.6 23.14c.58 4.05-1.12 5.37-4.7 4.44l-149.53-33.92-3.18 56.79 53.61 38.1c2.07 1.18 3.22 3.06 3.77 5.38l1.16 14.59c-.31 3.04-1.7 4.53-5.05 3.21l-60.67-13.67c-1.18 14.08-4.03 24.82-11.02 31.78-.65.65-1.02.54-1.64-.07zM3.32 355.66L95.01 0h18.34L35.6 338.64 3.32 355.66zM182.62 0l.85 32.88h-16.25L168.62 0h14zm-21.07 135.19h27.57l2.71 47.85h-.38c-5.75-2.64-10.94-3.79-17.03-3.43-4.74.29-8.81 1.43-13.02 3.43h-2.05l2.2-47.85zm5.27-81.84h17.7l3.07 54.63H163.6l3.22-54.63zM259.74 0l88.03 354.65-30.7-16.18L240.07 0h19.67z"/></svg>