<svg xmlns="http://www.w3.org/2000/svg" viewBox="0 0 128 128" xmlns:v="https://vecta.io/nano"><path d="M43.528 58.681l-.19.009a1.989 1.989 0 0 1-.5-.069H32.005l-1.272.06a14.489 14.489 0 0 0-9.13 4.375h84.878a14.5 14.5 0 0 0-9.17-4.374l-1.316-.061H44.8l-1.272.06zM82.939 36.6a1.488 1.488 0 0 0-.3-.925 1.669 1.669 0 0 0-1.239-.695 1.639 1.639 0 0 0-1.289.484l-.178.178a3.451 3.451 0 0 1-2.6.985 197.018 197.018 0 0 0-26.641 0 3.474 3.474 0 0 1-2.59-.955l-.125-.125a1.761 1.761 0 0 0-2.36-.158 1.673 1.673 0 0 0-.075 2.429l.092.092a3.372 3.372 0 0 1 .965 2.773 56.375 56.375 0 0 0 0 13.243 3.619 3.619 0 0 1 .008.7H81.4a3.5 3.5 0 0 1 .008-.678 56.381 56.381 0 0 0 0-13.247 3.426 3.426 0 0 1 .961-2.787 1.85 1.85 0 0 0 .57-1.314zM30.372 54.7l1.634-.076h10.218a5.79 5.79 0 0 1 .373-.5 60.3 60.3 0 0 1 0-13.6 5.674 5.674 0 0 1 .384-8.134 5.75 5.75 0 0 1 7.727.231 200.793 200.793 0 0 1 26.6 0 5.656 5.656 0 0 1 8.522.644 5.46 5.46 0 0 1 1.109 3.335 5.862 5.862 0 0 1-1.521 3.916 60.31 60.31 0 0 1 0 13.589 5.689 5.689 0 0 1 .4.519h10.177l1.68.078a18.464 18.464 0 0 1 12.894 6.95V44.528a19.366 19.366 0 0 0-19.344-19.344h-54.45a19.366 19.366 0 0 0-19.343 19.344v17.236a18.533 18.533 0 0 1 12.94-7.064zM19.581 91.73h5.17v11.086h-5.17zm90.987-18.524a14.652 14.652 0 0 0-1.352-6.15H18.827a14.386 14.386 0 0 0-1.4 6.15v5.349h93.137zm2 9.353H15.432h-.231v5.171h2.38 9.17 74.498 9.17 2.38v-5.171h-.231zm-9.319 9.171h5.17v11.086h-5.17z"/></svg>