<svg xmlns="http://www.w3.org/2000/svg" viewBox="0 0 25 25" xmlns:v="https://vecta.io/nano"><path d="M23 14.49v-.08-2.91a.5.5 0 0 0-.5-.5h-2.77a3.26 3.26 0 0 1-.59-1h3.36a.5.5 0 0 0 .5-.5v-7a.5.5 0 0 0-.5-.5h-10a.5.5 0 0 0-.5.5v7a.5.5 0 0 0 .5.5h3.36a3.26 3.26 0 0 1-.59 1H8V7.5a.5.5 0 0 0-.5-.5H6v-.5a.5.5 0 0 0-.5-.5h-2a.5.5 0 0 0-.5.5V11h-.5a.5.5 0 0 0-.5.5v2.91.08.07 8.94a.5.5 0 0 0 1 0V23h6.5a.5.5 0 0 0 .5-.5v-3.93-.07-.07V15h12v8.5a.5.5 0 0 0 1 0v-8.94-.07zM22 3v4h-9V3zm-9 5h9v1h-9zm3.89 2h1.22a4.34 4.34 0 0 0 .39 1h-2a4.34 4.34 0 0 0 .39-1zM7 8v3H6V8zM4 7h1v4H4zm5 11H3v-3h6zm-6 4v-3h6v3zm0-8v-2h19v2z" fill="#231f20"/></svg>