<svg xmlns="http://www.w3.org/2000/svg" width="512" height="512" viewBox="0 0 512 512" style="" data-svgdocument="" id="_kWm6UZxQVOd95CDlSpzVj" class="fl-svgdocument" x="0" y="0" overflow="hidden" data-bbox="62.95055115222931 192.88040122389793 379.5900350300799 134.93534110739415">
  <path id="_l7JXC4mfbPmU9uCZw2kUU" d="M176.742 88.385c0 1.841-1.492 3.334-3.334 3.334H3.334C1.493 91.719 0 90.225 0 88.385l0 0  c0-1.841 1.493-3.333 3.333-3.333h170.074C175.25 85.051 176.742 86.544 176.742 88.385L176.742 88.385z" stroke="none" fill="#000000" transform="matrix(0.823340654373169, 0, 0, 0.9076820015907288, 294.62176513671875, 120.9095687866211)" stroke-width="1" />
  <path id="_17ULumKG_GsLYiIVusBqo" d="M176.742 88.385c0 1.841-1.492 3.334-3.334 3.334H3.334C1.493 91.719 0 90.225 0 88.385l0 0  c0-1.841 1.493-3.333 3.333-3.333h170.074C175.25 85.051 176.742 86.544 176.742 88.385L176.742 88.385z" stroke="none" fill="#000000" transform="matrix(0.823340654373169, 0, 0, 0.9076820015907288, 64.59982299804688, 120.9095687866211)" stroke-width="1" />
  <path id="_a1l0XuLaDFEgBnJaJzGek" d="M176.742 88.385c0 1.841-1.492 3.334-3.334 3.334H3.334C1.493 91.719 0 90.225 0 88.385l0 0  c0-1.841 1.493-3.333 3.333-3.333h170.074C175.25 85.051 176.742 86.544 176.742 88.385L176.742 88.385z" stroke="none" fill="#000000" transform="matrix(0.6621530055999756, 0, 0, 0.9076820015907288, 63.2816276550293, 239.79730224609375)" stroke-width="1" />
  <path id="_lupcRllOUv6OOD_7Mk8QK" d="M176.742 88.385c0 1.841-1.492 3.334-3.334 3.334H3.334C1.493 91.719 0 90.225 0 88.385l0 0  c0-1.841 1.493-3.333 3.333-3.333h170.074C175.25 85.051 176.742 86.544 176.742 88.385L176.742 88.385z" stroke="none" fill="#000000" transform="matrix(0.6621530055999756, 0, 0, 0.9076820015907288, 325.17926025390625, 239.79730224609375)" stroke-width="1" />
  <path text="THE" text-anchor="middle" font-size="100" letter-spacing="0" side="left" offset="0.5" dx="0" dy="0" space="preserve" href="" font-family="Libre Baskerville" font-scale="contain" transform="matrix(0.2522487938404083, 0, 0, 0.2522487938404083, 251.98638916015625, 212.30355834960938)" x="0" y="0" fill="#000000" data-fl-textpath="" id="_5U4XOKv-vNlmCS2hAGYrq" d="M-45.10000000000002-77L-44.10000000000002-57.9L-48.20000000000002-57.9Q-48.500000000000014-62.2 -49.60000000000002-65.1Q-50.70000000000002-68 -52.750000000000014-69.65Q-54.80000000000001-71.3 -57.90000000000002-72Q-61.000000000000014-72.7 -65.30000000000001-72.7L-65.30000000000001-72.7Q-69.00000000000001-72.7 -71.25000000000001-72.55Q-73.50000000000001-72.4 -74.70000000000002-72Q-75.90000000000002-71.6 -76.25000000000001-71.05Q-76.60000000000002-70.5 -76.60000000000002-69.6L-76.60000000000002-69.6L-76.60000000000002-16.1Q-76.60000000000002-12.9 -76.15000000000002-10.6Q-75.70000000000002-8.3 -74.35000000000002-6.85Q-73.00000000000001-5.4 -70.45000000000002-4.65Q-67.90000000000002-3.9 -63.70000000000002-3.8L-63.70000000000002-3.8L-63.70000000000002 0L-101.50000000000001 0L-101.50000000000001-3.8Q-97.30000000000001-3.9 -94.70000000000002-4.65Q-92.10000000000002-5.4 -90.75000000000001-6.85Q-89.40000000000002-8.3 -88.95000000000002-10.6Q-88.50000000000001-12.9 -88.50000000000001-16.1L-88.50000000000001-16.1L-88.50000000000001-69.6Q-88.50000000000001-70.5 -88.85000000000002-71.05Q-89.20000000000002-71.6 -90.25000000000001-72Q-91.30000000000001-72.4 -93.20000000000002-72.55Q-95.10000000000002-72.7 -98.30000000000001-72.7L-98.30000000000001-72.7Q-102.20000000000002-72.7 -105.55000000000001-72.4Q-108.90000000000002-72.1 -111.35000000000002-70.65Q-113.80000000000001-69.2 -115.30000000000001-66.2Q-116.80000000000001-63.2 -116.90000000000002-57.9L-116.90000000000002-57.9L-120.60000000000002-57.9L-120.60000000000002-77L-45.10000000000002-77ZM 34.599999999999994-61.1L 34.599999999999994-15.9Q 34.599999999999994-12.1  35-9.75Q 35.39999999999999-7.4  36.55-6.15Q 37.69999999999999-4.9  39.849999999999994-4.4Q 42-3.9  45.5-3.8L 45.5-3.8L 45.5 0L 13.099999999999994 0L 13.099999999999994-3.8Q 16.599999999999994-3.9  18.749999999999993-4.4Q 20.89999999999999-4.9  22.099999999999994-6.1Q 23.299999999999997-7.3  23.69999999999999-9.5Q 24.099999999999994-11.7  24.099999999999994-15.2L 24.099999999999994-15.2L 24.099999999999994-36.9L-16.400000000000006-36.9L-16.400000000000006-15.9Q-16.400000000000006-12.1 -16.000000000000007-9.75Q-15.600000000000005-7.4 -14.450000000000006-6.15Q-13.300000000000004-4.9 -11.150000000000006-4.4Q-9.000000000000007-3.9 -5.500000000000007-3.8L-5.500000000000007-3.8L-5.500000000000007 0L-37.900000000000006 0L-37.900000000000006-3.8Q-34.400000000000006-3.9 -32.25000000000001-4.4Q-30.100000000000005-4.9 -28.900000000000006-6.1Q-27.700000000000006-7.3 -27.300000000000004-9.5Q-26.900000000000006-11.7 -26.900000000000006-15.2L-26.900000000000006-15.2L-26.900000000000006-61.8Q-26.900000000000006-65.3 -27.250000000000007-67.45Q-27.600000000000005-69.6 -28.650000000000006-70.85Q-29.700000000000006-72.1 -31.700000000000006-72.55Q-33.7-73 -36.900000000000006-73.2L-36.900000000000006-73.2L-36.900000000000006-77L-6.500000000000007-77L-6.500000000000007-73.2Q-9.700000000000003-73.1 -11.650000000000006-72.6Q-13.600000000000005-72.1 -14.650000000000006-70.8Q-15.700000000000006-69.5 -16.050000000000004-67.2Q-16.400000000000006-64.9 -16.400000000000006-61.1L-16.400000000000006-61.1L-16.400000000000006-41.9L 24.099999999999994-41.9L 24.099999999999994-61.8Q 24.099999999999994-65.3  23.75-67.45Q 23.39999999999999-69.6  22.349999999999994-70.85Q 21.299999999999997-72.1  19.299999999999997-72.55Q 17.299999999999997-73  14.099999999999994-73.2L 14.099999999999994-73.2L 14.099999999999994-77L 44.5-77L 44.5-73.2Q 41.3-73.1  39.349999999999994-72.6Q 37.39999999999999-72.1  36.349999999999994-70.8Q 35.3-69.5  34.94999999999999-67.2Q 34.599999999999994-64.9  34.599999999999994-61.1L 34.599999999999994-61.1ZM 76.1-71L 76.1-42.3Q 81.5-42.3  85.15-42.95Q 88.80000000000001-43.6  90.95-45Q 93.1-46.4  94.05000000000001-48.6Q 95-50.8  95-53.8L 95-53.8L 98.5-53.8L 98.5-26.5L 95-26.5Q 95-29.5  94.15-31.7Q 93.30000000000001-33.9  91.15-35.35Q 89-36.8  85.35-37.55Q 81.7-38.3  76.1-38.3L 76.1-38.3L 76.1-15.7Q 76.1-12.4  76.9-10.25Q 77.7-8.1  79.65-6.75Q 81.6-5.4  84.80000000000001-4.85Q 88-4.3  92.7-4.3L 92.7-4.3Q 98-4.3  101.7-5.05Q 105.4-5.8  107.9-7.6Q 110.4-9.4  111.9-12.35Q 113.4-15.3  114.4-19.7L 114.4-19.7L 118.19999999999999-19.7L 116.69999999999999 0L 54.6 0L 54.6-3.8Q 58.1-3.9  60.25-4.4Q 62.400000000000006-4.9  63.6-6.1Q 64.8-7.3  65.2-9.5Q 65.6-11.7  65.6-15.2L 65.6-15.2L 65.6-61.8Q 65.6-65.3  65.25-67.45Q 64.9-69.6  63.85-70.85Q 62.8-72.1  60.8-72.55Q 58.8-73  55.6-73.2L 55.6-73.2L 55.6-77L 113.4-77L 114.30000000000001-59.4L 110.80000000000001-59.4Q 110.2-63.4  108.85-65.95Q 107.5-68.5  105.15-70Q 102.80000000000001-71.5  99.2-72.1Q 95.6-72.7  90.5-72.7L 90.5-72.7L 77.8-72.7Q 76.1-72.7  76.1-71L 76.1-71Z" />
  <path text="Rentals" text-anchor="middle" font-size="100" letter-spacing="0" side="left" offset="0.5" dx="0" dy="0" space="preserve" href="" font-family="Libre Baskerville" font-scale="contain" transform="matrix(0.6353601813316345, 0, 0, 0.6353601813316345, 251.0421600341797, 288.199951171875)" x="0" y="0" fill="#000000" data-fl-textpath="" id="_yt15yf0t55uFk5srp6g5Y" d="M-121.89999999999999-57.7L-121.89999999999999-57.7Q-121.89999999999999-49.7 -126.69999999999999-44.4Q-131.5-39.1 -142-37.3L-142-37.3L-119.89999999999999-10.7Q-117.19999999999999-7.4 -113.94999999999999-5.95Q-110.69999999999999-4.5 -106.19999999999999-3.8L-106.19999999999999-3.8L-106.19999999999999 0L-125.49999999999999 0L-150-31.4Q-151.29999999999998-33.1 -152.45-34.1Q-153.6-35.1 -154.85-35.65Q-156.1-36.2 -157.75-36.35Q-159.39999999999998-36.5 -161.7-36.5L-161.7-36.5L-161.7-15.7Q-161.7-12 -161.25-9.65Q-160.79999999999998-7.3 -159.35-6Q-157.89999999999998-4.7 -155.14999999999998-4.25Q-152.39999999999998-3.8 -147.89999999999998-3.8L-147.89999999999998-3.8L-147.89999999999998 0L-183.2 0L-183.2-3.8Q-179.7-3.9 -177.54999999999998-4.4Q-175.39999999999998-4.9 -174.2-6.1Q-173-7.3 -172.6-9.5Q-172.2-11.7 -172.2-15.2L-172.2-15.2L-172.2-61.8Q-172.2-65.3 -172.54999999999998-67.45Q-172.89999999999998-69.6 -173.95-70.85Q-175-72.1 -177-72.55Q-179-73 -182.2-73.2L-182.2-73.2L-182.2-77L-150.79999999999998-77Q-137-77 -129.45-71.9Q-121.89999999999999-66.8 -121.89999999999999-57.7ZM-161.7-70.6L-161.7-41.5L-154.6-41.5Q-144.6-41.5 -139.75-45.15Q-134.89999999999998-48.8 -134.89999999999998-57.2L-134.89999999999998-57.2Q-134.89999999999998-65.3 -138.75-68.8Q-142.6-72.3 -150.79999999999998-72.3L-150.79999999999998-72.3L-160-72.3Q-161.7-72.3 -161.7-70.6L-161.7-70.6ZM-60.49999999999998-12.1L-57.39999999999998-9.3Q-65.89999999999998 1 -78.49999999999997 1L-78.49999999999997 1Q-84.39999999999998 1 -89.19999999999999-0.95Q-93.99999999999999-2.9 -97.44999999999997-6.45Q-100.89999999999998-10 -102.79999999999998-14.95Q-104.69999999999997-19.9 -104.69999999999997-25.9L-104.69999999999997-25.9Q-104.69999999999997-32 -102.69999999999997-37.2Q-100.69999999999997-42.4 -97.04999999999998-46.1Q-93.39999999999998-49.8 -88.34999999999998-51.9Q-83.29999999999998-54 -77.29999999999998-54L-77.29999999999998-54Q-67.59999999999998-54 -62.29999999999998-48.75Q-56.99999999999998-43.5 -56.99999999999998-33.7L-56.99999999999998-33.7Q-56.99999999999998-32.3 -57.54999999999998-32Q-58.09999999999998-31.7 -60.09999999999998-31.7L-60.09999999999998-31.7L-92.99999999999997-31.7Q-93.19999999999999-30.9 -93.29999999999998-29.75Q-93.39999999999998-28.6 -93.39999999999998-27.2L-93.39999999999998-27.2Q-93.39999999999998-22 -92.14999999999998-17.75Q-90.89999999999998-13.5 -88.54999999999998-10.5Q-86.19999999999999-7.5 -82.94999999999999-5.85Q-79.69999999999999-4.2 -75.69999999999999-4.2L-75.69999999999999-4.2Q-71.49999999999997-4.2 -67.89999999999998-6.05Q-64.29999999999998-7.9 -60.49999999999998-12.1L-60.49999999999998-12.1ZM-92.29999999999998-36.3L-73.89999999999998-36.3Q-71.89999999999998-36.3 -70.69999999999999-36.4Q-69.49999999999997-36.5 -68.89999999999998-36.8Q-68.29999999999998-37.1 -68.09999999999998-37.65Q-67.89999999999998-38.2 -67.89999999999998-39.1L-67.89999999999998-39.1Q-67.89999999999998-43.7 -70.84999999999998-46.45Q-73.79999999999998-49.2 -78.89999999999998-49.2L-78.89999999999998-49.2Q-89.69999999999999-49.2 -92.29999999999998-36.3L-92.29999999999998-36.3ZM-30.699999999999974-29.1L-30.699999999999974-15.7Q-30.699999999999974-11.6 -30.499999999999975-9.25Q-30.299999999999976-6.9 -29.449999999999974-5.65Q-28.599999999999977-4.4 -26.949999999999974-4Q-25.299999999999976-3.6 -22.399999999999977-3.4L-22.399999999999977-3.4L-22.399999999999977 0L-48.59999999999997 0L-48.59999999999997-3.4Q-45.799999999999976-3.6 -44.14999999999998-4Q-42.49999999999997-4.4 -41.59999999999998-5.6Q-40.699999999999974-6.8 -40.449999999999974-9Q-40.199999999999974-11.2 -40.199999999999974-15L-40.199999999999974-15L-40.199999999999974-28.3Q-40.199999999999974-40.2 -40.799999999999976-42.8L-40.799999999999976-42.8Q-41.09999999999998-44.1 -41.549999999999976-44.95Q-41.99999999999997-45.8 -42.89999999999998-46.25Q-43.799999999999976-46.7 -45.199999999999974-46.85Q-46.59999999999997-47 -48.799999999999976-47L-48.799999999999976-47L-48.799999999999976-50.2L-32.799999999999976-54L-31.599999999999977-44.1L-31.199999999999974-44.1Q-27.399999999999977-48.8 -22.299999999999976-51.4Q-17.199999999999974-54 -11.199999999999974-54L-11.199999999999974-54Q-6.599999999999973-54 -2.799999999999976-52.5Q 1.0000000000000213-51  3.0000000000000213-48.4L 3.0000000000000213-48.4Q 4.700000000000024-46.1  5.400000000000027-42.45Q 6.100000000000023-38.8  6.100000000000023-32.4L 6.100000000000023-32.4L 6.100000000000023-15.7Q 6.100000000000023-11.6  6.350000000000023-9.25Q 6.600000000000023-6.9  7.400000000000027-5.65Q 8.200000000000024-4.4  9.850000000000023-4Q 11.500000000000021-3.6  14.200000000000024-3.4L 14.200000000000024-3.4L 14.200000000000024 0L-11.699999999999974 0L-11.699999999999974-3.4Q-8.899999999999977-3.5 -7.249999999999979-3.95Q-5.599999999999973-4.4 -4.749999999999979-5.6Q-3.8999999999999773-6.8 -3.6499999999999773-9.05Q-3.3999999999999773-11.3 -3.3999999999999773-15L-3.3999999999999773-15L-3.3999999999999773-28.2Q-3.3999999999999773-33.9 -3.9999999999999787-37.8Q-4.599999999999973-41.7 -5.949999999999974-44.1Q-7.299999999999976-46.5 -9.499999999999979-47.55Q-11.699999999999974-48.6 -14.799999999999976-48.6L-14.799999999999976-48.6Q-19.299999999999976-48.6 -23.049999999999976-46.25Q-26.799999999999976-43.9 -28.899999999999977-39.8L-28.899999999999977-39.8Q-29.399999999999977-38.8 -29.749999999999975-37.9Q-30.099999999999977-37 -30.299999999999976-35.8Q-30.499999999999975-34.6 -30.599999999999977-33.05Q-30.699999999999974-31.5 -30.699999999999974-29.1L-30.699999999999974-29.1ZM 26.600000000000026-46.7L 20.600000000000026-46.7L 20.600000000000026-50.4Q 25.900000000000027-53.5  28.900000000000027-56.6Q 31.900000000000027-59.7  33.50000000000003-64L 33.50000000000003-64L 36.40000000000003-64L 36.40000000000003-51.4L 49.800000000000026-51.4L 49.800000000000026-46.7L 36.40000000000003-46.7L 36.40000000000003-16.3Q 36.40000000000003-12.8  36.75000000000003-10.4Q 37.10000000000002-8  37.90000000000003-6.55Q 38.70000000000003-5.1  40.00000000000003-4.5Q 41.300000000000026-3.9  43.300000000000026-3.9L 43.300000000000026-3.9Q 45.800000000000026-3.9  47.550000000000026-4.95Q 49.300000000000026-6  51.00000000000003-8.5L 51.00000000000003-8.5L 53.50000000000003-6.6Q 52.10000000000002-2.9  48.65000000000002-0.95Q 45.20000000000003 1  40.10000000000002 1L 40.10000000000002 1Q 33.50000000000003 1  30.050000000000026-2.15Q 26.600000000000026-5.3  26.600000000000026-11.2L 26.600000000000026-11.2L 26.600000000000026-46.7ZM 89.30000000000004-21.7L 89.30000000000004-29.6Q 83.60000000000004-27.4  79.65000000000003-25.3Q 75.70000000000003-23.2  73.30000000000004-21.1Q 70.90000000000003-19  69.85000000000004-16.9Q 68.80000000000004-14.8  68.80000000000004-12.6L 68.80000000000004-12.6Q 68.80000000000004-9.3  71.00000000000003-7.2Q 73.20000000000003-5.1  76.80000000000004-5.1L 76.80000000000004-5.1Q 79.40000000000003-5.1  81.65000000000003-6.4Q 83.90000000000003-7.7  85.60000000000004-9.95Q 87.30000000000004-12.2  88.30000000000004-15.25Q 89.30000000000004-18.3  89.30000000000004-21.7L 89.30000000000004-21.7ZM 74.90000000000003-27.6L 89.30000000000004-33.9L 89.30000000000004-38Q 89.30000000000004-50.2  78.90000000000003-50.2L 78.90000000000003-50.2Q 77.20000000000003-50.2  76.00000000000003-49.9Q 74.80000000000004-49.6  74.00000000000003-48.9Q 73.20000000000003-48.2  72.55000000000004-46.9Q 71.90000000000003-45.6  71.30000000000004-43.7L 71.30000000000004-43.7Q 70.20000000000003-40.8  69.15000000000003-39.85Q 68.10000000000004-38.9  66.10000000000004-38.9L 66.10000000000004-38.9Q 61.10000000000004-38.9  61.10000000000004-43.9L 61.10000000000004-43.9Q 61.10000000000004-48.7  66.20000000000003-51.35Q 71.30000000000004-54  80.70000000000003-54L 80.70000000000003-54Q 90.70000000000003-54  94.90000000000003-50.45Q 99.10000000000004-46.9  99.10000000000004-38.4L 99.10000000000004-38.4L 99.10000000000004-16Q 99.10000000000004-4.6  103.60000000000004-4.6L 103.60000000000004-4.6Q 105.00000000000003-4.6  106.30000000000004-4.95Q 107.60000000000004-5.3  108.50000000000003-6.8L 108.50000000000003-6.8L 109.90000000000003-4.4Q 108.70000000000003-2.1  105.50000000000003-0.55Q 102.30000000000004 1  98.80000000000004 1L 98.80000000000004 1Q 94.40000000000003 1  92.25000000000003-1.8Q 90.10000000000004-4.6  90.10000000000004-9.7L 90.10000000000004-9.7L 89.60000000000004-9.7Q 87.00000000000003-4.8  82.40000000000003-1.95Q 77.80000000000004 0.9  72.20000000000003 0.9L 72.20000000000003 0.9Q 65.90000000000003 0.9  62.30000000000003-2.3Q 58.70000000000003-5.5  58.70000000000003-10.9L 58.70000000000003-10.9Q 58.70000000000003-13.3  59.55000000000003-15.5Q 60.400000000000034-17.7  62.30000000000003-19.7Q 64.20000000000003-21.7  67.30000000000004-23.65Q 70.40000000000003-25.6  74.90000000000003-27.6L 74.90000000000003-27.6ZM 130.70000000000005-83L 130.70000000000005-15.6Q 130.70000000000005-11.8  131.00000000000003-9.5Q 131.30000000000004-7.2  132.25000000000003-5.9Q 133.20000000000005-4.6  134.95000000000005-4.1Q 136.70000000000005-3.6  139.60000000000005-3.5L 139.60000000000005-3.5L 139.60000000000005 0L 112.00000000000004 0L 112.00000000000004-3.5Q 115.00000000000004-3.6  116.80000000000004-4.15Q 118.60000000000004-4.7  119.65000000000003-5.9Q 120.70000000000005-7.1  121.05000000000004-9.25Q 121.40000000000003-11.4  121.40000000000003-14.9L 121.40000000000003-14.9L 121.40000000000003-58Q 121.40000000000003-63.4  121.25000000000004-67.05Q 121.10000000000004-70.7  120.80000000000004-72L 120.80000000000004-72Q 120.30000000000004-74.3  118.45000000000005-75.1Q 116.60000000000004-75.9  111.80000000000004-75.9L 111.80000000000004-75.9L 111.80000000000004-79.3L 130.70000000000005-83ZM 152.90000000000006-3.5L 150.90000000000006 0L 148.70000000000007 0L 148.70000000000007-17.2L 151.20000000000007-17.2Q 155.10000000000008-3.1  165.40000000000006-3.1L 165.40000000000006-3.1Q 169.40000000000006-3.1  171.75000000000006-5.05Q 174.10000000000008-7  174.10000000000008-11L 174.10000000000008-11Q 174.10000000000008-12.5  173.65000000000006-13.55Q 173.20000000000007-14.6  171.95000000000007-15.75Q 170.70000000000007-16.9  168.45000000000007-18.4Q 166.20000000000007-19.9  162.50000000000006-22.2L 162.50000000000006-22.2Q 159.10000000000008-24.3  156.60000000000008-26.1Q 154.10000000000008-27.9  152.40000000000006-29.75Q 150.70000000000007-31.6  149.85000000000008-33.7Q 149.00000000000006-35.8  149.00000000000006-38.6L 149.00000000000006-38.6Q 149.00000000000006-42  150.15000000000006-44.85Q 151.30000000000007-47.7  153.30000000000007-49.7Q 155.30000000000007-51.7  158.00000000000006-52.85Q 160.70000000000007-54  163.90000000000006-54L 163.90000000000006-54Q 166.60000000000008-54  169.50000000000006-53.15Q 172.40000000000006-52.3  174.60000000000008-50.9L 174.60000000000008-50.9L 176.60000000000008-53L 178.50000000000006-53L 178.50000000000006-38.6L 175.90000000000006-38.6Q 173.70000000000007-44.7  171.10000000000008-47.3Q 168.50000000000006-49.9  164.70000000000007-49.9L 164.70000000000007-49.9Q 161.30000000000007-49.9  159.25000000000006-48.1Q 157.20000000000007-46.3  157.20000000000007-43.1L 157.20000000000007-43.1Q 157.20000000000007-41.4  157.75000000000006-40.15Q 158.30000000000007-38.9  159.50000000000006-37.7Q 160.70000000000007-36.5  162.55000000000007-35.25Q 164.40000000000006-34  167.00000000000006-32.4L 167.00000000000006-32.4Q 171.30000000000007-29.7  174.35000000000008-27.6Q 177.40000000000006-25.5  179.30000000000007-23.45Q 181.20000000000007-21.4  182.10000000000008-19.2Q 183.00000000000006-17  183.00000000000006-14.2L 183.00000000000006-14.2Q 183.00000000000006-7.1  178.40000000000006-3.05Q 173.80000000000007 1  166.30000000000007 1L 166.30000000000007 1Q 158.50000000000006 1  152.90000000000006-3.5L 152.90000000000006-3.5Z" />
  <path text="Collective" text-anchor="middle" font-size="100" letter-spacing="0" side="left" offset="0.5" dx="0" dy="0" space="preserve" href="" font-family="Libre Baskerville" font-scale="contain" transform="matrix(0.2522487938404083, 0, 0, 0.2522487938404083, 251.68218994140625, 327.53826904296875)" x="0" y="0" fill="#000000" data-fl-textpath="" id="_Y67yIMbGgVWvIFbFfvAJH" d="M-187.40000000000006-70.8L-185.60000000000005-77L-182.80000000000007-77L-181.90000000000006-54L-185.60000000000005-54Q-187.80000000000007-62.8 -194.10000000000005-67.8Q-200.40000000000006-72.8 -209.30000000000007-72.8L-209.30000000000007-72.8Q-215.40000000000006-72.8 -220.20000000000005-70.4Q-225.00000000000006-68 -228.30000000000007-63.5Q-231.60000000000005-59 -233.35000000000005-52.5Q-235.10000000000005-46 -235.10000000000005-37.8L-235.10000000000005-37.8Q-235.10000000000005-21.7 -228.40000000000006-13.05Q-221.70000000000005-4.4 -209.00000000000006-4.4L-209.00000000000006-4.4Q-189.70000000000005-4.4 -184.20000000000005-24.9L-184.20000000000005-24.9L-180.10000000000005-24.9L-180.10000000000005 0L-183.60000000000005 0L-185.90000000000006-7.9Q-196.40000000000006 1 -211.30000000000007 1L-211.30000000000007 1Q-219.80000000000007 1 -226.65000000000006-1.7Q-233.50000000000006-4.4 -238.35000000000005-9.35Q-243.20000000000005-14.3 -245.85000000000005-21.4Q-248.50000000000006-28.5 -248.50000000000006-37.2L-248.50000000000006-37.2Q-248.50000000000006-46.3 -245.70000000000005-53.8Q-242.90000000000006-61.3 -237.85000000000005-66.7Q-232.80000000000007-72.1 -225.75000000000006-75.05Q-218.70000000000005-78 -210.20000000000005-78L-210.20000000000005-78Q-204.20000000000005-78 -198.90000000000006-76.3Q-193.60000000000005-74.6 -187.40000000000006-70.8L-187.40000000000006-70.8ZM-141.80000000000007-54L-141.80000000000007-54Q-136.10000000000008-54 -131.00000000000006-51.95Q-125.90000000000006-49.9 -122.05000000000007-46.3Q-118.20000000000007-42.7 -115.95000000000007-37.75Q-113.70000000000007-32.8 -113.70000000000007-26.9L-113.70000000000007-26.9Q-113.70000000000007-20.8 -115.95000000000007-15.7Q-118.20000000000007-10.6 -122.05000000000007-6.9Q-125.90000000000006-3.2 -131.00000000000006-1.1Q-136.10000000000008 1 -141.80000000000007 1L-141.80000000000007 1Q-147.40000000000006 1 -152.45000000000007-1.05Q-157.50000000000006-3.1 -161.30000000000007-6.8Q-165.10000000000008-10.5 -167.30000000000007-15.65Q-169.50000000000006-20.8 -169.50000000000006-26.9L-169.50000000000006-26.9Q-169.50000000000006-32.8 -167.30000000000007-37.8Q-165.10000000000008-42.8 -161.30000000000007-46.4Q-157.50000000000006-50 -152.45000000000007-52Q-147.40000000000006-54 -141.80000000000007-54ZM-141.80000000000007-49.2L-141.80000000000007-49.2Q-145.50000000000006-49.2 -148.55000000000007-47.6Q-151.60000000000008-46 -153.75000000000006-43.05Q-155.90000000000006-40.1 -157.05000000000007-35.95Q-158.20000000000007-31.8 -158.20000000000007-26.8L-158.20000000000007-26.8Q-158.20000000000007-21.6 -157.05000000000007-17.4Q-155.90000000000006-13.2 -153.75000000000006-10.25Q-151.60000000000008-7.3 -148.60000000000008-5.7Q-145.60000000000008-4.1 -141.80000000000007-4.1L-141.80000000000007-4.1Q-138.00000000000006-4.1 -134.90000000000006-5.7Q-131.80000000000007-7.3 -129.60000000000008-10.3Q-127.40000000000006-13.3 -126.20000000000007-17.5Q-125.00000000000007-21.7 -125.00000000000007-26.8L-125.00000000000007-26.8Q-125.00000000000007-31.8 -126.20000000000007-35.9Q-127.40000000000006-40 -129.60000000000008-42.95Q-131.80000000000007-45.9 -134.90000000000006-47.55Q-138.00000000000006-49.2 -141.80000000000007-49.2ZM-88.00000000000006-83L-88.00000000000006-15.6Q-88.00000000000006-11.8 -87.70000000000006-9.5Q-87.40000000000006-7.2 -86.45000000000006-5.9Q-85.50000000000006-4.6 -83.75000000000006-4.1Q-82.00000000000006-3.6 -79.10000000000007-3.5L-79.10000000000007-3.5L-79.10000000000007 0L-106.70000000000006 0L-106.70000000000006-3.5Q-103.70000000000006-3.6 -101.90000000000006-4.15Q-100.10000000000007-4.7 -99.05000000000007-5.9Q-98.00000000000006-7.1 -97.65000000000006-9.25Q-97.30000000000007-11.4 -97.30000000000007-14.9L-97.30000000000007-14.9L-97.30000000000007-58Q-97.30000000000007-63.4 -97.45000000000006-67.05Q-97.60000000000007-70.7 -97.90000000000006-72L-97.90000000000006-72Q-98.40000000000006-74.3 -100.25000000000006-75.1Q-102.10000000000007-75.9 -106.90000000000006-75.9L-106.90000000000006-75.9L-106.90000000000006-79.3L-88.00000000000006-83ZM-55.500000000000064-83L-55.500000000000064-15.6Q-55.500000000000064-11.8 -55.20000000000006-9.5Q-54.90000000000006-7.2 -53.95000000000006-5.9Q-53.000000000000064-4.6 -51.250000000000064-4.1Q-49.500000000000064-3.6 -46.600000000000065-3.5L-46.600000000000065-3.5L-46.600000000000065 0L-74.20000000000006 0L-74.20000000000006-3.5Q-71.20000000000006-3.6 -69.40000000000006-4.15Q-67.60000000000007-4.7 -66.55000000000007-5.9Q-65.50000000000006-7.1 -65.15000000000006-9.25Q-64.80000000000007-11.4 -64.80000000000007-14.9L-64.80000000000007-14.9L-64.80000000000007-58Q-64.80000000000007-63.4 -64.95000000000006-67.05Q-65.10000000000007-70.7 -65.40000000000006-72L-65.40000000000006-72Q-65.90000000000006-74.3 -67.75000000000006-75.1Q-69.60000000000007-75.9 -74.40000000000006-75.9L-74.40000000000006-75.9L-74.40000000000006-79.3L-55.500000000000064-83ZM 5.199999999999939-12.1L 8.29999999999994-9.3Q-0.20000000000005969 1 -12.800000000000061 1L-12.800000000000061 1Q-18.700000000000063 1 -23.500000000000064-0.95Q-28.30000000000006-2.9 -31.750000000000064-6.45Q-35.20000000000006-10 -37.100000000000065-14.95Q-39.000000000000064-19.9 -39.000000000000064-25.9L-39.000000000000064-25.9Q-39.000000000000064-32 -37.000000000000064-37.2Q-35.000000000000064-42.4 -31.350000000000062-46.1Q-27.700000000000063-49.8 -22.650000000000063-51.9Q-17.600000000000062-54 -11.600000000000065-54L-11.600000000000065-54Q-1.9000000000000625-54  3.3999999999999346-48.75Q 8.699999999999939-43.5  8.699999999999939-33.7L 8.699999999999939-33.7Q 8.699999999999939-32.3  8.149999999999935-32Q 7.5999999999999375-31.7  5.5999999999999375-31.7L 5.5999999999999375-31.7L-27.30000000000006-31.7Q-27.500000000000064-30.9 -27.600000000000062-29.75Q-27.700000000000063-28.6 -27.700000000000063-27.2L-27.700000000000063-27.2Q-27.700000000000063-22 -26.450000000000063-17.75Q-25.200000000000063-13.5 -22.850000000000062-10.5Q-20.500000000000064-7.5 -17.250000000000064-5.85Q-14.000000000000064-4.2 -10.000000000000064-4.2L-10.000000000000064-4.2Q-5.800000000000061-4.2 -2.2000000000000597-6.05Q 1.3999999999999346-7.9  5.199999999999939-12.1L 5.199999999999939-12.1ZM-26.600000000000062-36.3L-8.20000000000006-36.3Q-6.20000000000006-36.3 -5.000000000000064-36.4Q-3.800000000000061-36.5 -3.2000000000000597-36.8Q-2.6000000000000654-37.1 -2.4000000000000625-37.65Q-2.2000000000000597-38.2 -2.2000000000000597-39.1L-2.2000000000000597-39.1Q-2.2000000000000597-43.7 -5.1500000000000625-46.45Q-8.100000000000065-49.2 -13.200000000000063-49.2L-13.200000000000063-49.2Q-24.000000000000064-49.2 -26.600000000000062-36.3L-26.600000000000062-36.3ZM 60.99999999999994-11.2L 63.99999999999994-8.3Q 60.39999999999995-3.9  54.699999999999946-1.45Q 48.99999999999994 1  42.39999999999995 1L 42.39999999999995 1Q 37.099999999999945 1  32.64999999999995-0.95Q 28.199999999999946-2.9  24.999999999999943-6.45Q 21.799999999999947-10  20.049999999999947-15Q 18.299999999999947-20  18.299999999999947-26.1L 18.299999999999947-26.1Q 18.299999999999947-32.5  20.299999999999947-37.65Q 22.299999999999947-42.8  25.949999999999946-46.45Q 29.599999999999945-50.1  34.74999999999994-52.05Q 39.89999999999995-54  46.09999999999995-54L 46.09999999999995-54Q 49.99999999999994-54  53.199999999999946-53.35Q 56.39999999999995-52.7  58.74999999999994-51.55Q 61.09999999999995-50.4  62.39999999999995-48.75Q 63.699999999999946-47.1  63.699999999999946-45.2L 63.699999999999946-45.2Q 63.699999999999946-43.2  62.39999999999995-42.1Q 61.09999999999995-41  58.79999999999994-41L 58.79999999999994-41Q 56.99999999999994-41  55.79999999999994-41.75Q 54.59999999999995-42.5  52.699999999999946-45.1L 52.699999999999946-45.1Q 50.699999999999946-47.4  48.84999999999995-48.35Q 46.99999999999994-49.3  44.099999999999945-49.3L 44.099999999999945-49.3Q 36.99999999999994-49.3  33.349999999999945-43.8Q 29.699999999999946-38.3  29.699999999999946-27.6L 29.699999999999946-27.6Q 29.699999999999946-16.1  33.74999999999994-10.15Q 37.79999999999994-4.2  45.59999999999995-4.2L 45.59999999999995-4.2Q 49.79999999999994-4.2  53.49999999999994-5.85Q 57.199999999999946-7.5  60.99999999999994-11.2L 60.99999999999994-11.2ZM 76.99999999999994-46.7L 70.99999999999994-46.7L 70.99999999999994-50.4Q 76.29999999999994-53.5  79.29999999999994-56.6Q 82.29999999999994-59.7  83.89999999999995-64L 83.89999999999995-64L 86.79999999999994-64L 86.79999999999994-51.4L 100.19999999999995-51.4L 100.19999999999995-46.7L 86.79999999999994-46.7L 86.79999999999994-16.3Q 86.79999999999994-12.8  87.14999999999995-10.4Q 87.49999999999994-8  88.29999999999994-6.55Q 89.09999999999994-5.1  90.39999999999995-4.5Q 91.69999999999995-3.9  93.69999999999995-3.9L 93.69999999999995-3.9Q 96.19999999999995-3.9  97.94999999999995-4.95Q 99.69999999999995-6  101.39999999999995-8.5L 101.39999999999995-8.5L 103.89999999999995-6.6Q 102.49999999999994-2.9  99.04999999999994-0.95Q 95.59999999999994 1  90.49999999999994 1L 90.49999999999994 1Q 83.89999999999995 1  80.44999999999995-2.15Q 76.99999999999994-5.3  76.99999999999994-11.2L 76.99999999999994-11.2L 76.99999999999994-46.7ZM 127.59999999999995-54L 127.59999999999995-15.9Q 127.59999999999995-12  127.94999999999996-9.65Q 128.29999999999995-7.3  129.29999999999995-5.95Q 130.29999999999995-4.6  132.09999999999997-4.1Q 133.89999999999995-3.6  136.89999999999995-3.5L 136.89999999999995-3.5L 136.89999999999995 0L 108.19999999999996 0L 108.19999999999996-3.5Q 111.19999999999996-3.6  113.09999999999995-4.15Q 114.99999999999996-4.7  116.04999999999995-5.95Q 117.09999999999995-7.2  117.44999999999996-9.45Q 117.79999999999995-11.7  117.79999999999995-15.2L 117.79999999999995-15.2L 117.79999999999995-28Q 117.79999999999995-33.8  117.64999999999995-37.55Q 117.49999999999996-41.3  117.09999999999995-42.7L 117.09999999999995-42.7Q 116.59999999999995-45  114.79999999999995-45.85Q 112.99999999999996-46.7  107.99999999999996-46.7L 107.99999999999996-46.7L 107.99999999999996-50.2L 127.59999999999995-54ZM 116.09999999999995-74.3L 116.09999999999995-74.3Q 116.09999999999995-76.9  117.89999999999995-78.7Q 119.69999999999996-80.5  122.29999999999995-80.5L 122.29999999999995-80.5Q 124.89999999999995-80.5  126.69999999999996-78.7Q 128.49999999999994-76.9  128.49999999999994-74.3L 128.49999999999994-74.3Q 128.49999999999994-71.7  126.69999999999996-69.9Q 124.89999999999995-68.1  122.29999999999995-68.1L 122.29999999999995-68.1Q 119.69999999999996-68.1  117.89999999999995-69.9Q 116.09999999999995-71.7  116.09999999999995-74.3ZM 165.69999999999996 1.1L 148.79999999999995-40.6Q 147.59999999999994-43.6  146.64999999999995-45.35Q 145.69999999999996-47.1  144.59999999999994-48Q 143.49999999999994-48.9  142.14999999999995-49.15Q 140.79999999999995-49.4  138.89999999999995-49.5L 138.89999999999995-49.5L 138.89999999999995-53L 165.39999999999995-53L 165.39999999999995-49.5Q 163.39999999999995-49.4  162.09999999999994-49.3Q 160.79999999999995-49.2  160.04999999999995-48.85Q 159.29999999999995-48.5  158.99999999999994-47.85Q 158.69999999999996-47.2  158.69999999999996-46L 158.69999999999996-46Q 158.69999999999996-44.3  159.14999999999995-42.8Q 159.59999999999994-41.3  160.09999999999994-39.8L 160.09999999999994-39.8L 170.69999999999993-10.8L 171.09999999999997-10.8L 180.19999999999993-32.3Q 182.29999999999995-37.3  183.19999999999993-40.3Q 184.09999999999997-43.3  184.09999999999997-45.6L 184.09999999999997-45.6Q 184.09999999999997-47.9  182.89999999999995-48.7Q 181.69999999999993-49.5  177.69999999999993-49.5L 177.69999999999993-49.5L 177.69999999999993-53L 197.59999999999997-53L 197.59999999999997-49.5Q 195.99999999999994-49.5  194.69999999999993-48.7Q 193.39999999999995-47.9  192.39999999999995-46.7L 192.39999999999995-46.7Q 191.59999999999997-45.6  190.74999999999994-43.75Q 189.89999999999995-41.9  189.04999999999995-39.9Q 188.19999999999993-37.9  187.49999999999994-35.95Q 186.79999999999995-34  186.19999999999993-32.8L 186.19999999999993-32.8L 171.49999999999994 1.1L 165.69999999999996 1.1ZM 246.29999999999993-12.1L 249.39999999999992-9.3Q 240.89999999999992 1  228.29999999999993 1L 228.29999999999993 1Q 222.39999999999992 1  217.59999999999994-0.95Q 212.79999999999993-2.9  209.34999999999994-6.45Q 205.89999999999992-10  203.99999999999994-14.95Q 202.09999999999994-19.9  202.09999999999994-25.9L 202.09999999999994-25.9Q 202.09999999999994-32  204.09999999999994-37.2Q 206.09999999999994-42.4  209.74999999999994-46.1Q 213.39999999999992-49.8  218.44999999999993-51.9Q 223.49999999999994-54  229.49999999999994-54L 229.49999999999994-54Q 239.19999999999993-54  244.49999999999994-48.75Q 249.79999999999993-43.5  249.79999999999993-33.7L 249.79999999999993-33.7Q 249.79999999999993-32.3  249.24999999999994-32Q 248.69999999999993-31.7  246.69999999999993-31.7L 246.69999999999993-31.7L 213.79999999999993-31.7Q 213.59999999999994-30.9  213.49999999999994-29.75Q 213.39999999999992-28.6  213.39999999999992-27.2L 213.39999999999992-27.2Q 213.39999999999992-22  214.64999999999992-17.75Q 215.89999999999992-13.5  218.24999999999994-10.5Q 220.59999999999994-7.5  223.84999999999994-5.85Q 227.09999999999994-4.2  231.09999999999994-4.2L 231.09999999999994-4.2Q 235.29999999999993-4.2  238.89999999999992-6.05Q 242.49999999999994-7.9  246.29999999999993-12.1L 246.29999999999993-12.1ZM 214.49999999999994-36.3L 232.89999999999992-36.3Q 234.89999999999992-36.3  236.09999999999994-36.4Q 237.29999999999993-36.5  237.89999999999992-36.8Q 238.49999999999994-37.1  238.69999999999993-37.65Q 238.89999999999992-38.2  238.89999999999992-39.1L 238.89999999999992-39.1Q 238.89999999999992-43.7  235.94999999999993-46.45Q 232.99999999999994-49.2  227.89999999999992-49.2L 227.89999999999992-49.2Q 217.09999999999994-49.2  214.49999999999994-36.3L 214.49999999999994-36.3Z" />
</svg>