<svg xmlns="http://www.w3.org/2000/svg" viewBox="0 0 512 512" style="enable-background:new 0 0 512 512" xml:space="preserve"><path style="fill:#000" d="M169.66 183.504h192.276v43.098c0 26.521-21.5 48.021-48.021 48.021h-96.234c-26.521 0-48.021-21.5-48.021-48.021v-43.098z"/><path style="fill:#000" d="M341.936 183.504v43.098c0 26.521-21.5 48.021-48.021 48.021h20c26.521 0 48.021-21.5 48.021-48.021v-43.098h-20zM306.329 53.467 171.797 187.999l-30.475-30.475c-18.753-18.753-18.753-49.159 0-67.912l68.047-68.047c18.753-18.753 49.159-18.753 67.912 0l29.047 29.047c.79.788.79 2.066.001 2.855z"/><path style="fill:#000" d="m306.329 50.611-29.047-29.047C259.779 4.061 232.129 2.9 213.272 18.07c16.704-2.599 35.721 3.556 50.081 17.916l30.228 30.228 12.748-12.748a2.018 2.018 0 0 0 0-2.855zM242.248 365.518h47.1c5.758 0 10.425-4.668 10.425-10.425v-49.577h-67.95v49.577c0 5.757 4.668 10.425 10.425 10.425z"/><path style="fill:#000" d="M279.773 305.516v49.577c0 5.758-4.667 10.425-10.425 10.425h20c5.758 0 10.425-4.668 10.425-10.425v-49.577h-20zM154.29 183.5h223.02v28.644H154.29z"/><path style="fill:#000" d="M357.31 183.5h20v28.644h-20z"/><path d="m389.241 502.546-16.693-62.167a7.49 7.49 0 0 0-.442-1.647L329.433 279.82c22.862-6.818 39.589-28.09 39.589-53.221v-6.951h7.839c4.127 0 7.472-3.358 7.472-7.5v-28.644c0-4.142-3.345-7.5-7.472-7.5H361.55c-4.127 0-7.472 3.358-7.472 7.5s3.345 7.5 7.472 7.5h7.838v13.644H162.135v-13.644h166.459c4.127 0 7.472-3.358 7.472-7.5s-3.345-7.5-7.472-7.5H194.627L311.429 58.773c3.699-3.713 3.699-9.754-.001-13.468l-28.941-29.037C272.04 5.777 258.149 0 243.371 0s-28.669 5.777-39.114 16.266l-9.01 9.041-2.984-2.995c-7.93-7.959-20.833-7.957-28.765 0L142.488 43.4c-7.931 7.96-7.931 20.912 0 28.871l2.98 2.991-9.014 9.046c-5.432 5.457-9.597 11.836-12.38 18.962-1.506 3.856.387 8.208 4.23 9.72 3.845 1.51 8.178-.39 9.684-4.246a40.272 40.272 0 0 1 9.036-13.831l14.266-14.316.032-.029.029-.032 53.476-53.664C222.449 19.216 232.587 15 243.371 15s20.922 4.216 28.547 11.874l25.083 25.166-123.51 123.964h-2.766l-23.701-23.788c-4.625-4.641-7.964-10.141-9.927-16.346-1.248-3.948-5.451-6.132-9.383-4.878-3.934 1.254-6.11 5.471-4.861 9.418 2.656 8.396 7.361 16.146 13.603 22.413l14.266 14.318a7.494 7.494 0 0 0-3.531 6.363v28.644c0 4.142 3.345 7.5 7.472 7.5h7.841v6.951c0 25.11 16.7 46.369 39.533 53.205-2.391 8.748-7.325 27.075-17.795 66.092-1.073 4 1.287 8.115 5.273 9.192.651.176 1.305.26 1.948.26a7.481 7.481 0 0 0 7.211-5.551c4.044-15.069 7.287-27.143 9.881-36.782h15.885v42.077c0 9.884 8.011 17.925 17.86 17.925h46.927c9.848 0 17.86-8.041 17.86-17.925v-42.077h15.784l32.491 120.998H176.101c4.421-16.509 9.248-34.522 14.086-52.569 1.072-4-1.288-8.115-5.274-9.191-3.986-1.075-8.085 1.293-9.158 5.293-16.806 62.679-33.474 125.008-33.474 125.008-1.07 4 1.293 8.114 5.279 9.188a7.45 7.45 0 0 0 1.942.258 7.48 7.48 0 0 0 7.212-5.558s6.45-24.117 15.369-57.429h187.304l15.423 57.437a7.479 7.479 0 0 0 7.21 5.55c.644 0 1.298-.084 1.95-.26 3.985-1.078 6.345-5.194 5.271-9.194zM153.057 61.665a5.434 5.434 0 0 1 0-7.659l21.009-21.087a5.388 5.388 0 0 1 7.631 0l2.983 2.994-28.643 28.744-2.98-2.992zm24.392 164.934v-6.951h176.628v6.951c0 22.343-18.11 40.52-40.371 40.52H217.82c-22.261 0-40.371-18.177-40.371-40.52zm114.692 128.493a2.923 2.923 0 0 1-2.915 2.925h-46.927a2.924 2.924 0 0 1-2.915-2.925v-42.077h52.757v42.077zm7.472-57.077h-87.019a6676.147 6676.147 0 0 1 4.309-15.92c.306.005.609.023.917.023h95.887c.289 0 .573-.017.861-.022l4.274 15.918h-19.229v.001z"/><path d="M255 340.01h21.524c4.127 0 7.472-3.358 7.472-7.5s-3.345-7.5-7.472-7.5H255c-4.127 0-7.472 3.358-7.472 7.5 0 4.143 3.345 7.5 7.472 7.5zM235.622 244.637h60.28c4.127 0 7.472-3.358 7.472-7.5s-3.345-7.5-7.472-7.5h-60.28c-4.127 0-7.472 3.358-7.472 7.5s3.345 7.5 7.472 7.5z"/></svg>