<svg xmlns="http://www.w3.org/2000/svg" width="64" height="64" xml:space="preserve"><path d="M44.498 0H19.502c-2.757 0-5 2.243-5 5v52.998a5.007 5.007 0 0 0 4 4.898V63a1 1 0 1 0 2 0v-.002h22.996V63a1 1 0 1 0 2 0v-.104a5.007 5.007 0 0 0 4-4.898V5c0-2.757-2.243-5-5-5zM16.502 6h30.996v26H16.502V6zm3-4h24.996c1.302 0 2.401.839 2.815 2H16.687a2.995 2.995 0 0 1 2.815-2zm24.996 58.998H19.502c-1.654 0-3-1.346-3-3V34h30.996v23.998c0 1.654-1.346 3-3 3z"/><path d="M26.984 25h-6.973c-1.379 0-2.5 1.121-2.5 2.5s1.121 2.5 2.5 2.5h6.973c1.379 0 2.5-1.121 2.5-2.5s-1.121-2.5-2.5-2.5zm-6.972 3c-.275 0-.5-.225-.5-.5s.225-.5.5-.5h6.973c.275 0 .5.225.5.5s-.225.5-.5.5h-6.973zM26.984 35h-6.973c-1.379 0-2.5 1.121-2.5 2.5s1.121 2.5 2.5 2.5h6.973c1.379 0 2.5-1.121 2.5-2.5s-1.121-2.5-2.5-2.5zm-6.972 3c-.275 0-.5-.225-.5-.5s.225-.5.5-.5h6.973c.275 0 .5.225.5.5s-.225.5-.5.5h-6.973z"/></svg>