<svg version="1.0" xmlns="http://www.w3.org/2000/svg" width="100" height="100" xml:space="preserve"><path d="M90 63.333v-6.666h-6.667V50L80 46.667 76.667 50v6.667H70V50l-3.333-3.333L63.333 50v6.667h-6.666V50l-3.334-3.333L50 50v6.667h-6.667V50L40 46.667 36.667 50v6.667H30V50l-3.333-3.333L23.333 50v6.667h-6.667V50l-3.333-3.333L10 50v40h6.667v-6.667h6.667V90H30v-6.667h6.667V90h6.667v-6.667H50V90h6.667v-6.667h6.666V90H70v-6.667h6.667V90h6.666v-6.667H90v-6.666h-6.667V63.333H90zM16.667 76.667V63.333h6.667v13.334h-6.667zm13.333 0V63.333h6.667v13.334H30zm13.333 0V63.333H50v13.334h-6.667zm13.334 0V63.333h6.666v13.334h-6.666zm20 0H70V63.333h6.667v13.334zM73.333 16.667c-5.257 0-9.889 2.469-12.923 6.279A19.882 19.882 0 0 0 50 20c-.898 0-1.774.08-2.64.194C43.926 14.127 37.467 10 30 10c-11.045 0-20 8.955-20 20v10h6.667V30c0-7.363 5.97-13.333 13.333-13.333 4.463 0 8.366 2.227 10.776 5.599C34.376 25.601 30 32.285 30 40h6.667c0-7.363 5.97-13.333 13.333-13.333S63.333 32.637 63.333 40H70c0-4.834-1.716-9.269-4.57-12.726 1.826-2.381 4.668-3.94 7.903-3.94 5.524 0 10 4.478 10 10V40H90v-6.667c0-9.204-7.461-16.666-16.667-16.666z"/></svg>