<svg version="1.0" xmlns="http://www.w3.org/2000/svg" width="100" height="100" xml:space="preserve"><path d="M81.667 38.096V16.667H75v21.429L66.667 50c0 7.363-7.465 13.333-16.667 13.333-9.206 0-16.667-5.97-16.667-13.333L25 38.096V16.667h-6.667v21.429L10 50c0 18.411 17.91 33.333 40 33.333S90 68.411 90 50l-8.333-11.904zM81.862 50h-7.058l3.528-5.039L81.862 50zm-56.667 0h-7.058l3.529-5.039L25.195 50zm-7.434 6.667h9.473a39.946 39.946 0 0 0 7.154 16.888h.004c-8.162-3.467-14.275-9.571-16.631-16.888zm32.239 20c-1.172 0-2.331-.053-3.47-.146-3.327-2.533-6.133-5.697-8.317-9.281C41.673 68.984 45.696 70 50 70c10.153 0 18.77-5.569 21.976-13.333H82.24c-3.705 11.494-16.716 20-32.24 20z"/></svg>