<svg version="1.0" xmlns="http://www.w3.org/2000/svg" width="100" height="100" xml:space="preserve"><path d="M83.333 10H16.667C13.001 10 10 12.998 10 16.667V70c0 3.665 3.001 6.667 6.667 6.667h30v6.666H30V90h40v-6.667H53.333v-6.666h30C86.999 76.667 90 73.665 90 70V16.667C90 12.998 86.999 10 83.333 10zm0 60H16.667V16.667h66.666V70z"/><path d="M40 25v15h-6.667V25h-6.666v36.667h6.666v-15H40v15h6.667V25zM63.333 25h-10v36.667h10c5.521 0 10-4.474 10-10.001V35c0-5.521-4.473-10-10-10zm3.334 26.666A3.331 3.331 0 0 1 63.333 55H60V31.667h3.333A3.332 3.332 0 0 1 66.667 35v16.666z"/></svg>