<svg xmlns="http://www.w3.org/2000/svg" width="64" height="64" xml:space="preserve"><path d="M63 11.5H1a1 1 0 0 0-1 1v36.001a1 1 0 0 0 1 1h3.002V51.5a1 1 0 0 0 1 1h10a1 1 0 0 0 1-1v-1.999h31.996V51.5a1 1 0 0 0 1 1h10a1 1 0 0 0 1-1v-1.999H63a1 1 0 0 0 1-1V12.5a1 1 0 0 0-1-1zm-48.998 39h-8v-.999h8v.999zm43.996 0h-8v-.999h8v.999zM62 47.501H2V13.5h60v34.001z"/><path d="M5.001 45.5H47a1 1 0 0 0 1-1v-28a1 1 0 0 0-1-1H5.001a1 1 0 0 0-1 1v28a1 1 0 0 0 1 1zM45 27.501h1v6.001h-1v-6.001zM6.001 17.5H46v8.001h-2a1 1 0 0 0-1 1v8.001a1 1 0 0 0 1 1h2V43.5H6.001v-26zM51.028 29.504h-.011c-.552 0-.994.448-.994 1s.452 1 1.005 1a1 1 0 0 0 0-2zM55.029 29.504h-.011c-.552 0-.994.448-.994 1s.452 1 1.005 1a1 1 0 0 0 0-2zM59.03 29.504h-.01c-.552 0-.994.448-.994 1s.452 1 1.005 1a1 1 0 1 0-.001-2zM51.028 33.505h-.011c-.552 0-.994.447-.994 1s.452 1 1.005 1a1 1 0 1 0 0-2zM55.029 33.505h-.011c-.552 0-.994.447-.994 1s.452 1 1.005 1a1 1 0 1 0 0-2zM59.03 33.505h-.01c-.552 0-.994.447-.994 1s.452 1 1.005 1a1 1 0 1 0-.001-2zM51.028 37.507h-.011c-.552 0-.994.447-.994 1s.452 1 1.005 1a1 1 0 1 0 0-2zM55.029 37.507h-.011c-.552 0-.994.447-.994 1s.452 1 1.005 1a1 1 0 1 0 0-2zM59.03 37.507h-.01c-.552 0-.994.447-.994 1s.452 1 1.005 1a1 1 0 1 0-.001-2zM50.998 27.504h8.001a1 1 0 0 0 1-1v-5.002a1 1 0 0 0-1-1h-8.001a1 1 0 0 0-1 1v5.002a1 1 0 0 0 1 1zm1-5.002h6.001v3.002h-6.001v-3.002z"/></svg>