<svg xmlns="http://www.w3.org/2000/svg" width="64" height="64" xml:space="preserve"><path d="M56 0H8.001a1 1 0 0 0-1 1v11.005a1 1 0 0 0-1 1v5a1 1 0 0 0 1 1V63a1 1 0 0 0 1 1H56a1 1 0 0 0 1-1V19.005a.999.999 0 0 0 .999-1v-5a.999.999 0 0 0-.999-1V1a1 1 0 0 0-1-1zM8.001 17.005v-3h47.998v3H8.001zM9.001 2H55v10.005H9.001V2zM55 19.005V62H9.001V19.005H55z"/><path d="M12.001 60H52a1 1 0 0 0 1-1V22a1 1 0 0 0-1-1H12.001a1 1 0 0 0-1 1v37a1 1 0 0 0 1 1zM51 41H13.001v-.999H51V41zM13.001 58V43H51v15H13.001zM51 23v15.001H13.001V23H51zM19.005 4c-1.654 0-3 1.346-3 3s1.346 3 3 3 3-1.346 3-3-1.346-3-3-3zm0 4a1 1 0 1 1 0-2 1 1 0 0 1 0 2zM45.003 4c-1.654 0-3 1.346-3 3s1.346 3 3 3 3-1.346 3-3-1.346-3-3-3zm0 4a1 1 0 1 1 0-2 1 1 0 0 1 0 2zM38.001 4h-12a1 1 0 0 0-1 1v4a1 1 0 0 0 1 1h12a1 1 0 0 0 1-1V5a1 1 0 0 0-1-1zm-1 4h-10V6h10v2z"/></svg>