<svg version="1.0" xmlns="http://www.w3.org/2000/svg" width="100" height="100" xml:space="preserve"><path d="m46.497 16.263-2.356 2.356-4.714-4.713c-5.204-5.205-13.645-5.212-18.853 0a13.289 13.289 0 0 0-3.906 9.426V90h6.666V23.333a6.668 6.668 0 0 1 11.381-4.713l4.712 4.713-2.357 2.357.003.003h-.003c-5.201 5.205-5.204 13.648 0 18.854l28.283-28.284c-5.204-5.205-13.647-5.205-18.856 0zM63 28.044l4.717-4.715 15.622 15.629-4.716 4.714z"/><path d="m44.14 46.903 4.713-4.713 15.625 15.624-4.713 4.714zM69.191 53.102l-15.62-15.629 4.715-4.712 15.62 15.628z"/></svg>