<svg xmlns="http://www.w3.org/2000/svg" width="64" height="64" xml:space="preserve"><path d="M63 5H1a1 1 0 0 0-1 1v52a1 1 0 0 0 1 1h62a1 1 0 0 0 1-1V6a1 1 0 0 0-1-1zm-1 52H2V7h60v50z"/><path d="M15 31c6.065 0 11-4.935 11-11S21.065 9 15 9 4 13.935 4 20s4.935 11 11 11zm0-20c4.963 0 9 4.037 9 9s-4.037 9-9 9-9-4.037-9-9 4.037-9 9-9z"/><path d="M15 26c3.309 0 6-2.691 6-6s-2.691-6-6-6-6 2.691-6 6 2.691 6 6 6zm0-10c2.206 0 4 1.794 4 4s-1.794 4-4 4-4-1.794-4-4 1.794-4 4-4zM39 26c3.309 0 6-2.691 6-6s-2.691-6-6-6-6 2.691-6 6 2.691 6 6 6zm0-10c2.206 0 4 1.794 4 4s-1.794 4-4 4-4-1.794-4-4 1.794-4 4-4zM15 50.001c3.309 0 6-2.691 6-6s-2.691-6-6-6-6 2.691-6 6 2.691 6 6 6zm0-10c2.206 0 4 1.794 4 4s-1.794 4-4 4-4-1.794-4-4 1.794-4 4-4zM39 50.001c3.309 0 6-2.691 6-6s-2.691-6-6-6-6 2.691-6 6 2.691 6 6 6zm0-10c2.206 0 4 1.794 4 4s-1.794 4-4 4-4-1.794-4-4 1.794-4 4-4z"/><path d="M39 31c6.065 0 11-4.935 11-11S45.065 9 39 9s-11 4.935-11 11 4.935 11 11 11zm0-20c4.963 0 9 4.037 9 9s-4.037 9-9 9-9-4.037-9-9 4.037-9 9-9zM15 55.001c6.065 0 11-4.935 11-11s-4.935-11-11-11-11 4.935-11 11 4.935 11 11 11zm0-20c4.963 0 9 4.037 9 9s-4.037 9-9 9-9-4.037-9-9 4.037-9 9-9zM39 55.001c6.065 0 11-4.935 11-11s-4.935-11-11-11-11 4.935-11 11 4.935 11 11 11zm0-20c4.963 0 9 4.037 9 9s-4.037 9-9 9-9-4.037-9-9 4.037-9 9-9zM56 51.503a3.013 3.013 0 0 0 3.009-3.009c0-.018-.009-.031-.01-.049v-2.897c0-.016.005-.031.005-.048 0-1.656-1.348-3.004-3.004-3.004s-3.004 1.348-3.004 3.004c0 .017.005.032.005.048v2.897c-.001.018-.01.031-.01.049A3.013 3.013 0 0 0 56 51.503zm0-2c-.548 0-.99-.44-1.004-.985 0-.009.005-.016.005-.024v-.172c.314.111.647.184.999.184s.685-.072.999-.184v.172c0 .009.005.016.005.024a1.007 1.007 0 0 1-1.004.985zm0-5.007c.548 0 .992.442 1.001.988l-.002.009v.031c-.014.542-.454.98-.999.98s-.985-.438-.999-.98v-.031l-.002-.009A1.003 1.003 0 0 1 56 44.496zM56 41.503a3.013 3.013 0 0 0 3.009-3.009c0-.018-.009-.031-.01-.049v-2.897c0-.016.005-.031.005-.048 0-1.656-1.348-3.004-3.004-3.004s-3.004 1.348-3.004 3.004c0 .017.005.032.005.048v2.897c-.001.018-.01.031-.01.049A3.013 3.013 0 0 0 56 41.503zm0-2c-.548 0-.99-.44-1.004-.985 0-.009.005-.016.005-.024v-.172c.314.111.647.184.999.184s.685-.072.999-.184v.172c0 .009.005.016.005.024a1.007 1.007 0 0 1-1.004.985zm0-5.007c.548 0 .992.442 1.001.988l-.002.009v.031c-.014.542-.454.98-.999.98s-.985-.438-.999-.98v-.031l-.002-.009A1.003 1.003 0 0 1 56 34.496zM56 31.503a3.013 3.013 0 0 0 3.009-3.009c0-.018-.009-.031-.01-.049v-2.897c0-.016.005-.031.005-.048 0-1.656-1.348-3.004-3.004-3.004s-3.004 1.348-3.004 3.004c0 .017.005.032.005.048v2.897c-.001.018-.01.031-.01.049A3.013 3.013 0 0 0 56 31.503zm0-2c-.548 0-.99-.44-1.004-.985 0-.009.005-.016.005-.024v-.172c.314.111.647.184.999.184s.685-.072.999-.184v.172c0 .009.005.016.005.024a1.007 1.007 0 0 1-1.004.985zm0-5.007c.548 0 .992.442 1.001.988l-.002.009v.031c-.014.542-.454.98-.999.98s-.985-.438-.999-.98v-.031l-.002-.009A1.003 1.003 0 0 1 56 24.496zM52.991 18.494c0 1.659 1.35 3.009 3.009 3.009s3.009-1.35 3.009-3.009c0-.018-.009-.031-.01-.049v-2.897c0-.016.005-.031.005-.048 0-1.656-1.348-3.004-3.004-3.004s-3.004 1.348-3.004 3.004c0 .017.005.032.005.048v2.897c-.001.018-.01.032-.01.049zM56 19.503c-.548 0-.99-.44-1.004-.985 0-.009.005-.016.005-.024v-.172c.314.111.647.184.999.184s.685-.072.999-.184v.172c0 .009.005.016.005.024a1.007 1.007 0 0 1-1.004.985zm0-5.007c.548 0 .992.442 1.001.988l-.002.009v.031c-.014.542-.454.98-.999.98s-.985-.438-.999-.98v-.031l-.002-.009A1.003 1.003 0 0 1 56 14.496z"/></svg>